<svg width="383" height="462" viewBox="0 0 383 462" fill="none" xmlns="http://www.w3.org/2000/svg">
<path d="M180.08 219.72C179.276 218.226 177.373 217.727 175.939 218.633L132.887 245.837C131.615 246.641 131.16 248.278 131.834 249.623L135.3 256.541C135.999 257.936 137.67 258.538 139.098 257.908L185.94 237.264C187.503 236.575 188.147 234.701 187.337 233.197L180.08 219.72Z" fill="#141B4D"/>
<path d="M87.6476 148.723C88.2316 147.147 87.3728 145.405 85.7677 144.908L52.4145 134.59C50.9377 134.133 49.3601 134.903 48.8118 136.348L48.6838 136.686C48.1268 138.154 48.8273 139.8 50.2715 140.417L82.3718 154.123C83.9102 154.78 85.6853 154.016 86.2667 152.448L87.6476 148.723Z" fill="#50B2DC"/>
<path d="M146.79 250.483C148.277 249.756 148.865 247.942 148.089 246.48L110.003 174.779C109.269 173.397 107.578 172.837 106.164 173.506L104.339 174.371C102.895 175.055 102.266 176.77 102.926 178.225L136.43 252.194C137.111 253.698 138.9 254.342 140.383 253.616L146.79 250.483Z" fill="#50B2DC"/>
<path d="M62.271 157.197C63.9188 176.936 81.2561 191.601 100.995 189.954C120.734 188.306 135.4 170.968 133.752 151.23C132.104 131.491 114.767 116.825 95.0277 118.473C75.2889 120.121 60.6232 137.458 62.271 157.197Z" fill="#141B4D"/>
<path d="M71.2393 159.017C72.3995 172.915 84.6064 183.241 98.5041 182.081C112.402 180.92 122.728 168.713 121.568 154.816C120.407 140.918 108.2 130.592 94.3027 131.752C80.4049 132.913 70.0791 145.119 71.2393 159.017Z" fill="#C0EDFF"/>
<path d="M76.0916 151.357C76.4784 155.989 80.5473 159.431 85.1799 159.045C89.8125 158.658 93.2545 154.589 92.8677 149.956C92.481 145.324 88.412 141.882 83.7794 142.269C79.1469 142.655 75.7049 146.724 76.0916 151.357Z" fill="white"/>
<path d="M144.86 247.359C144.805 249.183 143.28 250.617 141.455 250.561C139.631 250.506 138.197 248.981 138.252 247.156C138.308 245.332 139.833 243.898 141.657 243.954C143.482 244.009 144.916 245.534 144.86 247.359Z" fill="#141B4D"/>
<path d="M96.6152 139.739C96.6152 141.962 94.8129 143.765 92.5896 143.765C90.3663 143.765 88.564 141.962 88.564 139.739C88.564 137.516 90.3663 135.713 92.5896 135.713C94.8129 135.713 96.6152 137.516 96.6152 139.739Z" fill="white"/>
<path d="M9.8013 138.157C14.5893 150.354 28.3587 156.361 40.5562 151.573C52.7536 146.785 58.7602 133.015 53.9722 120.818C49.1842 108.62 35.4147 102.614 23.2173 107.402C11.0198 112.19 5.0133 125.959 9.8013 138.157Z" fill="#141B4D"/>
<path d="M15.8288 137.612C19.1999 146.2 28.8948 150.429 37.4828 147.058C46.0708 143.687 50.2999 133.992 46.9287 125.404C43.5576 116.816 33.8628 112.587 25.2748 115.958C16.6868 119.329 12.4577 129.024 15.8288 137.612Z" fill="#C0EDFF"/>
<path d="M17.4522 131.835C18.5759 134.698 21.8075 136.107 24.6702 134.984C27.5329 133.86 28.9426 130.628 27.8188 127.766C26.6951 124.903 23.4635 123.493 20.6009 124.617C17.7382 125.741 16.3285 128.972 17.4522 131.835Z" fill="white"/>
<path d="M28.26 120.579C28.6816 121.988 27.8812 123.472 26.4721 123.893C25.0631 124.315 23.579 123.515 23.1573 122.106C22.7356 120.696 23.5361 119.212 24.9451 118.791C26.3542 118.369 27.8383 119.169 28.26 120.579Z" fill="white"/>
<path d="M51.9762 182.145C54.0011 186.79 59.4081 188.914 64.0531 186.889C68.6981 184.864 70.8221 179.457 68.7972 174.812C66.7723 170.167 61.3653 168.043 56.7203 170.068C52.0753 172.093 49.9513 177.5 51.9762 182.145Z" fill="#141B4D"/>
<path d="M62.3363 179.272C62.3363 181.528 60.5071 183.357 58.2507 183.357C55.9942 183.357 54.165 181.528 54.165 179.272C54.165 177.015 55.9942 175.186 58.2507 175.186C60.5071 175.186 62.3363 177.015 62.3363 179.272Z" fill="#50B2DC"/>
<path fill-rule="evenodd" clip-rule="evenodd" d="M331.678 221.786C332.304 223.054 332.875 224.211 333.398 225.228L321.68 231.25C321.038 230.001 320.379 228.674 319.691 227.291C315.773 219.408 310.944 209.694 303.23 202.034C294.679 193.542 282.559 187.632 263.456 192.001L260.518 179.158C284.406 173.694 301.045 181.297 312.513 192.685C321.932 202.038 327.836 214 331.678 221.786Z" fill="#141B4D"/>
<path fill-rule="evenodd" clip-rule="evenodd" d="M321.965 215.116C307.429 223.893 303.828 242.391 312.454 256.677C314.494 260.055 316.573 262.716 319.38 263.674C322.385 264.7 325.216 263.466 327.655 262.142C331.419 260.099 330.805 255.189 327.937 253.236C321.486 248.845 319.786 244.354 320.014 240.852C320.253 237.18 322.654 233.703 326.086 231.558C329.528 229.405 333.428 228.937 336.404 230.42C339.269 231.846 342.239 235.575 342.795 243.929C342.957 246.354 344.917 248.827 347.883 248.809C354.403 248.769 360.726 247.135 364.31 243.036C366.176 240.901 367.179 238.217 367.089 235.13C367.001 232.114 365.88 228.874 363.816 225.456C355.114 211.044 336.377 206.415 321.965 215.116Z" fill="#E14F60"/>
<g clip-path="url(#clip0_1110_7638)">
<path d="M364.744 225.802C361.248 219.986 355.957 215.464 349.668 212.915C343.379 210.367 336.433 209.931 329.874 211.672C329.654 211.739 329.417 211.728 329.204 211.641C328.99 211.553 328.814 211.395 328.704 211.192C326.943 208.024 325.024 204.947 322.954 201.972C319.786 197.401 316.098 193.213 311.964 189.492C308.474 194.362 305.284 199.632 301.054 203.772C303.762 206.359 306.201 209.214 308.334 212.292C310.315 215.133 312.131 218.084 313.774 221.132C313.872 221.307 313.914 221.508 313.897 221.708C313.879 221.907 313.801 222.097 313.674 222.252C305.824 232.202 305.054 246.392 312.054 257.892C312.697 258.982 313.401 260.033 314.164 261.042C314.258 261.152 314.375 261.24 314.506 261.301C314.637 261.361 314.78 261.392 314.924 261.392C315.069 261.392 315.211 261.361 315.343 261.301C315.474 261.24 315.59 261.152 315.684 261.042L323.994 250.042C324.144 249.862 324.226 249.636 324.226 249.402C324.226 249.168 324.144 248.942 323.994 248.762C322.265 246.813 321.346 244.277 321.424 241.672C321.629 239.924 322.239 238.248 323.206 236.778C324.173 235.307 325.47 234.083 326.994 233.202C330.204 231.202 333.714 230.832 336.274 232.122C338.194 233.122 340.374 235.342 341.474 240.272C341.52 240.516 341.655 240.734 341.853 240.883C342.051 241.033 342.297 241.104 342.544 241.082L367.184 239.192C367.396 239.171 367.595 239.083 367.753 238.941C367.912 238.799 368.021 238.61 368.064 238.402C368.191 237.579 368.241 236.745 368.214 235.912C367.949 232.299 366.754 228.816 364.744 225.802Z" fill="white"/>
<path d="M316.054 193.332C314.974 192.242 313.164 190.172 312.714 190.122L307.164 210.672C307.554 211.192 308.294 212.292 308.664 212.822C309.324 213.752 309.944 214.692 310.554 215.622L311.554 211.672L325.924 206.352C325.204 205.202 324.444 204.062 323.654 202.932L312.734 206.932L316.054 193.332Z" fill="#C0EDFF"/>
<path d="M307.164 242.672L321.274 241.802C321.399 240.344 321.85 238.933 322.594 237.672L307.274 238.672C307.153 240.002 307.116 241.338 307.164 242.672Z" fill="#C0EDFF"/>
<path fill-rule="evenodd" clip-rule="evenodd" d="M334.774 210.802C336.774 210.302 338.774 210.302 339.434 210.672L361.274 239.302C361.774 239.802 355.274 240.302 355.274 239.802L334.774 210.802Z" fill="#C0EDFF"/>
</g>
<path fill-rule="evenodd" clip-rule="evenodd" d="M243.926 371.809C246.918 371.887 249.272 374.247 250.106 377.17C250.86 379.814 249.619 382.497 247.44 384.13C245.208 385.803 242.249 386.351 239.944 384.784C237.346 383.018 235.758 379.855 236.689 376.821C237.65 373.689 240.7 371.725 243.926 371.809Z" fill="#FFCF54"/>
<path fill-rule="evenodd" clip-rule="evenodd" d="M237.974 444.28C233.923 444.07 230.355 447.077 229.293 450.916C228.361 454.285 230.941 457.233 233.824 459.281C236.693 461.321 240.46 462.948 243.303 460.873C246.086 458.842 245.272 454.932 244.23 451.688C243.144 448.307 241.584 444.467 237.974 444.28Z" fill="#B1AFA9" fill-opacity="0.3"/>
<path fill-rule="evenodd" clip-rule="evenodd" d="M237.867 435.486C240.082 434.41 242.434 436.577 244.549 437.93C246.441 439.14 248.344 440.426 248.986 442.6C249.721 445.091 249.83 448.062 248.082 449.899C246.388 451.681 243.596 451.171 241.152 450.837C239.012 450.543 236.709 450.049 235.536 448.181C234.416 446.398 235.357 444.262 235.734 442.208C236.183 439.767 235.679 436.548 237.867 435.486Z" fill="#B1AFA9" fill-opacity="0.5"/>
<path fill-rule="evenodd" clip-rule="evenodd" d="M233.325 430.4C231.962 431.347 232.46 433.444 232.557 435.133C232.645 436.644 232.772 438.186 233.838 439.281C235.059 440.535 236.769 441.578 238.425 441.158C240.031 440.75 240.652 438.941 241.262 437.395C241.796 436.04 242.265 434.524 241.554 433.218C240.876 431.972 239.31 431.82 237.979 431.365C236.396 430.823 234.671 429.465 233.325 430.4Z" fill="#B1AFA9"/>
<path d="M223.465 363.012C218.608 366.716 214.521 371.865 212.729 377.747C209.86 387.162 212.05 392.83 216.71 400.098C219.413 404.315 220.343 414.186 221.243 413.312C221.745 412.824 223.922 407.063 224.093 407.742C224.393 408.929 224.191 414.278 224.454 415.493C225.056 418.278 225.786 421.952 227.662 424.408C229.696 428.452 229.596 411.211 229.864 410.618C230.273 409.714 230.896 416.18 231.049 416.874C231.653 419.597 232.017 422.352 232.619 425.073C232.976 426.689 233.967 435.575 235.636 436.602C236.607 437.199 235.846 432.428 236.975 426.628C237.844 422.161 238.364 421.238 239.46 418.323C239.663 417.784 240.633 414.615 240.927 415.349C241.881 417.726 241.976 420.317 242.552 422.793C242.859 424.112 243.092 426.048 243.487 423.102C243.689 414.212 246.802 405.794 247.179 396.963C247.431 391.085 246.968 385.177 246.248 379.35C245.406 372.533 243.127 360.849 234.784 359.729C233.004 359.491 231.508 359.118 229.791 359.76C227.499 360.618 225.413 361.527 223.465 363.012Z" fill="#E14F60"/>
<path fill-rule="evenodd" clip-rule="evenodd" d="M251.439 365.757C252.542 362.298 253.133 358.517 253.1 354.561C252.959 338.215 242.196 325.055 229.059 325.168C215.922 325.281 205.386 338.623 205.526 354.969C205.56 358.925 206.216 362.695 207.378 366.135L251.439 365.757Z" fill="#141B4D"/>
<path fill-rule="evenodd" clip-rule="evenodd" d="M284.955 310.473C287.248 307.082 284.53 303.006 280.436 303.006H178.828C174.734 303.006 172.016 307.082 174.309 310.474C183.884 324.636 205.054 338.617 229.632 338.617C254.21 338.617 275.38 324.636 284.955 310.473Z" fill="#40DA6B"/>
<path fill-rule="evenodd" clip-rule="evenodd" d="M210.531 382.062C213.661 381.914 216.418 384.043 217.239 386.762C217.959 389.149 215.965 391.237 213.737 392.688C211.52 394.133 208.609 395.285 206.412 393.816C204.262 392.377 204.891 389.608 205.696 387.309C206.535 384.915 207.741 382.194 210.531 382.062Z" fill="#FFCF54" fill-opacity="0.8"/>
<path fill-rule="evenodd" clip-rule="evenodd" d="M246.094 397.524C242.993 397.069 240.034 399.051 238.943 401.839C237.985 404.286 239.759 406.676 241.83 408.418C243.892 410.152 246.673 411.644 249.008 410.304C251.294 408.993 250.947 406.014 250.378 403.515C249.784 400.911 248.858 397.929 246.094 397.524Z" fill="#FFCF54" fill-opacity="0.8"/>
<path d="M204.945 357.902C204.945 357.498 205.273 357.17 205.677 357.17H253.253C253.657 357.17 253.985 357.498 253.985 357.902V366.685C253.985 367.089 253.657 367.417 253.253 367.417H205.677C205.273 367.417 204.945 367.089 204.945 366.685V357.902Z" fill="#50B2DC"/>
<path fill-rule="evenodd" clip-rule="evenodd" d="M230.373 371.082C232.832 370.954 234.156 373.864 235.577 375.933C236.849 377.784 238.103 379.709 237.848 381.962C237.557 384.543 236.501 387.322 234.176 388.335C231.922 389.317 229.548 387.761 227.428 386.502C225.57 385.399 223.64 384.048 223.286 381.87C222.949 379.792 224.647 378.191 225.793 376.445C227.156 374.371 227.944 371.209 230.373 371.082Z" fill="#FFCF54"/>
<path fill-rule="evenodd" clip-rule="evenodd" d="M233.736 375.473C237.044 375.587 239.645 379.065 240.567 383.373C241.4 387.269 240.029 391.224 237.621 393.63C235.154 396.095 231.883 396.903 229.335 394.594C226.463 391.991 224.709 387.329 225.738 382.858C226.8 378.243 230.171 375.349 233.736 375.473Z" fill="#FFCF54" fill-opacity="0.3"/>
<path fill-rule="evenodd" clip-rule="evenodd" d="M218.196 42.1833L202.308 16.7146L207.276 13.6154L223.164 39.0841L218.196 42.1833Z" fill="#141B4D"/>
<path d="M213.046 15.1992C211.906 20.1218 207.15 23.2249 202.425 22.1302C197.699 21.0354 194.792 16.1575 195.933 11.2349C197.073 6.3123 201.828 3.2092 206.554 4.30391C211.28 5.39863 214.186 10.2766 213.046 15.1992Z" fill="#50B2DC"/>
<path fill-rule="evenodd" clip-rule="evenodd" d="M238.766 40.4319L250.019 12.5862L255.448 14.7801L244.195 42.6258L238.766 40.4319Z" fill="#141B4D"/>
<path d="M263.3 4.43405C265.904 8.76383 264.506 14.3855 260.176 16.9903C255.847 19.5951 250.225 18.1968 247.62 13.867C245.015 9.53721 246.414 3.91559 250.743 1.31076C255.073 -1.29407 260.695 0.104272 263.3 4.43405Z" fill="#50B2DC"/>
<path fill-rule="evenodd" clip-rule="evenodd" d="M301.578 95.6083C307.359 115.948 292.138 135.478 271.133 137.916L174.543 149.129C149.742 152.008 130.786 130.194 143.869 108.928C167.06 71.235 206.216 35.5526 238.82 31.7676C272.966 27.8036 291.406 59.814 301.578 95.6083Z" fill="#50B2DC"/>
<path fill-rule="evenodd" clip-rule="evenodd" d="M291.589 100.888C294.978 114.571 284.934 127.547 270.931 129.172L171.974 140.66C155.441 142.579 142.519 128.029 150.408 113.372C169.243 78.3761 205.983 42.885 236.152 39.3828C267.516 35.7417 283.358 67.6521 291.589 100.888Z" fill="#141B4D"/>
<path fill-rule="evenodd" clip-rule="evenodd" d="M225.346 109.753L225.346 109.755C221.936 110.168 218.212 119.038 216.956 125.169C210.09 134.175 184.479 133.129 158.501 113.824C137.719 98.3808 130.775 57.2324 129.901 38.5886C130.434 39.5001 134.275 43.4763 145.373 52.0885C153.34 58.2703 155.588 57.7416 161.772 56.2874C166.357 55.2092 173.105 53.6223 185.951 53.8847C209.954 54.375 218.817 63.4962 220.288 68.0709C220.623 63.2785 227.051 52.3026 250.246 46.0952C262.658 42.7737 269.59 42.7037 274.3 42.6562C280.652 42.5921 282.962 42.5687 289.222 34.6638C297.944 23.6511 300.724 18.8729 301.025 17.8604C304.626 36.1738 307.706 77.7903 291.212 97.7486C270.594 122.697 245.973 129.827 237.156 122.72C234.477 117.076 228.757 109.367 225.346 109.753ZM240.327 90.3625C242.399 79.4633 253.261 60.0868 280.133 69.6803C277.681 79.6869 266.288 97.8326 240.327 90.3625ZM206.152 94.5056C201.537 84.4163 186.364 68.193 162.559 83.9242C167.329 93.0563 182.724 107.958 206.152 94.5056Z" fill="#FF9737"/>
<path fill-rule="evenodd" clip-rule="evenodd" d="M161.462 264.828C158.419 281.523 171.962 295.956 188.932 295.956H270.003C286.973 295.956 300.516 281.523 297.474 264.828C287.179 208.34 260.615 159.817 229.468 159.817C198.32 159.817 171.756 208.34 161.462 264.828Z" fill="#50B2DC"/>
<path fill-rule="evenodd" clip-rule="evenodd" d="M263.184 179.574C262.985 180.031 262.791 180.494 262.597 180.958C261.422 183.77 260.238 186.605 257.705 188.038C254.406 189.906 249.847 189.727 245.474 189.556C239.589 189.325 234.04 189.107 232.353 193.908C230.737 198.509 235.402 201.224 240.392 204.127C243.993 206.223 247.764 208.417 249.465 211.49C250.933 214.142 250.674 217.591 250.423 220.933C250.104 225.178 249.798 229.252 253.057 231.312C256.522 233.502 260.338 231.406 264.308 229.225C266.959 227.769 269.68 226.274 272.41 225.993C275.076 225.719 277.986 226.64 280.818 227.537C283.551 228.402 286.211 229.245 288.511 228.968C281.912 209.131 273.239 191.869 263.184 179.574Z" fill="#40DA6B"/>
<path fill-rule="evenodd" clip-rule="evenodd" d="M214.04 268.59C215.455 264.674 223.043 262.285 221.055 258.617C218.954 254.742 212.294 259.271 208.153 257.73C205.356 256.689 204.907 252.272 202.016 251.531C198.888 250.73 195.284 251.699 192.856 253.811C190.443 255.91 189.298 259.306 189.407 262.499C189.503 265.329 192.603 267.058 193.4 269.778C194.359 273.049 191.69 277.667 194.445 279.692C197.123 281.66 200.601 277.698 203.921 277.511C207.322 277.319 211.287 280.846 213.836 278.599C216.405 276.334 212.878 271.807 214.04 268.59Z" fill="#FFCF54"/>
<defs>
<clipPath id="clip0_1110_7638">
<rect width="67.1" height="71.92" fill="white" transform="translate(301.054 189.492)"/>
</clipPath>
</defs>
</svg>
