<svg width="380" height="463" viewBox="0 0 380 463" fill="none" xmlns="http://www.w3.org/2000/svg">
<path fill-rule="evenodd" clip-rule="evenodd" d="M328.548 246.918C329.174 248.186 329.745 249.343 330.268 250.36L318.55 256.383C317.908 255.133 317.249 253.807 316.561 252.424C312.643 244.541 307.815 234.826 300.1 227.166C291.549 218.675 279.429 212.764 260.326 217.133L257.388 204.29C281.276 198.827 297.915 206.429 309.383 217.818C318.802 227.17 324.706 239.132 328.548 246.918Z" fill="#141B4D"/>
<path fill-rule="evenodd" clip-rule="evenodd" d="M318.835 240.248C304.299 249.024 300.699 267.522 309.324 281.808C311.364 285.187 313.443 287.847 316.25 288.806C319.255 289.831 322.086 288.598 324.525 287.274C328.289 285.23 327.675 280.32 324.807 278.367C318.356 273.976 316.656 269.486 316.884 265.983C317.123 262.311 319.524 258.835 322.956 256.689C326.399 254.536 330.298 254.069 333.275 255.551C336.139 256.977 339.109 260.706 339.665 269.06C339.827 271.486 341.787 273.958 344.753 273.94C351.273 273.901 357.596 272.267 361.18 268.167C363.047 266.033 364.049 263.348 363.959 260.261C363.871 257.246 362.75 254.005 360.686 250.587C351.984 236.175 333.247 231.546 318.835 240.248Z" fill="#40DA6B"/>
<path fill-rule="evenodd" clip-rule="evenodd" d="M122.113 246.916C121.488 248.184 120.916 249.341 120.394 250.358L132.111 256.381C132.754 255.131 133.413 253.805 134.1 252.422C138.019 244.539 142.847 234.825 150.562 227.164C159.113 218.673 171.233 212.762 190.336 217.131L193.274 204.288C169.386 198.825 152.747 206.427 141.278 217.816C131.86 227.168 125.956 239.13 122.113 246.916Z" fill="#141B4D"/>
<path fill-rule="evenodd" clip-rule="evenodd" d="M89.9758 250.585C98.6776 236.173 117.415 231.544 131.827 240.246C146.363 249.022 149.963 267.52 141.338 281.806C139.298 285.185 137.219 287.845 134.412 288.804C131.406 289.829 128.576 288.595 126.137 287.271C122.373 285.228 122.987 280.318 125.855 278.365C132.306 273.974 134.006 269.484 133.778 265.981C133.539 262.309 131.138 258.833 127.706 256.687C124.263 254.534 120.364 254.067 117.387 255.549C114.523 256.975 111.553 260.704 110.996 269.058C110.835 271.484 108.875 273.956 105.909 273.938C99.3884 273.898 93.0654 272.265 89.4817 268.165C87.6153 266.031 86.6127 263.346 86.7029 260.259C86.7909 257.244 87.912 254.003 89.9758 250.585Z" fill="#40DA6B"/>
<path d="M81.5458 190.152C80.2532 187.865 81.0598 184.962 83.3474 183.67C85.635 182.377 88.5373 183.184 89.8299 185.471L135.558 266.401C136.851 268.689 136.044 271.591 133.757 272.884C131.469 274.176 128.567 273.37 127.274 271.082L81.5458 190.152Z" fill="#141B4D"/>
<path d="M127.232 147.523C142.445 174.446 132.952 208.604 106.029 223.817C79.1053 239.03 44.9473 229.537 29.7345 202.613C14.5218 175.69 24.0151 141.532 50.9384 126.319C77.8617 111.106 112.02 120.6 127.232 147.523Z" fill="#E14F60"/>
<path d="M106.838 159.046C115.687 174.707 110.165 194.577 94.5035 203.426C78.8422 212.276 58.9725 206.753 50.1233 191.092C41.2741 175.431 46.7963 155.561 62.4576 146.712C78.1189 137.863 97.9886 143.385 106.838 159.046Z" fill="white"/>
<path d="M53.0907 218.086L59.1892 209.806L62.4812 211.287L60.877 221.023L59.5446 220.759L59.4556 218.085L55.6349 216.994L54.4048 218.821L53.0907 218.086ZM59.1401 211.792L56.2902 216.016L59.4276 217.231L59.2515 211.834L59.1401 211.792Z" fill="#141B4D"/>
<path d="M67.9256 213.049C69.3553 212.756 70.7756 212.686 72.1864 212.84C73.5972 212.994 74.6566 213.349 75.3646 213.906C75.4841 214.458 75.5174 214.976 75.4647 215.459C75.3409 216.594 74.7684 217.495 73.7472 218.162C72.727 218.819 71.4587 219.235 69.9422 219.409L69.2253 222.685L67.7293 222.672L67.9256 213.049ZM72.5617 215.577C72.6446 214.817 72.3957 214.216 71.815 213.773C71.6375 213.754 71.4166 213.765 71.1526 213.806L70.1556 218.414C70.8356 218.129 71.3888 217.725 71.8152 217.202C72.2515 216.681 72.5003 216.139 72.5617 215.577Z" fill="#141B4D"/>
<path d="M79.0166 213.688C80.328 213.048 81.686 212.626 83.0907 212.424C84.4953 212.221 85.6098 212.301 86.4342 212.663C86.6876 213.168 86.849 213.661 86.9184 214.142C87.0814 215.272 86.7517 216.287 85.9291 217.188C85.105 218.079 83.9804 218.798 82.5552 219.345L82.6779 222.696L81.2257 223.056L79.0166 213.688ZM84.1364 214.98C84.0273 214.224 83.6363 213.704 82.9636 213.42C82.7868 213.445 82.5757 213.511 82.3302 213.616L82.5138 218.328C83.1012 217.882 83.5363 217.353 83.8189 216.741C84.1114 216.127 84.2172 215.54 84.1364 214.98Z" fill="#141B4D"/>
<path d="M94.9628 215.506C94.8226 215.632 94.7024 215.716 94.6023 215.76L95.7266 219.361L94.4201 220.09L89.8262 211.633C90.2416 211.269 90.8177 210.851 91.5545 210.38C92.3004 209.905 93.0376 209.51 93.7659 209.194C94.9313 208.688 95.9593 208.502 96.85 208.635C97.2272 209.055 97.5046 209.47 97.6824 209.88C98.18 211.027 97.9307 212.26 96.9344 213.58L101.119 216.941L100.394 217.888L94.9628 215.506ZM95.2065 211.392C94.9261 210.746 94.424 210.374 93.7003 210.277C93.4818 210.372 93.2558 210.524 93.0221 210.733L94.3187 214.844C94.8245 214.289 95.1522 213.698 95.3019 213.071C95.4477 212.434 95.4159 211.875 95.2065 211.392Z" fill="#141B4D"/>
<path d="M110.049 206.88C110.424 207.355 110.698 207.783 110.873 208.164C111.041 208.537 111.119 208.924 111.107 209.325C111.074 210.084 110.497 210.907 109.375 211.793C108.261 212.672 107.197 213.101 106.182 213.081C105.533 212.531 104.956 211.937 104.452 211.298C103.431 210.005 102.759 208.658 102.437 207.256C102.122 205.848 102.118 204.675 102.427 203.736C103.633 203.39 104.942 203.495 106.354 204.05C107.759 204.596 108.991 205.54 110.049 206.88ZM108.22 207.47C107.273 206.27 106.262 205.399 105.188 204.856C104.98 206.146 105.022 207.415 105.313 208.665C105.612 209.908 106.109 210.97 106.804 211.85C107.111 211.696 107.448 211.474 107.815 211.185C108.531 210.619 109.076 210.044 109.448 209.459C109.109 208.74 108.699 208.078 108.22 207.47Z" fill="#141B4D"/>
<path d="M109.77 197.104L116.422 200.717L116.504 200.61L111.908 194.335L113.009 193.493L118.588 201.881L117.946 203.078L108.004 200.048L109.77 197.104Z" fill="#141B4D"/>
<path d="M123.398 194.644L115.4 188.181L117.026 184.958L126.681 186.997L126.358 188.316L123.682 188.285L122.421 192.053L124.191 193.364L123.398 194.644ZM117.382 188.319L121.473 191.355L122.828 188.275L117.429 188.209L117.382 188.319Z" fill="#141B4D"/>
<path d="M129.285 174.977L128.496 180.445L118.706 179.5L119.077 175.969L127.602 178.497L127.783 174.663L129.285 174.977Z" fill="#141B4D"/>
<path d="M33.4167 171.209C32.0514 170.902 30.9559 169.893 30.13 168.182L32.4994 165.922C32.9848 167.292 33.6487 168.072 34.4912 168.262C34.8494 168.342 35.2543 168.306 35.7057 168.153C36.1571 168 36.6036 167.846 37.0454 167.691C37.4893 167.527 37.8807 167.482 38.2196 167.559C39.6236 167.874 40.4905 169.086 40.8202 171.195L39.7194 171.68C39.5646 171.146 39.3868 170.761 39.1861 170.522C38.9854 170.284 38.7398 170.132 38.4493 170.067C38.1588 170.001 37.8083 170.045 37.3978 170.197C36.9798 170.337 36.5902 170.508 36.2291 170.712C35.8702 170.906 35.4322 171.067 34.9152 171.195C34.4004 171.313 33.9009 171.318 33.4167 171.209Z" fill="#141B4D"/>
<path d="M45.4872 157.688L42.9519 162.929L33.902 159.078L36.7106 153.14L37.5779 153.635L36.4766 156.6L39.0425 158.35L40.4621 155.514L41.6884 156.059L39.9288 158.938L42.6999 160.809L44.1498 156.935L45.4872 157.688Z" fill="#141B4D"/>
<path d="M47.2543 153.966L41.9752 145.141L44.6131 142.677L52.9728 147.921L52.2143 149.047L49.7131 148.096L47.2299 151.197L48.4395 153.038L47.2543 153.966ZM43.788 145.954L46.5813 150.215L48.9149 147.791L43.8699 145.868L43.788 145.954Z" fill="#141B4D"/>
<path d="M61.4635 142.181L56.8099 145.159L51.1262 137.132L54.0404 135.105L57.6998 143.209L60.7196 140.839L61.4635 142.181Z" fill="#141B4D"/>
<path d="M85.5547 133.837C85.5747 134.442 85.5418 134.949 85.4561 135.359C85.37 135.759 85.2031 136.117 84.9553 136.433C84.4784 137.025 83.5258 137.345 82.0974 137.392C80.679 137.439 79.5673 137.153 78.7624 136.534C78.5662 135.706 78.4547 134.886 78.4279 134.072C78.3735 132.426 78.6323 130.943 79.2043 129.623C79.7863 128.303 80.4799 127.356 81.2852 126.784C82.4614 127.221 83.4531 128.082 84.2601 129.366C85.0668 130.641 85.4984 132.131 85.5547 133.837ZM83.7323 133.227C83.6818 131.699 83.3856 130.398 82.8437 129.324C81.9107 130.238 81.1906 131.285 80.6834 132.464C80.1861 133.642 79.956 134.791 79.993 135.912C80.3326 135.971 80.7354 135.992 81.2016 135.977C82.1142 135.946 82.894 135.806 83.5412 135.557C83.6941 134.777 83.7578 134 83.7323 133.227Z" fill="#141B4D"/>
<path d="M96.3504 136.048L93.5105 135.123L92.1209 138.877L90.5111 138.567L92.1172 128.864L98.55 130.192L98.2741 131.151L95.1328 130.781L93.8907 134.111L96.5903 134.728L96.3504 136.048Z" fill="#141B4D"/>
<path d="M91.7739 188.945C91.9514 189.146 92.8538 189.399 93.0927 189.488C93.6029 189.68 93.38 189.874 93.8935 189.839C95.1608 189.894 95.7904 189.764 98.0148 189.967C98.5542 190.016 99.0954 190.785 96.8228 191.881C94.3478 192.636 93.2627 190.76 92.4716 189.694C92.2834 189.441 91.3339 189.189 91.2752 188.884C91.2265 188.631 91.6561 188.812 91.7739 188.945Z" fill="#141B4D"/>
<path d="M108.168 175.71C109.049 177.511 100.455 183.524 88.9732 189.14C77.491 194.756 67.4687 197.849 66.5877 196.047C65.7066 194.246 74.3006 188.233 85.7827 182.617C97.2649 177.001 107.287 173.909 108.168 175.71Z" fill="#141B4D"/>
<path d="M110.334 160.74C110.524 159.036 109.967 156.874 110.363 155.276C111.75 153.493 116.365 150.259 115.2 147.998C114.522 146.681 109.664 149.946 108.855 150.713C108.177 151.355 107.231 152.553 106.105 152.039C104.198 151.168 100.315 147.586 97.6481 151.114C96.6509 152.558 100.732 153.614 101.72 154.498C105.533 157.907 104.025 162.918 101.325 166.66C100.148 168.291 97.2421 169.534 95.3955 170.207C92.3997 171.298 89.1906 172.028 86.1428 172.997C82.748 174.076 80.5323 171.804 78.2647 169.685C72.9568 164.725 65.072 160.547 62.1521 168.13C59.7378 175.908 69.524 186.29 75.796 188.476C85.1208 191.726 88.1268 188.121 96.2847 183.92C105.11 179.375 109.264 170.311 110.334 160.74Z" fill="#50B2DC"/>
<path fill-rule="evenodd" clip-rule="evenodd" d="M62.8438 168.37C61.7595 171.905 63.4175 176.178 66.2985 179.956C69.1701 183.722 73.0762 186.753 76.0367 187.785C80.5744 189.367 83.485 189.257 86.2376 188.301C87.642 187.813 89.0272 187.097 90.5964 186.222C91.0158 185.988 91.4488 185.743 91.8979 185.488C93.1148 184.798 94.4493 184.042 95.9494 183.269C104.476 178.878 108.552 170.093 109.606 160.659C109.682 159.983 109.627 159.22 109.566 158.371C109.558 158.255 109.549 158.138 109.541 158.019C109.476 157.078 109.423 156.026 109.653 155.1L109.69 154.949L109.785 154.827C110.171 154.332 110.762 153.756 111.359 153.178C111.396 153.143 111.433 153.107 111.47 153.071C112.052 152.509 112.659 151.923 113.194 151.327C113.769 150.688 114.219 150.083 114.463 149.539C114.679 149.055 114.699 148.701 114.589 148.421C114.516 148.418 114.391 148.427 114.204 148.471C113.734 148.582 113.105 148.855 112.421 149.22C111.051 149.951 109.697 150.923 109.358 151.244C109.295 151.303 109.221 151.378 109.136 151.464C108.855 151.746 108.464 152.138 108.061 152.414C107.494 152.8 106.695 153.113 105.801 152.705C105.392 152.518 104.9 152.219 104.404 151.917C104.262 151.83 104.119 151.743 103.978 151.659C103.311 151.26 102.613 150.871 101.91 150.615C101.207 150.358 100.554 150.254 99.9633 150.367C99.398 150.474 98.811 150.795 98.2433 151.54C98.2355 151.552 98.2306 151.561 98.2275 151.567C98.2343 151.583 98.2513 151.615 98.2916 151.665C98.4517 151.861 98.7866 152.099 99.2894 152.373C99.6442 152.566 100.024 152.747 100.408 152.93C100.554 153 100.7 153.07 100.846 153.141C101.331 153.376 101.871 153.65 102.208 153.952C104.314 155.835 104.953 158.185 104.692 160.535C104.436 162.85 103.312 165.157 101.918 167.088C101.231 168.04 100.091 168.823 98.96 169.436C97.811 170.059 96.5854 170.552 95.6457 170.895C94.1207 171.45 92.5474 171.911 90.9874 172.352C90.6821 172.438 90.3776 172.524 90.074 172.609C88.8188 172.961 87.5795 173.308 86.3643 173.694C84.4446 174.305 82.834 173.959 81.4265 173.181C80.1891 172.496 79.0866 171.461 78.0659 170.502C77.9647 170.407 77.8643 170.313 77.7647 170.22C75.1432 167.77 71.9579 165.588 69.1426 164.915C67.7491 164.583 66.5086 164.634 65.474 165.135C64.4529 165.629 63.5242 166.615 62.8438 168.37ZM98.2227 151.58C98.2226 151.58 98.2228 151.579 98.2237 151.576C98.2233 151.579 98.2228 151.58 98.2227 151.58ZM69.4828 163.492C72.6668 164.252 76.0779 166.64 78.7642 169.15C78.8594 169.239 78.9537 169.328 79.0474 169.415C80.0988 170.401 81.067 171.309 82.1351 171.9C83.2512 172.517 84.4458 172.768 85.9208 172.299C87.1625 171.905 88.4323 171.549 89.6896 171.196C89.9904 171.112 90.2906 171.028 90.5895 170.943C92.1449 170.504 93.6741 170.055 95.1449 169.519C96.0517 169.189 97.2024 168.724 98.2622 168.149C99.3399 167.565 100.241 166.91 100.731 166.231C102.038 164.422 103.018 162.352 103.237 160.374C103.453 158.43 102.939 156.57 101.232 155.043C101.075 154.903 100.734 154.714 100.207 154.457C100.082 154.397 99.9488 154.333 99.8108 154.268C99.4161 154.079 98.9817 153.872 98.5894 153.659C98.0731 153.378 97.5129 153.026 97.1574 152.59C96.9718 152.363 96.8062 152.07 96.7683 151.716C96.7287 151.346 96.8375 150.999 97.0456 150.698L97.0545 150.685L97.0641 150.672C97.8261 149.664 98.7205 149.113 99.6891 148.929C100.636 148.748 101.573 148.933 102.412 149.239C103.252 149.546 104.049 149.996 104.73 150.403C104.906 150.508 105.071 150.608 105.226 150.703C105.702 150.992 106.086 151.226 106.409 151.373C106.641 151.479 106.877 151.449 107.235 151.205C107.514 151.014 107.75 150.778 108.007 150.52C108.116 150.411 108.229 150.297 108.351 150.181C108.822 149.736 110.301 148.692 111.732 147.928C112.448 147.546 113.211 147.201 113.868 147.046C114.193 146.97 114.553 146.924 114.894 146.984C115.26 147.049 115.637 147.248 115.851 147.663C116.282 148.5 116.14 149.375 115.799 150.137C115.461 150.892 114.889 151.631 114.283 152.306C113.711 152.941 113.07 153.561 112.496 154.116C112.456 154.154 112.416 154.193 112.377 154.231C111.818 154.771 111.352 155.228 111.04 155.603C110.911 156.246 110.94 157.023 111.002 157.918C111.009 158.03 111.018 158.144 111.026 158.26C111.087 159.089 111.153 160.001 111.061 160.822C109.976 170.53 105.743 179.872 96.6196 184.571C95.1477 185.329 93.8521 186.063 92.6423 186.749C92.1874 187.007 91.7447 187.258 91.3093 187.5C89.729 188.382 88.2503 189.151 86.7179 189.684C83.5968 190.768 80.342 190.836 75.5549 189.167C72.2434 188.013 68.1204 184.76 65.1344 180.844C62.1642 176.948 60.1372 172.151 61.4529 167.913L61.4601 167.889L61.4688 167.867C62.2476 165.844 63.3958 164.515 64.8358 163.817C66.2667 163.124 67.8766 163.108 69.4828 163.492Z" fill="#50B2DC"/>
<path d="M69.8537 191.959C70.2218 191.267 72.4953 187.976 72.4494 186.608L75.288 188.282L77.8157 189.255C76.5667 191.728 70.4853 195.217 67.5679 195.781C66.2258 196.041 69.4074 192.798 69.8537 191.959Z" fill="#50B2DC"/>
<path fill-rule="evenodd" clip-rule="evenodd" d="M71.674 185.301L75.6072 187.619L78.8335 188.862L78.468 189.585C78.0909 190.332 77.3906 191.089 76.5749 191.793C75.7462 192.509 74.7436 193.218 73.6986 193.859C71.6287 195.128 69.2911 196.194 67.7057 196.501C67.5771 196.526 67.4076 196.544 67.2287 196.51C67.0324 196.472 66.795 196.361 66.6413 196.113C66.5007 195.886 66.4995 195.654 66.5161 195.512C66.5332 195.366 66.5783 195.234 66.6211 195.131C66.781 194.746 67.1294 194.264 67.4626 193.834C67.7206 193.5 68.012 193.145 68.2803 192.818C68.375 192.702 68.4667 192.59 68.5531 192.484C68.9122 192.043 69.1386 191.746 69.2086 191.615C69.2974 191.448 69.473 191.165 69.6743 190.84C69.7152 190.774 69.7572 190.707 69.7997 190.638C70.0627 190.212 70.3735 189.704 70.6702 189.177C70.9682 188.648 71.2436 188.116 71.44 187.643C71.6472 187.144 71.7245 186.807 71.7187 186.634L71.674 185.301ZM70.9052 191.63C70.7028 191.957 70.5626 192.183 70.4989 192.303C70.3458 192.591 70.007 193.015 69.686 193.409C69.5919 193.525 69.4951 193.643 69.3974 193.762C69.1346 194.083 68.8651 194.411 68.622 194.725C69.8777 194.285 71.4479 193.522 72.9363 192.609C73.9324 191.998 74.8667 191.335 75.6207 190.684C76.061 190.304 76.4226 189.942 76.6976 189.61L74.9688 188.944L72.9599 187.76C72.9079 187.911 72.85 188.06 72.79 188.205C72.5614 188.755 72.254 189.345 71.9434 189.897C71.6314 190.45 71.3077 190.98 71.0424 191.409C70.994 191.487 70.9482 191.561 70.9052 191.63ZM67.9622 195.716C67.9621 195.716 67.9622 195.716 67.9622 195.716V195.716Z" fill="#50B2DC"/>
<path d="M81.1664 189.972C84.0988 192.317 90.1306 194.065 96.7435 191.095C97.9965 190.672 90.7385 189.508 90.6659 187.258C87.4021 188.897 85.336 189.509 81.1664 189.972Z" fill="#50B2DC"/>
<path fill-rule="evenodd" clip-rule="evenodd" d="M91.3593 186.085L90.3309 186.602C87.15 188.199 85.1677 188.789 81.0757 189.244L79.3337 189.438L80.7152 190.543C83.8577 193.055 90.1696 194.842 97.0236 191.776C97.0871 191.753 97.1612 191.72 97.235 191.673C97.3197 191.619 97.4537 191.515 97.5411 191.334C97.7731 190.856 97.4527 190.478 97.351 190.379C97.229 190.26 97.0821 190.178 96.9806 190.126C96.8652 190.066 96.7333 190.009 96.5974 189.954C96.3239 189.844 95.9367 189.708 95.5166 189.56C95.1683 189.437 94.7974 189.306 94.4497 189.176C93.6243 188.866 92.8121 188.519 92.2116 188.132C91.5609 187.713 91.4019 187.405 91.3967 187.244L91.3593 186.085ZM90.2638 188.276C90.5601 188.732 91.0122 189.091 91.4331 189.362C92.1747 189.839 93.1122 190.232 93.9539 190.547C94.3822 190.708 94.7661 190.842 95.1059 190.961C95.1059 190.961 95.106 190.961 95.1061 190.961C90.3412 192.663 86.0343 191.889 83.2417 190.444C85.9894 190.026 87.8553 189.431 90.2638 188.276ZM96.5015 190.4C96.5033 190.399 96.503 190.399 96.5009 190.4L96.5015 190.4Z" fill="#50B2DC"/>
<path fill-rule="evenodd" clip-rule="evenodd" d="M71.2597 172.192C71.4564 172.145 71.6545 172.266 71.702 172.463C71.9256 173.386 71.7849 174.338 71.1643 175.021C70.541 175.706 69.5062 176.04 68.1091 175.881C67.9079 175.858 67.7629 175.677 67.7853 175.477C67.8076 175.276 67.9888 175.132 68.19 175.155C69.4396 175.297 70.2059 174.985 70.6206 174.529C71.0379 174.07 71.172 173.386 70.9894 172.632C70.9419 172.436 71.0629 172.239 71.2597 172.192Z" fill="#141B4D"/>
<path fill-rule="evenodd" clip-rule="evenodd" d="M65.3045 175.218C65.0779 175.588 65.0317 176.036 65.039 176.305C65.0445 176.507 64.885 176.675 64.6828 176.68C64.4806 176.685 64.3122 176.525 64.3067 176.324C64.2974 175.981 64.35 175.374 64.6794 174.836C65.0251 174.271 65.6499 173.829 66.6777 173.817C66.8799 173.814 67.0461 173.976 67.0489 174.178C67.0516 174.38 66.8899 174.545 66.6876 174.548C65.9031 174.557 65.5147 174.875 65.3045 175.218Z" fill="#141B4D"/>
<path fill-rule="evenodd" clip-rule="evenodd" d="M70.6479 169.872C70.4158 170.169 70.3579 170.564 70.3304 170.864C70.312 171.065 70.1336 171.212 69.932 171.192C69.7304 171.173 69.5819 170.994 69.6003 170.793C69.6283 170.489 69.6947 169.9 70.0685 169.421C70.4677 168.91 71.1508 168.602 72.2363 168.727C72.4375 168.75 72.5826 168.932 72.5604 169.132C72.5381 169.333 72.357 169.476 72.1558 169.453C71.2591 169.349 70.8546 169.608 70.6479 169.872Z" fill="#141B4D"/>
<path fill-rule="evenodd" clip-rule="evenodd" d="M69.0671 173.253C69.1405 173.183 69.2564 173.187 69.326 173.26C69.4647 173.406 69.576 173.536 69.677 173.653C70.0046 174.034 70.2247 174.29 70.9222 174.593C71.0151 174.633 71.0577 174.741 71.0175 174.833C70.9773 174.926 70.8695 174.968 70.7767 174.928C69.9974 174.59 69.7223 174.269 69.382 173.873C69.2845 173.759 69.1817 173.639 69.0601 173.511C68.9905 173.438 68.9936 173.322 69.0671 173.253Z" fill="#141B4D"/>
<path fill-rule="evenodd" clip-rule="evenodd" d="M72.8347 170.876C72.7608 170.807 72.7568 170.691 72.8257 170.617C73.1887 170.228 73.6953 169.86 74.21 169.527C74.5465 169.31 74.8954 169.102 75.2148 168.911C75.3825 168.811 75.5421 168.716 75.6874 168.627C75.7735 168.574 75.8862 168.601 75.939 168.687C75.9919 168.773 75.9649 168.886 75.8787 168.939C75.7258 169.033 75.5624 169.13 75.3928 169.231C75.0774 169.419 74.7405 169.62 74.4087 169.835C73.8999 170.164 73.4245 170.512 73.0933 170.867C73.0244 170.941 72.9086 170.945 72.8347 170.876Z" fill="#141B4D"/>
<path fill-rule="evenodd" clip-rule="evenodd" d="M73.0757 171.471C73.0194 171.387 73.0418 171.274 73.1257 171.217C73.5676 170.921 74.1446 170.678 74.7214 170.471C75.0985 170.335 75.4857 170.212 75.84 170.099C76.0261 170.039 76.2031 169.983 76.3648 169.929C76.4607 169.897 76.5643 169.949 76.5962 170.045C76.6281 170.141 76.5762 170.245 76.4803 170.276C76.31 170.333 76.1288 170.391 75.9406 170.451C75.5907 170.562 75.2169 170.681 74.8451 170.815C74.2749 171.02 73.7327 171.251 73.3296 171.521C73.2457 171.577 73.132 171.555 73.0757 171.471Z" fill="#141B4D"/>
<path fill-rule="evenodd" clip-rule="evenodd" d="M67.1505 176.534C67.0905 176.453 66.976 176.436 66.8946 176.496C66.4662 176.811 66.0422 177.272 65.6521 177.745C65.397 178.054 65.1498 178.376 64.9237 178.671C64.8049 178.826 64.6919 178.974 64.5866 179.108C64.5241 179.187 64.5379 179.302 64.6174 179.365C64.6968 179.427 64.8119 179.414 64.8743 179.334C64.9852 179.193 65.1009 179.042 65.2209 178.885C65.4442 178.594 65.6828 178.282 65.9343 177.978C66.32 177.51 66.7208 177.078 67.1117 176.79C67.193 176.73 67.2104 176.616 67.1505 176.534Z" fill="#141B4D"/>
<path fill-rule="evenodd" clip-rule="evenodd" d="M67.7303 176.837C67.6457 176.782 67.5323 176.806 67.4771 176.89C67.1866 177.336 66.951 177.916 66.7515 178.496C66.621 178.874 66.5027 179.263 66.3944 179.619C66.3375 179.806 66.2834 179.983 66.2318 180.146C66.2012 180.242 66.2544 180.345 66.3507 180.376C66.447 180.406 66.5499 180.353 66.5805 180.257C66.6349 180.086 66.6903 179.904 66.7477 179.715C66.8546 179.364 66.9688 178.988 67.0975 178.615C67.2948 178.042 67.5186 177.497 67.7837 177.09C67.8389 177.005 67.815 176.892 67.7303 176.837Z" fill="#141B4D"/>
<path d="M69.3353 172.699C69.4654 172.865 69.4598 173.306 69.2708 173.457C69.0818 173.607 68.5827 173.569 68.4526 173.403C68.3225 173.236 68.5062 172.87 68.6952 172.72C68.8841 172.569 69.2051 172.532 69.3353 172.699Z" fill="#141B4D"/>
<g clip-path="url(#clip0_1111_9195)">
<path d="M361.611 250.935C358.115 245.119 352.824 240.596 346.535 238.048C340.246 235.499 333.3 235.063 326.741 236.805C326.521 236.872 326.284 236.86 326.071 236.773C325.858 236.685 325.681 236.527 325.571 236.325C323.81 233.157 321.891 230.08 319.821 227.105C316.653 222.533 312.965 218.345 308.831 214.625C305.341 219.495 302.151 224.765 297.921 228.905C300.63 231.491 303.069 234.346 305.201 237.425C307.182 240.265 308.998 243.216 310.641 246.265C310.739 246.44 310.782 246.64 310.764 246.84C310.746 247.04 310.668 247.229 310.541 247.385C302.691 257.335 301.921 271.525 308.921 283.025C309.564 284.114 310.269 285.166 311.031 286.175C311.125 286.284 311.242 286.372 311.373 286.433C311.504 286.493 311.647 286.525 311.791 286.525C311.936 286.525 312.079 286.493 312.21 286.433C312.341 286.372 312.458 286.284 312.551 286.175L320.861 275.175C321.011 274.995 321.093 274.768 321.093 274.535C321.093 274.301 321.011 274.074 320.861 273.895C319.132 271.945 318.213 269.409 318.291 266.805C318.496 265.056 319.106 263.38 320.073 261.91C321.04 260.439 322.337 259.215 323.861 258.335C327.071 256.335 330.581 255.965 333.141 257.255C335.061 258.255 337.241 260.475 338.341 265.405C338.388 265.648 338.523 265.866 338.72 266.016C338.918 266.165 339.164 266.236 339.411 266.215L364.051 264.325C364.263 264.304 364.462 264.216 364.621 264.074C364.779 263.931 364.888 263.743 364.931 263.535C365.058 262.711 365.108 261.877 365.081 261.045C364.816 257.432 363.621 253.949 361.611 250.935Z" fill="white"/>
<path d="M312.921 218.465C311.841 217.375 310.031 215.305 309.581 215.255L304.031 235.805C304.421 236.325 305.161 237.425 305.531 237.955C306.191 238.885 306.811 239.825 307.421 240.755L308.421 236.805L322.791 231.485C322.071 230.335 321.311 229.195 320.521 228.065L309.601 232.065L312.921 218.465Z" fill="#C0EDFF"/>
<path d="M304.031 267.805L318.141 266.935C318.267 265.476 318.718 264.065 319.461 262.805L304.141 263.805C304.02 265.134 303.983 266.47 304.031 267.805Z" fill="#C0EDFF"/>
<path fill-rule="evenodd" clip-rule="evenodd" d="M331.641 235.935C333.641 235.435 335.641 235.435 336.301 235.805L358.141 264.435C358.641 264.935 352.141 265.435 352.141 264.935L331.641 235.935Z" fill="#C0EDFF"/>
</g>
<path d="M117.315 305.622C121.968 314.481 132.032 321.495 141.842 325.462C162.136 333.669 179.071 327.05 182.187 346.635C183.052 362.679 127.489 338.437 127.286 339.475C125.446 348.886 148.119 374.916 147.623 384.353C146.816 399.7 146.79 414.286 147.501 430.879C147.932 440.936 147.595 445.469 148.365 454.65C148.365 454.792 146.98 458.777 143.75 449.326C135.67 425.678 127.899 405.556 118.399 382.413C111.437 365.453 106.182 347.813 103.995 329.571C103.051 321.699 107.035 277.443 113.115 296.451C114.226 299.921 115.607 302.369 117.315 305.622Z" fill="#141B4D"/>
<path d="M336.081 305.622C331.428 314.481 321.364 321.495 311.554 325.462C291.26 333.669 274.325 327.05 271.209 346.635C270.344 362.679 325.907 338.437 326.11 339.475C327.95 348.886 305.277 374.916 305.773 384.353C306.58 399.7 306.606 414.286 305.895 430.879C305.464 440.936 305.801 445.469 305.031 454.65C305.031 454.792 306.416 458.777 309.646 449.326C317.726 425.678 325.497 405.556 334.997 382.413C341.959 365.453 347.214 347.813 349.401 329.571C350.345 321.699 346.361 277.443 340.281 296.451C339.17 299.921 337.789 302.369 336.081 305.622Z" fill="#141B4D"/>
<path fill-rule="evenodd" clip-rule="evenodd" d="M281.819 350.245C284.112 346.853 281.394 342.778 277.3 342.778H175.692C171.598 342.778 168.88 346.853 171.173 350.245C180.748 364.407 201.918 378.389 226.496 378.389C251.074 378.389 272.244 364.407 281.819 350.245Z" fill="#E14F60"/>
<path d="M145.541 329.763C149.613 337.518 158.422 343.657 167.008 347.129C184.771 354.313 199.595 348.519 202.322 365.662C203.078 379.704 154.446 358.486 154.268 359.394C152.657 367.632 172.502 390.416 172.068 398.675C171.362 412.108 171.339 424.875 171.962 439.399C172.339 448.201 172.044 452.169 172.717 460.205C172.717 460.33 171.506 463.818 168.679 455.545C161.606 434.846 154.805 417.234 146.489 396.977C140.395 382.132 135.795 366.692 133.882 350.726C133.056 343.835 136.542 305.099 141.864 321.736C142.836 324.774 144.046 326.917 145.541 329.763Z" fill="#FF9737"/>
<path d="M307.375 329.763C303.302 337.518 294.493 343.657 285.907 347.129C268.144 354.313 253.321 348.519 250.593 365.662C249.837 379.704 298.47 358.486 298.647 359.394C300.259 367.632 280.413 390.416 280.847 398.675C281.553 412.108 281.576 424.875 280.954 439.399C280.576 448.201 280.872 452.169 280.198 460.205C280.198 460.33 281.41 463.818 284.237 455.545C291.309 434.846 298.111 417.234 306.426 396.977C312.52 382.132 317.12 366.692 319.034 350.726C319.86 343.835 316.373 305.099 311.051 321.736C310.079 324.774 308.87 326.917 307.375 329.763Z" fill="#FF9737"/>
<path d="M195.958 362.541C195.958 364.562 194.319 366.201 192.298 366.201C190.277 366.201 188.638 364.562 188.638 362.541C188.638 360.52 190.277 358.881 192.298 358.881C194.319 358.881 195.958 360.52 195.958 362.541Z" fill="#141B4D"/>
<path d="M262.559 362.541C262.559 364.562 260.921 366.201 258.9 366.201C256.878 366.201 255.24 364.562 255.24 362.541C255.24 360.52 256.878 358.881 258.9 358.881C260.921 358.881 262.559 360.52 262.559 362.541Z" fill="#141B4D"/>
<path fill-rule="evenodd" clip-rule="evenodd" d="M185.592 84.5469L164.366 63.3209L168.506 59.1804L189.732 80.4064L185.592 84.5469Z" fill="#141B4D"/>
<path fill-rule="evenodd" clip-rule="evenodd" d="M279.831 81.281L303.828 63.2215L307.349 67.9001L283.352 85.9596L279.831 81.281Z" fill="#141B4D"/>
<path fill-rule="evenodd" clip-rule="evenodd" d="M298.417 121.084C304.197 141.424 288.976 160.953 267.972 163.392L171.381 174.605C146.58 177.484 127.624 155.669 140.708 134.404C163.898 96.7104 203.054 61.028 235.659 57.243C269.805 53.2791 288.244 85.2895 298.417 121.084Z" fill="#FF9737"/>
<path fill-rule="evenodd" clip-rule="evenodd" d="M288.427 126.363C291.816 140.047 281.772 153.022 267.769 154.648L168.813 166.136C152.279 168.055 139.358 153.504 147.246 138.847C166.081 103.852 202.821 68.3605 232.99 64.8582C264.354 61.2172 280.196 93.1276 288.427 126.363Z" fill="#141B4D"/>
<path fill-rule="evenodd" clip-rule="evenodd" d="M255.668 106.81L256.703 143.915C256.776 146.524 253.048 147.059 252.384 144.534L245.676 119.021L243.914 125.441C243.677 126.305 242.939 126.938 242.05 127.041L198.675 132.076C198.133 132.139 197.588 131.998 197.144 131.681L192.84 128.599L191.023 153.168C190.837 155.688 187.241 155.95 186.69 153.484L178.001 114.571L174.348 133.359C174.165 134.298 173.396 135.011 172.446 135.121L149.568 137.777L149.23 134.869L171.576 132.275L175.796 110.572C176.251 108.236 179.576 108.19 180.095 110.513L188.468 148.013L190.016 127.084C190.142 125.374 192.09 124.462 193.484 125.46L198.618 129.136L241.221 124.19L243.574 115.619C244.168 113.454 247.244 113.471 247.815 115.642L253.599 137.641L252.597 101.721C252.526 99.1799 256.111 98.5703 256.884 100.992L263.466 121.608L286.868 118.891L287.206 121.799L263.205 124.585C262.162 124.706 261.18 124.072 260.86 123.072L255.668 106.81Z" fill="#40DA6B"/>
<path d="M174.487 59.4213C174.487 64.4742 170.554 68.5705 165.704 68.5705C160.853 68.5705 156.92 64.4742 156.92 59.4213C156.92 54.3684 160.853 50.2722 165.704 50.2722C170.554 50.2722 174.487 54.3684 174.487 59.4213Z" fill="#FF9737"/>
<path d="M319.409 63.0811C319.409 68.134 315.313 72.2302 310.26 72.2302C305.207 72.2302 301.111 68.134 301.111 63.0811C301.111 58.0282 305.207 53.9319 310.26 53.9319C315.313 53.9319 319.409 58.0282 319.409 63.0811Z" fill="#FF9737"/>
<path d="M218.463 6.47988C218.618 5.89037 219.383 5.73716 219.753 6.22167L260.534 59.6597C260.768 59.9661 260.721 60.4043 260.429 60.6552C243.783 74.9325 225.5 77.7522 201.317 75.1154C200.874 75.0671 200.574 74.635 200.687 74.2037L218.463 6.47988Z" fill="#50B2DC"/>
<path fill-rule="evenodd" clip-rule="evenodd" d="M321.999 112.333C313.174 111.042 307.21 112.68 304.096 116.719C301.026 120.702 301.325 126.266 303.169 131.411C305.042 136.635 308.663 141.936 313.081 145.889C313.483 146.248 313.893 146.598 314.311 146.938L296.69 145.203L283.674 149.35C281.761 149.847 280.624 150.766 282.783 151.059L337.022 160.403C349.256 161.278 353.551 148.441 351.521 138.397C349.22 127.015 339.727 114.925 321.999 112.333Z" fill="#50B2DC"/>
<path fill-rule="evenodd" clip-rule="evenodd" d="M329.98 141.191C328.92 142.343 327.917 142.814 327.044 142.927C326.153 143.041 325.211 142.806 324.249 142.215C322.278 141.004 320.485 138.438 319.603 135.579C318.712 132.691 318.887 129.99 320.16 128.348C321.348 126.816 323.954 125.652 329.303 126.87C332.402 127.575 336.027 130.747 338.476 134.853C340.938 138.978 341.833 143.391 340.386 146.4L341.705 147.034L340.386 146.4C339.16 148.951 336.416 150.83 331.706 151.05C327.127 151.263 320.209 150.643 313.856 149.592C310.69 149.068 307.699 148.444 305.243 147.775C302.734 147.092 300.948 146.405 300.065 145.816C299.393 145.368 298.484 145.55 298.035 146.222C297.587 146.895 297.769 147.804 298.441 148.252C299.754 149.128 301.95 149.913 304.474 150.6C307.051 151.302 310.144 151.946 313.378 152.481C319.825 153.547 326.972 154.202 331.842 153.974C337.309 153.719 341.208 151.447 343.025 147.668C345.115 143.319 343.625 137.768 340.991 133.353C338.344 128.917 334.162 124.973 329.953 124.015C324.111 122.685 320.05 123.711 317.846 126.554C315.728 129.285 315.787 133.142 316.805 136.442C317.833 139.772 319.976 143.025 322.716 144.71C324.111 145.567 325.719 146.049 327.417 145.831C329.123 145.611 330.737 144.708 332.174 143.131L332.204 143.098L332.232 143.063C334.111 140.729 334.836 138.534 334.1 136.657C333.383 134.827 331.55 134.012 330.046 133.745C328.541 133.478 326.737 133.637 325.534 134.434C324.886 134.863 324.257 135.6 324.246 136.652C324.235 137.632 324.774 138.477 325.451 139.154C326.023 139.726 326.95 139.726 327.521 139.154C328.093 138.583 328.093 137.656 327.521 137.084C327.407 136.97 327.329 136.877 327.276 136.805C327.697 136.604 328.562 136.455 329.534 136.628C330.616 136.82 331.203 137.288 331.374 137.725C331.526 138.112 331.608 139.157 329.98 141.191Z" fill="#FFC600"/>
<path d="M273.998 143.007C276.56 142.641 312.425 146.667 312.425 146.667C307.491 148.449 306.341 150.1 306.215 154.225C306.202 154.675 305.8 155.019 305.355 154.947L272.314 149.618C272.218 149.602 272.123 149.567 272.043 149.512C269.305 147.637 271.474 143.368 273.998 143.007Z" fill="#8664FF"/>
<path fill-rule="evenodd" clip-rule="evenodd" d="M158.329 289.961C155.286 306.656 168.83 321.088 185.8 321.088H266.87C283.84 321.088 297.383 306.656 294.341 289.961C284.047 233.472 257.482 184.949 226.335 184.949C195.187 184.949 168.623 233.472 158.329 289.961Z" fill="#FF9737"/>
<path fill-rule="evenodd" clip-rule="evenodd" d="M260.051 204.707C259.852 205.163 259.659 205.626 259.465 206.09C258.289 208.903 257.105 211.737 254.572 213.171C251.273 215.038 246.714 214.86 242.341 214.688C236.456 214.457 230.907 214.24 229.221 219.04C227.604 223.641 232.269 226.356 237.259 229.26C240.861 231.355 244.631 233.549 246.332 236.622C247.8 239.275 247.541 242.723 247.29 246.066C246.971 250.31 246.665 254.384 249.924 256.445C253.389 258.635 257.205 256.538 261.175 254.357C263.827 252.901 266.547 251.407 269.277 251.125C271.943 250.851 274.853 251.772 277.685 252.669C280.418 253.535 283.078 254.377 285.378 254.1C278.779 234.264 270.107 217.001 260.051 204.707Z" fill="#E14F60"/>
<path fill-rule="evenodd" clip-rule="evenodd" d="M210.907 293.722C212.322 289.806 219.911 287.418 217.922 283.749C215.821 279.874 209.162 284.403 205.02 282.862C202.223 281.821 201.774 277.404 198.883 276.664C195.755 275.862 192.152 276.831 189.723 278.943C187.31 281.042 186.165 284.438 186.274 287.631C186.37 290.461 189.471 292.191 190.268 294.911C191.226 298.181 188.558 302.8 191.312 304.824C193.99 306.792 197.469 302.83 200.788 302.643C204.189 302.451 208.154 305.979 210.703 303.732C213.272 301.466 209.745 296.939 210.907 293.722Z" fill="#50B2DC"/>
<defs>
<clipPath id="clip0_1111_9195">
<rect width="67.1" height="71.92" fill="white" transform="translate(297.921 214.625)"/>
</clipPath>
</defs>
</svg>
