<svg width="380" height="488" viewBox="0 0 380 488" fill="none" xmlns="http://www.w3.org/2000/svg">
<path fill-rule="evenodd" clip-rule="evenodd" d="M328.548 247.88C329.174 249.148 329.745 250.306 330.268 251.323L318.55 257.345C317.908 256.096 317.249 254.769 316.561 253.386C312.643 245.503 307.815 235.789 300.1 228.129C291.549 219.637 279.429 213.727 260.326 218.096L257.388 205.253C281.276 199.789 297.915 207.392 309.383 218.78C318.802 228.132 324.706 240.094 328.548 247.88Z" fill="#141B4D"/>
<path fill-rule="evenodd" clip-rule="evenodd" d="M318.835 241.21C304.299 249.987 300.699 268.485 309.324 282.77C311.364 286.149 313.443 288.81 316.25 289.768C319.255 290.794 322.086 289.56 324.525 288.236C328.289 286.192 327.675 281.282 324.807 279.33C318.356 274.939 316.656 270.448 316.884 266.946C317.123 263.274 319.524 259.797 322.956 257.652C326.399 255.499 330.298 255.031 333.275 256.513C336.139 257.94 339.109 261.668 339.665 270.023C339.827 272.448 341.787 274.921 344.753 274.903C351.273 274.863 357.596 273.229 361.18 269.13C363.047 266.995 364.049 264.31 363.959 261.223C363.871 258.208 362.75 254.968 360.686 251.549C351.984 237.137 333.247 232.508 318.835 241.21Z" fill="#E14F60"/>
<path fill-rule="evenodd" clip-rule="evenodd" d="M122.113 247.878C121.488 249.146 120.916 250.304 120.394 251.321L132.111 257.343C132.754 256.094 133.413 254.767 134.1 253.384C138.019 245.501 142.847 235.787 150.562 228.127C159.113 219.635 171.233 213.725 190.336 218.094L193.274 205.251C169.386 199.787 152.747 207.39 141.278 218.778C131.86 228.13 125.956 240.092 122.113 247.878Z" fill="#141B4D"/>
<path fill-rule="evenodd" clip-rule="evenodd" d="M89.9758 251.548C98.6776 237.135 117.415 232.506 131.827 241.208C146.363 249.985 149.963 268.483 141.338 282.768C139.298 286.147 137.219 288.808 134.412 289.766C131.406 290.792 128.576 289.558 126.137 288.234C122.373 286.19 122.987 281.28 125.855 279.328C132.306 274.937 134.006 270.446 133.778 266.944C133.539 263.272 131.138 259.795 127.706 257.65C124.263 255.497 120.364 255.029 117.387 256.511C114.523 257.938 111.553 261.666 110.996 270.021C110.835 272.446 108.875 274.919 105.909 274.901C99.3884 274.861 93.0654 273.227 89.4817 269.128C87.6153 266.993 86.6127 264.308 86.7029 261.221C86.7909 258.206 87.912 254.966 89.9758 251.548Z" fill="#E14F60"/>
<path d="M81.5458 191.115C80.2532 188.828 81.0598 185.925 83.3474 184.633C85.635 183.34 88.5373 184.147 89.8299 186.434L135.558 267.364C136.851 269.652 136.044 272.554 133.757 273.847C131.469 275.139 128.567 274.332 127.274 272.045L81.5458 191.115Z" fill="#141B4D"/>
<path d="M127.232 148.486C142.445 175.409 132.952 209.567 106.029 224.78C79.1053 239.993 44.9473 230.499 29.7345 203.576C14.5218 176.653 24.0151 142.495 50.9384 127.282C77.8617 112.069 112.02 121.563 127.232 148.486Z" fill="#40DA6B"/>
<path d="M106.838 160.009C115.687 175.67 110.165 195.54 94.5035 204.389C78.8422 213.239 58.9725 207.716 50.1233 192.055C41.2741 176.394 46.7963 156.524 62.4576 147.675C78.1189 138.826 97.9886 144.348 106.838 160.009Z" fill="white"/>
<path d="M53.0907 219.049L59.1892 210.769L62.4812 212.249L60.877 221.986L59.5446 221.722L59.4556 219.048L55.6349 217.957L54.4048 219.784L53.0907 219.049ZM59.1401 212.755L56.2902 216.979L59.4276 218.194L59.2515 212.797L59.1401 212.755Z" fill="#141B4D"/>
<path d="M67.9256 214.012C69.3553 213.719 70.7756 213.649 72.1864 213.803C73.5972 213.957 74.6566 214.312 75.3646 214.869C75.4841 215.421 75.5174 215.939 75.4647 216.422C75.3409 217.557 74.7684 218.458 73.7472 219.125C72.727 219.782 71.4587 220.198 69.9422 220.372L69.2253 223.648L67.7293 223.635L67.9256 214.012ZM72.5617 216.54C72.6446 215.78 72.3957 215.179 71.815 214.736C71.6375 214.717 71.4166 214.728 71.1526 214.769L70.1556 219.377C70.8356 219.092 71.3888 218.688 71.8152 218.165C72.2515 217.644 72.5003 217.102 72.5617 216.54Z" fill="#141B4D"/>
<path d="M79.0166 214.651C80.328 214.011 81.686 213.589 83.0907 213.387C84.4953 213.184 85.6098 213.264 86.4342 213.626C86.6876 214.131 86.849 214.624 86.9184 215.105C87.0814 216.235 86.7517 217.25 85.9291 218.151C85.105 219.042 83.9804 219.761 82.5552 220.307L82.6779 223.659L81.2257 224.019L79.0166 214.651ZM84.1364 215.943C84.0273 215.187 83.6363 214.667 82.9636 214.383C82.7868 214.408 82.5757 214.474 82.3302 214.579L82.5138 219.291C83.1012 218.845 83.5363 218.316 83.8189 217.704C84.1114 217.09 84.2172 216.503 84.1364 215.943Z" fill="#141B4D"/>
<path d="M94.9628 216.469C94.8226 216.595 94.7024 216.679 94.6023 216.723L95.7266 220.324L94.4201 221.053L89.8262 212.596C90.2416 212.232 90.8177 211.814 91.5545 211.343C92.3004 210.868 93.0376 210.473 93.7659 210.157C94.9313 209.651 95.9593 209.465 96.85 209.598C97.2272 210.018 97.5046 210.433 97.6824 210.843C98.18 211.99 97.9307 213.223 96.9344 214.543L101.119 217.904L100.394 218.851L94.9628 216.469ZM95.2065 212.355C94.9261 211.709 94.424 211.337 93.7003 211.24C93.4818 211.335 93.2558 211.487 93.0221 211.696L94.3187 215.807C94.8245 215.253 95.1522 214.661 95.3019 214.034C95.4477 213.397 95.4159 212.838 95.2065 212.355Z" fill="#141B4D"/>
<path d="M110.049 207.842C110.424 208.318 110.698 208.746 110.873 209.126C111.041 209.5 111.119 209.887 111.107 210.288C111.074 211.047 110.497 211.87 109.375 212.755C108.261 213.635 107.197 214.064 106.182 214.044C105.533 213.494 104.956 212.9 104.452 212.261C103.431 210.968 102.759 209.621 102.437 208.219C102.122 206.811 102.118 205.638 102.427 204.699C103.633 204.353 104.942 204.458 106.354 205.012C107.759 205.559 108.991 206.503 110.049 207.842ZM108.22 208.433C107.273 207.233 106.262 206.362 105.188 205.819C104.98 207.108 105.022 208.378 105.313 209.628C105.612 210.871 106.109 211.933 106.804 212.813C107.111 212.659 107.448 212.437 107.815 212.148C108.531 211.582 109.076 211.007 109.448 210.422C109.109 209.703 108.699 209.04 108.22 208.433Z" fill="#141B4D"/>
<path d="M109.77 198.067L116.422 201.679L116.504 201.573L111.908 195.298L113.009 194.455L118.588 202.844L117.946 204.041L108.004 201.011L109.77 198.067Z" fill="#141B4D"/>
<path d="M123.398 195.607L115.4 189.144L117.026 185.921L126.681 187.96L126.358 189.279L123.682 189.248L122.421 193.016L124.191 194.327L123.398 195.607ZM117.382 189.282L121.473 192.318L122.828 189.238L117.429 189.172L117.382 189.282Z" fill="#141B4D"/>
<path d="M129.285 175.94L128.496 181.408L118.706 180.463L119.077 176.932L127.602 179.46L127.783 175.626L129.285 175.94Z" fill="#141B4D"/>
<path d="M33.4167 172.172C32.0514 171.865 30.9559 170.856 30.13 169.145L32.4994 166.885C32.9848 168.255 33.6487 169.035 34.4912 169.225C34.8494 169.305 35.2543 169.269 35.7057 169.116C36.1571 168.963 36.6036 168.809 37.0454 168.654C37.4893 168.49 37.8807 168.445 38.2196 168.521C39.6236 168.837 40.4905 170.049 40.8202 172.158L39.7194 172.643C39.5646 172.109 39.3868 171.723 39.1861 171.485C38.9854 171.247 38.7398 171.095 38.4493 171.03C38.1588 170.964 37.8083 171.008 37.3978 171.159C36.9798 171.299 36.5902 171.471 36.2291 171.675C35.8702 171.869 35.4322 172.03 34.9152 172.158C34.4004 172.276 33.9009 172.281 33.4167 172.172Z" fill="#141B4D"/>
<path d="M45.4872 158.65L42.9519 163.892L33.902 160.04L36.7106 154.103L37.5779 154.597L36.4766 157.563L39.0425 159.312L40.4621 156.477L41.6884 157.022L39.9288 159.9L42.6999 161.772L44.1498 157.898L45.4872 158.65Z" fill="#141B4D"/>
<path d="M47.2543 154.929L41.9752 146.104L44.6131 143.64L52.9728 148.884L52.2143 150.011L49.7131 149.059L47.2299 152.16L48.4395 154.001L47.2543 154.929ZM43.788 146.917L46.5813 151.178L48.9149 148.754L43.8699 146.831L43.788 146.917Z" fill="#141B4D"/>
<path d="M61.4635 143.144L56.8099 146.122L51.1262 138.095L54.0404 136.068L57.6998 144.173L60.7196 141.802L61.4635 143.144Z" fill="#141B4D"/>
<path d="M85.5547 134.8C85.5747 135.405 85.5418 135.913 85.4561 136.323C85.37 136.723 85.2031 137.081 84.9553 137.397C84.4784 137.988 83.5258 138.308 82.0974 138.355C80.679 138.402 79.5673 138.116 78.7624 137.497C78.5662 136.669 78.4547 135.849 78.4279 135.036C78.3735 133.389 78.6323 131.906 79.2043 130.586C79.7863 129.266 80.4799 128.32 81.2852 127.747C82.4614 128.185 83.4531 129.046 84.2601 130.33C85.0668 131.604 85.4984 133.094 85.5547 134.8ZM83.7323 134.19C83.6818 132.662 83.3856 131.361 82.8437 130.287C81.9107 131.202 81.1906 132.248 80.6834 133.427C80.1861 134.605 79.956 135.755 79.993 136.875C80.3326 136.934 80.7354 136.955 81.2016 136.94C82.1142 136.91 82.894 136.77 83.5412 136.52C83.6941 135.74 83.7578 134.964 83.7323 134.19Z" fill="#141B4D"/>
<path d="M96.3504 137.011L93.5105 136.085L92.1209 139.84L90.5111 139.53L92.1172 129.827L98.55 131.155L98.2741 132.114L95.1328 131.744L93.8907 135.074L96.5903 135.691L96.3504 137.011Z" fill="#141B4D"/>
<path d="M91.7739 189.908C91.9514 190.109 92.8538 190.361 93.0927 190.451C93.6029 190.642 93.38 190.836 93.8935 190.802C95.1608 190.857 95.7904 190.726 98.0148 190.93C98.5542 190.979 99.0954 191.748 96.8228 192.844C94.3478 193.599 93.2627 191.723 92.4716 190.657C92.2834 190.403 91.3339 190.151 91.2752 189.847C91.2265 189.594 91.6561 189.775 91.7739 189.908Z" fill="#141B4D"/>
<path d="M108.168 176.673C109.049 178.474 100.455 184.487 88.9732 190.103C77.491 195.719 67.4687 198.812 66.5877 197.01C65.7066 195.209 74.3006 189.196 85.7827 183.58C97.2649 177.964 107.287 174.872 108.168 176.673Z" fill="#141B4D"/>
<path d="M110.334 161.703C110.524 159.999 109.967 157.836 110.363 156.239C111.75 154.455 116.365 151.222 115.2 148.961C114.522 147.643 109.664 150.909 108.855 151.675C108.177 152.317 107.231 153.516 106.105 153.001C104.198 152.131 100.315 148.549 97.6481 152.076C96.6509 153.521 100.732 154.576 101.72 155.46C105.533 158.87 104.025 163.881 101.325 167.622C100.148 169.253 97.2421 170.497 95.3955 171.17C92.3997 172.26 89.1906 172.991 86.1428 173.96C82.748 175.039 80.5323 172.767 78.2647 170.648C72.9568 165.687 65.072 161.509 62.1521 169.092C59.7378 176.87 69.524 187.253 75.796 189.439C85.1208 192.689 88.1268 189.084 96.2847 184.883C105.11 180.338 109.264 171.274 110.334 161.703Z" fill="#50B2DC"/>
<path fill-rule="evenodd" clip-rule="evenodd" d="M62.8438 169.332C61.7595 172.867 63.4175 177.14 66.2985 180.919C69.1701 184.685 73.0762 187.716 76.0367 188.748C80.5744 190.329 83.485 190.22 86.2376 189.263C87.642 188.775 89.0272 188.059 90.5964 187.184C91.0158 186.951 91.4488 186.705 91.8979 186.451C93.1148 185.761 94.4493 185.004 95.9494 184.232C104.476 179.841 108.552 171.056 109.606 161.622C109.682 160.945 109.627 160.182 109.566 159.334C109.558 159.218 109.549 159.1 109.541 158.981C109.476 158.04 109.423 156.989 109.653 156.063L109.69 155.912L109.785 155.79C110.171 155.294 110.762 154.719 111.359 154.141C111.396 154.105 111.433 154.069 111.47 154.034C112.052 153.471 112.659 152.885 113.194 152.29C113.769 151.65 114.219 151.046 114.463 150.502C114.679 150.018 114.699 149.664 114.589 149.383C114.516 149.38 114.391 149.389 114.204 149.434C113.734 149.544 113.105 149.817 112.421 150.182C111.051 150.913 109.697 151.886 109.358 152.207C109.295 152.266 109.221 152.341 109.136 152.426C108.855 152.709 108.464 153.101 108.061 153.376C107.494 153.763 106.695 154.075 105.801 153.667C105.392 153.481 104.9 153.181 104.404 152.879C104.262 152.793 104.119 152.706 103.978 152.622C103.311 152.223 102.613 151.834 101.91 151.577C101.207 151.32 100.554 151.217 99.9633 151.329C99.398 151.437 98.811 151.758 98.2433 152.503C98.2355 152.514 98.2306 152.524 98.2275 152.53C98.2343 152.546 98.2513 152.578 98.2916 152.627C98.4517 152.824 98.7866 153.062 99.2894 153.336C99.6442 153.529 100.024 153.71 100.408 153.893C100.554 153.962 100.7 154.032 100.846 154.103C101.331 154.339 101.871 154.613 102.208 154.915C104.314 156.798 104.953 159.148 104.692 161.498C104.436 163.812 103.312 166.119 101.918 168.051C101.231 169.003 100.091 169.785 98.96 170.399C97.811 171.022 96.5854 171.515 95.6457 171.857C94.1207 172.413 92.5474 172.874 90.9874 173.315C90.6821 173.401 90.3776 173.486 90.074 173.571C88.8188 173.923 87.5795 174.271 86.3643 174.657C84.4446 175.267 82.834 174.922 81.4265 174.143C80.1891 173.459 79.0866 172.423 78.0659 171.465C77.9647 171.37 77.8643 171.275 77.7647 171.182C75.1432 168.733 71.9579 166.551 69.1426 165.878C67.7491 165.545 66.5086 165.596 65.474 166.097C64.4529 166.592 63.5242 167.578 62.8438 169.332ZM98.2227 152.543C98.2226 152.543 98.2228 152.541 98.2237 152.539C98.2233 152.541 98.2228 152.543 98.2227 152.543ZM69.4828 164.454C72.6668 165.215 76.0779 167.602 78.7642 170.113C78.8594 170.202 78.9537 170.29 79.0474 170.378C80.0988 171.364 81.067 172.272 82.1351 172.862C83.2512 173.48 84.4458 173.731 85.9208 173.262C87.1625 172.867 88.4323 172.511 89.6896 172.159C89.9904 172.074 90.2906 171.99 90.5895 171.906C92.1449 171.466 93.6741 171.017 95.1449 170.482C96.0517 170.151 97.2024 169.687 98.2622 169.112C99.3399 168.527 100.241 167.873 100.731 167.194C102.038 165.384 103.018 163.315 103.237 161.336C103.453 159.393 102.939 157.532 101.232 156.006C101.075 155.865 100.734 155.676 100.207 155.42C100.082 155.359 99.9488 155.296 99.8108 155.23C99.4161 155.042 98.9817 154.835 98.5894 154.621C98.0731 154.34 97.5129 153.989 97.1574 153.553C96.9718 153.325 96.8062 153.032 96.7683 152.678C96.7287 152.309 96.8375 151.962 97.0456 151.66L97.0545 151.647L97.0641 151.635C97.8261 150.627 98.7205 150.076 99.6891 149.891C100.636 149.711 101.573 149.895 102.412 150.202C103.252 150.509 104.049 150.958 104.73 151.365C104.906 151.471 105.071 151.571 105.226 151.665C105.702 151.955 106.086 152.188 106.409 152.335C106.641 152.441 106.877 152.412 107.235 152.167C107.514 151.977 107.75 151.741 108.007 151.483C108.116 151.373 108.229 151.26 108.351 151.144C108.822 150.699 110.301 149.655 111.732 148.891C112.448 148.508 113.211 148.164 113.868 148.009C114.193 147.932 114.553 147.887 114.894 147.947C115.26 148.012 115.637 148.21 115.851 148.625C116.282 149.462 116.14 150.338 115.799 151.1C115.461 151.854 114.889 152.594 114.283 153.268C113.711 153.904 113.07 154.524 112.496 155.078C112.456 155.117 112.416 155.155 112.377 155.193C111.818 155.734 111.352 156.191 111.04 156.565C110.911 157.208 110.94 157.986 111.002 158.88C111.009 158.992 111.018 159.107 111.026 159.223C111.087 160.052 111.153 160.963 111.061 161.784C109.976 171.492 105.743 180.835 96.6196 185.533C95.1477 186.291 93.8521 187.026 92.6423 187.711C92.1874 187.969 91.7447 188.22 91.3093 188.463C89.729 189.344 88.2503 190.114 86.7179 190.646C83.5968 191.73 80.342 191.798 75.5549 190.13C72.2434 188.976 68.1204 185.722 65.1344 181.806C62.1642 177.911 60.1372 173.114 61.4529 168.875L61.4601 168.852L61.4688 168.829C62.2476 166.807 63.3958 165.477 64.8358 164.78C66.2667 164.087 67.8766 164.07 69.4828 164.454Z" fill="#50B2DC"/>
<path d="M69.8537 192.922C70.2218 192.23 72.4953 188.939 72.4494 187.571L75.288 189.245L77.8157 190.218C76.5667 192.691 70.4853 196.18 67.5679 196.744C66.2258 197.004 69.4074 193.761 69.8537 192.922Z" fill="#50B2DC"/>
<path fill-rule="evenodd" clip-rule="evenodd" d="M71.674 186.263L75.6072 188.582L78.8335 189.824L78.468 190.548C78.0909 191.295 77.3906 192.051 76.5749 192.756C75.7462 193.472 74.7436 194.181 73.6986 194.822C71.6287 196.091 69.2911 197.157 67.7057 197.464C67.5771 197.488 67.4076 197.507 67.2287 197.473C67.0324 197.435 66.795 197.324 66.6413 197.076C66.5007 196.849 66.4995 196.617 66.5161 196.475C66.5332 196.329 66.5783 196.197 66.6211 196.094C66.781 195.708 67.1294 195.227 67.4626 194.796C67.7206 194.463 68.012 194.107 68.2803 193.78C68.375 193.665 68.4667 193.553 68.5531 193.447C68.9122 193.005 69.1386 192.709 69.2086 192.578C69.2974 192.411 69.473 192.128 69.6743 191.803C69.7152 191.737 69.7572 191.669 69.7997 191.601C70.0627 191.175 70.3735 190.667 70.6702 190.14C70.9682 189.611 71.2436 189.079 71.44 188.606C71.6472 188.107 71.7245 187.77 71.7187 187.596L71.674 186.263ZM70.9052 192.593C70.7028 192.92 70.5626 193.146 70.4989 193.266C70.3458 193.554 70.007 193.978 69.686 194.372C69.5919 194.488 69.4951 194.606 69.3974 194.725C69.1346 195.045 68.8651 195.374 68.622 195.688C69.8777 195.248 71.4479 194.485 72.9363 193.572C73.9324 192.961 74.8667 192.298 75.6207 191.647C76.061 191.266 76.4226 190.904 76.6976 190.572L74.9688 189.907L72.9599 188.722C72.9079 188.874 72.85 189.023 72.79 189.168C72.5614 189.718 72.254 190.308 71.9434 190.859C71.6314 191.413 71.3077 191.943 71.0424 192.372C70.994 192.45 70.9482 192.524 70.9052 192.593ZM67.9622 196.679C67.9621 196.679 67.9622 196.679 67.9622 196.679V196.679Z" fill="#50B2DC"/>
<path d="M81.1664 190.935C84.0988 193.28 90.1306 195.028 96.7435 192.058C97.9965 191.635 90.7385 190.471 90.6659 188.221C87.4021 189.86 85.336 190.472 81.1664 190.935Z" fill="#50B2DC"/>
<path fill-rule="evenodd" clip-rule="evenodd" d="M91.3593 187.048L90.3309 187.564C87.15 189.162 85.1677 189.752 81.0757 190.207L79.3337 190.4L80.7152 191.505C83.8577 194.018 90.1696 195.805 97.0236 192.739C97.0871 192.715 97.1612 192.682 97.235 192.635C97.3197 192.581 97.4537 192.477 97.5411 192.297C97.7731 191.818 97.4527 191.441 97.351 191.342C97.229 191.223 97.0821 191.14 96.9806 191.088C96.8652 191.029 96.7333 190.972 96.5974 190.917C96.3239 190.806 95.9367 190.67 95.5166 190.522C95.1683 190.399 94.7974 190.269 94.4497 190.138C93.6243 189.829 92.8121 189.482 92.2116 189.095C91.5609 188.676 91.4019 188.368 91.3967 188.207L91.3593 187.048ZM90.2638 189.238C90.5601 189.695 91.0122 190.053 91.4331 190.324C92.1747 190.802 93.1122 191.194 93.9539 191.51C94.3822 191.67 94.7661 191.805 95.1059 191.924C95.1059 191.924 95.106 191.924 95.1061 191.924C90.3412 193.625 86.0343 192.851 83.2417 191.406C85.9894 190.989 87.8553 190.394 90.2638 189.238ZM96.5015 191.363C96.5033 191.362 96.503 191.362 96.5009 191.363L96.5015 191.363Z" fill="#50B2DC"/>
<path fill-rule="evenodd" clip-rule="evenodd" d="M71.2597 173.155C71.4564 173.108 71.6545 173.229 71.702 173.425C71.9256 174.349 71.7849 175.301 71.1643 175.983C70.541 176.668 69.5062 177.003 68.1091 176.844C67.9079 176.821 67.7629 176.64 67.7853 176.439C67.8076 176.239 67.9888 176.095 68.19 176.118C69.4396 176.26 70.2059 175.947 70.6206 175.491C71.0379 175.033 71.172 174.349 70.9894 173.595C70.9419 173.398 71.0629 173.201 71.2597 173.155Z" fill="#141B4D"/>
<path fill-rule="evenodd" clip-rule="evenodd" d="M65.3045 176.181C65.0779 176.551 65.0317 176.999 65.039 177.268C65.0445 177.47 64.885 177.638 64.6828 177.643C64.4806 177.648 64.3122 177.488 64.3067 177.286C64.2974 176.944 64.35 176.336 64.6794 175.799C65.0251 175.234 65.6499 174.792 66.6777 174.78C66.8799 174.777 67.0461 174.939 67.0489 175.141C67.0516 175.343 66.8899 175.508 66.6876 175.511C65.9031 175.52 65.5147 175.838 65.3045 176.181Z" fill="#141B4D"/>
<path fill-rule="evenodd" clip-rule="evenodd" d="M70.6479 170.835C70.4158 171.132 70.3579 171.527 70.3304 171.827C70.312 172.028 70.1336 172.175 69.932 172.155C69.7304 172.136 69.5819 171.957 69.6003 171.756C69.6283 171.451 69.6947 170.862 70.0685 170.384C70.4677 169.873 71.1508 169.564 72.2363 169.69C72.4375 169.713 72.5826 169.894 72.5604 170.095C72.5381 170.295 72.357 170.439 72.1558 170.416C71.2591 170.312 70.8546 170.57 70.6479 170.835Z" fill="#141B4D"/>
<path fill-rule="evenodd" clip-rule="evenodd" d="M69.0671 174.215C69.1405 174.146 69.2564 174.149 69.326 174.223C69.4647 174.369 69.576 174.499 69.677 174.616C70.0046 174.997 70.2247 175.253 70.9222 175.556C71.0151 175.596 71.0577 175.703 71.0175 175.796C70.9773 175.889 70.8695 175.931 70.7767 175.891C69.9974 175.553 69.7223 175.232 69.382 174.836C69.2845 174.722 69.1817 174.602 69.0601 174.474C68.9905 174.4 68.9936 174.285 69.0671 174.215Z" fill="#141B4D"/>
<path fill-rule="evenodd" clip-rule="evenodd" d="M72.8347 171.839C72.7608 171.77 72.7568 171.654 72.8257 171.58C73.1887 171.191 73.6953 170.823 74.21 170.49C74.5465 170.273 74.8954 170.064 75.2148 169.874C75.3825 169.774 75.5421 169.679 75.6874 169.59C75.7735 169.537 75.8862 169.564 75.939 169.65C75.9919 169.736 75.9649 169.849 75.8787 169.902C75.7258 169.995 75.5624 170.093 75.3928 170.194C75.0774 170.382 74.7405 170.583 74.4087 170.798C73.8999 171.127 73.4245 171.475 73.0933 171.83C73.0244 171.904 72.9086 171.908 72.8347 171.839Z" fill="#141B4D"/>
<path fill-rule="evenodd" clip-rule="evenodd" d="M73.0757 172.434C73.0194 172.35 73.0418 172.236 73.1257 172.18C73.5676 171.883 74.1446 171.64 74.7214 171.433C75.0985 171.298 75.4857 171.174 75.84 171.061C76.0261 171.002 76.2031 170.945 76.3648 170.892C76.4607 170.86 76.5643 170.912 76.5962 171.008C76.6281 171.103 76.5762 171.207 76.4803 171.239C76.31 171.296 76.1288 171.353 75.9406 171.413C75.5907 171.525 75.2169 171.644 74.8451 171.777C74.2749 171.982 73.7327 172.213 73.3296 172.484C73.2457 172.54 73.132 172.518 73.0757 172.434Z" fill="#141B4D"/>
<path fill-rule="evenodd" clip-rule="evenodd" d="M67.1505 177.497C67.0905 177.416 66.976 177.399 66.8946 177.459C66.4662 177.774 66.0422 178.235 65.6521 178.707C65.397 179.017 65.1498 179.339 64.9237 179.634C64.8049 179.789 64.6919 179.937 64.5866 180.071C64.5241 180.15 64.5379 180.265 64.6174 180.328C64.6968 180.39 64.8119 180.376 64.8743 180.297C64.9852 180.156 65.1009 180.005 65.2209 179.848C65.4442 179.557 65.6828 179.245 65.9343 178.94C66.32 178.473 66.7208 178.041 67.1117 177.753C67.193 177.693 67.2104 177.579 67.1505 177.497Z" fill="#141B4D"/>
<path fill-rule="evenodd" clip-rule="evenodd" d="M67.7303 177.799C67.6457 177.744 67.5323 177.768 67.4771 177.853C67.1866 178.299 66.951 178.879 66.7515 179.458C66.621 179.837 66.5027 180.226 66.3944 180.581C66.3375 180.768 66.2834 180.946 66.2318 181.109C66.2012 181.205 66.2544 181.308 66.3507 181.338C66.447 181.369 66.5499 181.316 66.5805 181.219C66.6349 181.048 66.6903 180.866 66.7477 180.677C66.8546 180.326 66.9688 179.951 67.0975 179.577C67.2948 179.004 67.5186 178.459 67.7837 178.053C67.8389 177.968 67.815 177.855 67.7303 177.799Z" fill="#141B4D"/>
<path d="M69.3353 173.661C69.4654 173.828 69.4598 174.268 69.2708 174.419C69.0818 174.57 68.5827 174.532 68.4526 174.365C68.3225 174.199 68.5062 173.833 68.6952 173.682C68.8841 173.531 69.2051 173.494 69.3353 173.661Z" fill="#141B4D"/>
<g clip-path="url(#clip0_1110_7019)">
<path d="M361.611 251.897C358.115 246.081 352.824 241.559 346.535 239.01C340.246 236.462 333.3 236.025 326.741 237.767C326.521 237.834 326.284 237.823 326.071 237.735C325.858 237.648 325.681 237.489 325.571 237.287C323.81 234.119 321.891 231.042 319.821 228.067C316.653 223.496 312.965 219.308 308.831 215.587C305.341 220.457 302.151 225.727 297.921 229.867C300.63 232.454 303.069 235.308 305.201 238.387C307.182 241.227 308.998 244.179 310.641 247.227C310.739 247.402 310.782 247.603 310.764 247.802C310.746 248.002 310.668 248.192 310.541 248.347C302.691 258.297 301.921 272.487 308.921 283.987C309.564 285.076 310.269 286.128 311.031 287.137C311.125 287.247 311.242 287.335 311.373 287.395C311.504 287.456 311.647 287.487 311.791 287.487C311.936 287.487 312.079 287.456 312.21 287.395C312.341 287.335 312.458 287.247 312.551 287.137L320.861 276.137C321.011 275.957 321.093 275.731 321.093 275.497C321.093 275.263 321.011 275.037 320.861 274.857C319.132 272.908 318.213 270.371 318.291 267.767C318.496 266.019 319.106 264.343 320.073 262.872C321.04 261.402 322.337 260.177 323.861 259.297C327.071 257.297 330.581 256.927 333.141 258.217C335.061 259.217 337.241 261.437 338.341 266.367C338.388 266.611 338.523 266.828 338.72 266.978C338.918 267.128 339.164 267.199 339.411 267.177L364.051 265.287C364.263 265.266 364.462 265.178 364.621 265.036C364.779 264.894 364.888 264.705 364.931 264.497C365.058 263.673 365.108 262.84 365.081 262.007C364.816 258.394 363.621 254.911 361.611 251.897Z" fill="white"/>
<path d="M312.921 219.427C311.841 218.337 310.031 216.267 309.581 216.217L304.031 236.767C304.421 237.287 305.161 238.387 305.531 238.917C306.191 239.847 306.811 240.787 307.421 241.717L308.421 237.767L322.791 232.447C322.071 231.297 321.311 230.157 320.521 229.027L309.601 233.027L312.921 219.427Z" fill="#C0EDFF"/>
<path d="M304.031 268.767L318.141 267.897C318.267 266.439 318.718 265.028 319.461 263.767L304.141 264.767C304.02 266.097 303.983 267.433 304.031 268.767Z" fill="#C0EDFF"/>
<path fill-rule="evenodd" clip-rule="evenodd" d="M331.641 236.897C333.641 236.397 335.641 236.397 336.301 236.767L358.141 265.397C358.641 265.897 352.141 266.397 352.141 265.897L331.641 236.897Z" fill="#C0EDFF"/>
</g>
<path fill-rule="evenodd" clip-rule="evenodd" d="M185.586 85.509L164.36 64.283L168.501 60.1426L189.727 81.3686L185.586 85.509Z" fill="#141B4D"/>
<path fill-rule="evenodd" clip-rule="evenodd" d="M279.825 82.2434L303.823 64.1839L307.344 68.8625L283.346 86.922L279.825 82.2434Z" fill="#141B4D"/>
<path fill-rule="evenodd" clip-rule="evenodd" d="M298.41 122.046C304.191 142.386 288.969 161.915 267.965 164.354L171.374 175.567C146.573 178.446 127.617 156.632 140.701 135.366C163.891 97.6727 203.047 61.9902 235.652 58.2052C269.798 54.2413 288.237 86.2517 298.41 122.046Z" fill="#50B2DC"/>
<path fill-rule="evenodd" clip-rule="evenodd" d="M288.424 127.325C291.813 141.009 281.769 153.984 267.767 155.61L168.81 167.098C152.276 169.017 139.355 154.466 147.243 139.809C166.078 104.814 202.818 69.3226 232.987 65.8203C264.351 62.1793 280.193 94.0897 288.424 127.325Z" fill="#141B4D"/>
<path fill-rule="evenodd" clip-rule="evenodd" d="M255.666 107.772L256.7 144.877C256.773 147.486 253.046 148.021 252.382 145.496L245.674 119.983L243.912 126.403C243.675 127.267 242.937 127.9 242.047 128.003L198.673 133.039C198.131 133.101 197.585 132.96 197.142 132.643L192.837 129.561L191.021 154.13C190.834 156.65 187.238 156.913 186.688 154.446L177.999 115.533L174.345 134.321C174.163 135.26 173.393 135.973 172.443 136.084L149.565 138.739L149.228 135.831L171.574 133.237L175.794 111.534C176.248 109.198 179.574 109.152 180.092 111.475L188.466 148.975L190.013 128.046C190.14 126.337 192.088 125.424 193.481 126.422L198.616 130.098L241.219 125.152L243.571 116.581C244.165 114.416 247.242 114.433 247.812 116.604L253.597 138.603L252.595 102.684C252.524 100.142 256.108 99.5324 256.882 101.955L263.464 122.57L286.865 119.853L287.203 122.761L263.203 125.547C262.16 125.668 261.177 125.034 260.858 124.034L255.666 107.772Z" fill="#40DA6B"/>
<path d="M174.485 60.3835C174.485 65.4365 170.553 69.5327 165.702 69.5327C160.851 69.5327 156.919 65.4365 156.919 60.3835C156.919 55.3306 160.851 51.2344 165.702 51.2344C170.553 51.2344 174.485 55.3306 174.485 60.3835Z" fill="#50B2DC"/>
<path d="M319.407 64.0437C319.407 69.0966 315.311 73.1928 310.258 73.1928C305.205 73.1928 301.109 69.0966 301.109 64.0437C301.109 58.9907 305.205 54.8945 310.258 54.8945C315.311 54.8945 319.407 58.9907 319.407 64.0437Z" fill="#50B2DC"/>
<path d="M218.458 7.44253C218.613 6.85302 219.378 6.6998 219.748 7.18431L260.529 60.6223C260.763 60.9287 260.716 61.367 260.423 61.6179C243.777 75.8951 225.495 78.7149 201.312 76.078C200.868 76.0297 200.568 75.5976 200.681 75.1663L218.458 7.44253Z" fill="#FF9737"/>
<path d="M161.554 202.013C161.554 197.162 165.487 193.23 170.337 193.23H193.027C197.878 193.23 201.81 197.162 201.81 202.013V224.703C201.81 229.554 197.878 233.486 193.027 233.486H170.337C165.487 233.486 161.554 229.554 161.554 224.703V202.013Z" fill="#50B2DC"/>
<path d="M161.554 245.929C161.554 241.078 165.487 237.146 170.337 237.146H193.027C197.878 237.146 201.81 241.078 201.81 245.929V268.619C201.81 273.47 197.878 277.402 193.027 277.402H170.337C165.487 277.402 161.554 273.47 161.554 268.619V245.929Z" fill="#50B2DC"/>
<path d="M161.554 289.845C161.554 284.994 165.487 281.062 170.337 281.062H193.027C197.878 281.062 201.81 284.994 201.81 289.845V312.535C201.81 317.385 197.878 321.318 193.027 321.318H170.337C165.487 321.318 161.554 317.385 161.554 312.535V289.845Z" fill="#E14F60"/>
<path d="M205.472 202.013C205.472 197.162 209.404 193.23 214.255 193.23H236.945C241.796 193.23 245.728 197.162 245.728 202.013V224.703C245.728 229.554 241.796 233.486 236.945 233.486H214.255C209.404 233.486 205.472 229.554 205.472 224.703V202.013Z" fill="#40DA6B"/>
<path d="M205.472 245.929C205.472 241.078 209.404 237.146 214.255 237.146H236.945C241.796 237.146 245.728 241.078 245.728 245.929V268.619C245.728 273.47 241.796 277.402 236.945 277.402H214.255C209.404 277.402 205.472 273.47 205.472 268.619V245.929Z" fill="#50B2DC"/>
<path d="M205.472 289.845C205.472 284.994 209.404 281.062 214.255 281.062H236.945C241.796 281.062 245.728 284.994 245.728 289.845V312.535C245.728 317.385 241.796 321.318 236.945 321.318H214.255C209.404 321.318 205.472 317.385 205.472 312.535V289.845Z" fill="#50B2DC"/>
<path d="M249.386 202.013C249.386 197.162 253.318 193.23 258.169 193.23H280.859C285.71 193.23 289.642 197.162 289.642 202.013V224.703C289.642 229.554 285.71 233.486 280.859 233.486H258.169C253.318 233.486 249.386 229.554 249.386 224.703V202.013Z" fill="#50B2DC"/>
<path d="M249.386 245.929C249.386 241.078 253.318 237.146 258.169 237.146H280.859C285.71 237.146 289.642 241.078 289.642 245.929V268.619C289.642 273.47 285.71 277.402 280.859 277.402H258.169C253.318 277.402 249.386 273.47 249.386 268.619V245.929Z" fill="white"/>
<path d="M249.386 289.845C249.386 284.994 253.318 281.062 258.169 281.062H280.859C285.71 281.062 289.642 284.994 289.642 289.845V312.535C289.642 317.385 285.71 321.318 280.859 321.318H258.169C253.318 321.318 249.386 317.385 249.386 312.535V289.845Z" fill="#50B2DC"/>
<path fill-rule="evenodd" clip-rule="evenodd" d="M204.877 397.925C207.747 398.775 209.41 401.663 209.459 404.703C209.503 407.452 207.61 409.723 205.083 410.736C202.494 411.774 199.493 411.538 197.672 409.428C195.62 407.049 194.905 403.583 196.589 400.893C198.329 398.117 201.783 397.01 204.877 397.925Z" fill="#FFCF54"/>
<path fill-rule="evenodd" clip-rule="evenodd" d="M180.371 466.386C176.512 465.136 172.288 467.116 170.268 470.549C168.496 473.562 170.226 477.078 172.48 479.803C174.724 482.515 177.941 485.062 181.224 483.794C184.438 482.552 184.664 478.565 184.497 475.161C184.323 471.615 183.81 467.501 180.371 466.386Z" fill="#B1AFA9" fill-opacity="0.3"/>
<path fill-rule="evenodd" clip-rule="evenodd" d="M182.544 457.864C184.962 457.399 186.673 460.1 188.365 461.954C189.88 463.613 191.386 465.348 191.443 467.614C191.509 470.21 190.845 473.108 188.681 474.431C186.583 475.713 184.018 474.498 181.745 473.542C179.753 472.705 177.656 471.631 177.006 469.523C176.387 467.511 177.848 465.692 178.744 463.805C179.809 461.563 180.155 458.324 182.544 457.864Z" fill="#B1AFA9" fill-opacity="0.5"/>
<path fill-rule="evenodd" clip-rule="evenodd" d="M179.473 451.776C177.912 452.339 177.85 454.492 177.507 456.149C177.2 457.631 176.924 459.154 177.67 460.487C178.525 462.014 179.907 463.465 181.615 463.487C183.272 463.509 184.34 461.922 185.329 460.587C186.195 459.416 187.041 458.073 186.692 456.628C186.36 455.249 184.887 454.697 183.719 453.912C182.33 452.979 181.016 451.221 179.473 451.776Z" fill="#B1AFA9"/>
<path d="M187.39 384.133C181.741 386.453 176.46 390.369 173.206 395.587C167.999 403.938 168.647 409.979 171.267 418.207C172.786 422.979 171.13 432.754 172.226 432.143C172.837 431.801 176.43 426.8 176.42 427.501C176.402 428.725 174.823 433.84 174.763 435.081C174.624 437.926 174.378 441.665 175.554 444.523C176.472 448.955 180.837 432.275 181.25 431.772C181.879 431.005 180.807 437.411 180.776 438.122C180.655 440.908 180.293 443.664 180.17 446.448C180.096 448.101 178.754 456.941 180.1 458.364C180.884 459.193 181.383 454.388 183.975 449.077C185.971 444.988 186.711 444.231 188.525 441.698C188.86 441.23 190.618 438.42 190.712 439.205C191.017 441.748 190.439 444.276 190.355 446.817C190.31 448.17 190.033 450.1 191.178 447.357C193.674 438.822 198.859 431.497 201.51 423.064C203.274 417.451 204.356 411.625 205.168 405.81C206.12 399.007 206.942 387.132 199.173 383.891C197.516 383.2 196.167 382.452 194.342 382.629C191.907 382.864 189.657 383.202 187.39 384.133Z" fill="#E14F60"/>
<path fill-rule="evenodd" clip-rule="evenodd" d="M213.701 394.024C215.662 390.968 217.211 387.47 218.203 383.639C222.298 367.814 215.307 352.317 202.589 349.026C189.87 345.735 176.239 355.895 172.144 371.72C171.153 375.551 170.811 379.362 171.043 382.985L213.701 394.024Z" fill="#141B4D"/>
<path fill-rule="evenodd" clip-rule="evenodd" d="M169.966 399.185C173.028 399.852 175.14 402.623 175.229 405.462C175.307 407.953 172.84 409.454 170.313 410.279C167.798 411.101 164.688 411.461 162.946 409.473C161.241 407.527 162.566 405.014 163.938 403.003C165.368 400.907 167.237 398.591 169.966 399.185Z" fill="#FFCF54" fill-opacity="0.8"/>
<path fill-rule="evenodd" clip-rule="evenodd" d="M200.316 423.325C197.438 422.083 194.067 423.232 192.291 425.642C190.733 427.758 191.828 430.526 193.378 432.745C194.921 434.953 197.221 437.114 199.823 436.424C202.371 435.749 202.807 432.782 202.903 430.221C203.003 427.552 202.881 424.432 200.316 423.325Z" fill="#FFCF54" fill-opacity="0.8"/>
<path d="M170.824 374.403C170.929 374.013 171.33 373.781 171.721 373.886L217.675 386.199C218.066 386.304 218.298 386.705 218.193 387.096L215.92 395.58C215.815 395.97 215.414 396.202 215.023 396.097L169.069 383.784C168.678 383.679 168.447 383.278 168.551 382.887L170.824 374.403Z" fill="#50B2DC"/>
<path fill-rule="evenodd" clip-rule="evenodd" d="M191.974 393.715C194.383 394.227 194.908 397.381 195.746 399.748C196.495 401.865 197.208 404.049 196.379 406.159C195.429 408.576 193.69 410.987 191.183 411.364C188.751 411.729 186.861 409.612 185.138 407.847C183.629 406.301 182.115 404.496 182.337 402.302C182.548 400.207 184.603 399.099 186.162 397.71C188.015 396.059 189.595 393.209 191.974 393.715Z" fill="#FFCF54"/>
<path fill-rule="evenodd" clip-rule="evenodd" d="M194.087 398.826C197.252 399.793 198.864 403.825 198.639 408.225C198.436 412.204 196.089 415.67 193.139 417.371C190.118 419.113 186.75 419.047 184.887 416.157C182.786 412.899 182.298 407.943 184.449 403.89C186.67 399.707 190.675 397.784 194.087 398.826Z" fill="#FFCF54" fill-opacity="0.3"/>
<path fill-rule="evenodd" clip-rule="evenodd" d="M281.822 336.568C284.115 333.176 281.398 329.1 277.303 329.1H175.695C171.601 329.1 168.883 333.176 171.176 336.568C180.751 350.73 201.922 364.712 226.499 364.712C251.077 364.712 272.247 350.73 281.822 336.568Z" fill="#40DA6B"/>
<path fill-rule="evenodd" clip-rule="evenodd" d="M249.762 397.925C246.892 398.775 245.229 401.663 245.181 404.703C245.136 407.452 247.029 409.723 249.557 410.736C252.146 411.774 255.146 411.538 256.967 409.428C259.019 407.049 259.734 403.583 258.05 400.893C256.311 398.117 252.856 397.01 249.762 397.925Z" fill="#FFCF54"/>
<path fill-rule="evenodd" clip-rule="evenodd" d="M274.268 466.386C278.127 465.136 282.352 467.116 284.371 470.549C286.143 473.562 284.413 477.078 282.159 479.803C279.915 482.515 276.698 485.062 273.415 483.794C270.201 482.552 269.975 478.565 270.142 475.161C270.316 471.615 270.829 467.501 274.268 466.386Z" fill="#B1AFA9" fill-opacity="0.3"/>
<path fill-rule="evenodd" clip-rule="evenodd" d="M272.095 457.864C269.677 457.399 267.966 460.1 266.274 461.954C264.759 463.613 263.254 465.348 263.196 467.614C263.131 470.21 263.795 473.108 265.958 474.431C268.056 475.713 270.621 474.498 272.895 473.542C274.886 472.705 276.983 471.631 277.633 469.523C278.253 467.511 276.791 465.692 275.895 463.805C274.83 461.563 274.484 458.324 272.095 457.864Z" fill="#B1AFA9" fill-opacity="0.5"/>
<path fill-rule="evenodd" clip-rule="evenodd" d="M275.166 451.776C276.727 452.339 276.79 454.492 277.132 456.149C277.439 457.631 277.715 459.154 276.969 460.487C276.114 462.014 274.733 463.465 273.024 463.487C271.367 463.509 270.299 461.922 269.31 460.587C268.444 459.416 267.598 458.073 267.947 456.628C268.28 455.249 269.753 454.697 270.92 453.912C272.309 452.979 273.624 451.221 275.166 451.776Z" fill="#B1AFA9"/>
<path d="M267.249 384.133C272.899 386.453 278.179 390.369 281.433 395.587C286.64 403.938 285.992 409.979 283.373 418.207C281.853 422.979 283.509 432.754 282.414 432.143C281.802 431.801 278.209 426.8 278.219 427.501C278.237 428.725 279.816 433.84 279.877 435.081C280.015 437.926 280.261 441.665 279.085 444.523C278.167 448.955 273.802 432.275 273.389 431.772C272.76 431.005 273.832 437.411 273.863 438.122C273.985 440.908 274.346 443.664 274.47 446.448C274.543 448.101 275.885 456.941 274.539 458.364C273.755 459.193 273.256 454.388 270.664 449.077C268.669 444.988 267.928 444.231 266.114 441.698C265.779 441.23 264.021 438.42 263.927 439.205C263.622 441.748 264.2 444.276 264.284 446.817C264.329 448.17 264.606 450.1 263.461 447.357C260.965 438.822 255.78 431.497 253.13 423.064C251.366 417.451 250.284 411.625 249.471 405.81C248.52 399.007 247.697 387.132 255.466 383.891C257.123 383.2 258.472 382.452 260.297 382.629C262.732 382.864 264.983 383.202 267.249 384.133Z" fill="#E14F60"/>
<path fill-rule="evenodd" clip-rule="evenodd" d="M240.938 394.024C238.978 390.968 237.428 387.47 236.437 383.639C232.341 367.814 239.332 352.317 252.051 349.026C264.769 345.735 278.4 355.895 282.495 371.72C283.486 375.551 283.828 379.362 283.596 382.985L240.938 394.024Z" fill="#141B4D"/>
<path fill-rule="evenodd" clip-rule="evenodd" d="M284.673 399.185C281.611 399.852 279.499 402.623 279.41 405.462C279.332 407.953 281.799 409.454 284.326 410.279C286.842 411.101 289.951 411.461 291.693 409.473C293.398 407.527 292.074 405.014 290.701 403.003C289.271 400.907 287.402 398.591 284.673 399.185Z" fill="#FFCF54" fill-opacity="0.8"/>
<path fill-rule="evenodd" clip-rule="evenodd" d="M254.323 423.325C257.201 422.083 260.572 423.232 262.348 425.642C263.906 427.758 262.811 430.526 261.261 432.745C259.718 434.953 257.418 437.114 254.816 436.424C252.268 435.749 251.833 432.782 251.736 430.221C251.636 427.552 251.758 424.432 254.323 423.325Z" fill="#FFCF54" fill-opacity="0.8"/>
<path d="M283.815 374.403C283.71 374.013 283.309 373.781 282.918 373.886L236.964 386.199C236.573 386.304 236.342 386.705 236.446 387.096L238.719 395.58C238.824 395.97 239.225 396.202 239.616 396.097L285.57 383.784C285.961 383.679 286.193 383.278 286.088 382.887L283.815 374.403Z" fill="#50B2DC"/>
<path fill-rule="evenodd" clip-rule="evenodd" d="M262.665 393.715C260.256 394.227 259.731 397.381 258.894 399.748C258.144 401.865 257.432 404.049 258.26 406.159C259.21 408.576 260.949 410.987 263.457 411.364C265.888 411.729 267.779 409.612 269.501 407.847C271.01 406.301 272.524 404.496 272.302 402.302C272.091 400.207 270.036 399.099 268.477 397.71C266.624 396.059 265.045 393.209 262.665 393.715Z" fill="#FFCF54"/>
<path fill-rule="evenodd" clip-rule="evenodd" d="M260.553 398.826C257.387 399.793 255.775 403.825 256 408.225C256.203 412.204 258.551 415.67 261.5 417.371C264.521 419.113 267.89 419.047 269.753 416.157C271.853 412.899 272.341 407.943 270.19 403.89C267.969 399.707 263.964 397.784 260.553 398.826Z" fill="#FFCF54" fill-opacity="0.3"/>
<defs>
<clipPath id="clip0_1110_7019">
<rect width="67.1" height="71.92" fill="white" transform="translate(297.921 215.587)"/>
</clipPath>
</defs>
</svg>
