<svg width="380" height="487" viewBox="0 0 380 487" fill="none" xmlns="http://www.w3.org/2000/svg">
<path fill-rule="evenodd" clip-rule="evenodd" d="M240.793 396.942C243.785 397.019 246.139 399.379 246.973 402.302C247.727 404.946 246.487 407.63 244.307 409.263C242.075 410.935 239.116 411.484 236.811 409.917C234.213 408.15 232.625 404.987 233.556 401.953C234.517 398.821 237.567 396.858 240.793 396.942Z" fill="#FFCF54"/>
<path fill-rule="evenodd" clip-rule="evenodd" d="M234.841 469.412C230.79 469.203 227.222 472.209 226.16 476.048C225.228 479.417 227.808 482.365 230.691 484.414C233.561 486.453 237.327 488.08 240.17 486.005C242.953 483.975 242.139 480.065 241.097 476.82C240.012 473.44 238.451 469.599 234.841 469.412Z" fill="#B1AFA9" fill-opacity="0.3"/>
<path fill-rule="evenodd" clip-rule="evenodd" d="M234.734 460.618C236.95 459.543 239.301 461.709 241.416 463.062C243.308 464.273 245.211 465.558 245.853 467.732C246.589 470.224 246.697 473.194 244.95 475.032C243.255 476.813 240.463 476.304 238.02 475.969C235.879 475.676 233.576 475.181 232.403 473.313C231.283 471.53 232.224 469.394 232.601 467.34C233.05 464.899 232.546 461.68 234.734 460.618Z" fill="#B1AFA9" fill-opacity="0.5"/>
<path fill-rule="evenodd" clip-rule="evenodd" d="M230.192 455.532C228.83 456.479 229.327 458.576 229.424 460.265C229.512 461.776 229.639 463.318 230.705 464.413C231.926 465.667 233.636 466.71 235.292 466.29C236.898 465.882 237.52 464.073 238.129 462.527C238.663 461.172 239.132 459.656 238.421 458.35C237.743 457.104 236.177 456.952 234.846 456.497C233.263 455.955 231.538 454.597 230.192 455.532Z" fill="#B1AFA9"/>
<path d="M220.332 388.145C215.476 391.849 211.389 396.997 209.596 402.88C206.728 412.295 208.917 417.962 213.577 425.231C216.28 429.447 217.21 439.318 218.11 438.444C218.613 437.956 220.789 432.195 220.96 432.874C221.26 434.061 221.058 439.411 221.321 440.626C221.924 443.41 222.654 447.084 224.53 449.54C226.563 453.584 226.463 436.343 226.731 435.75C227.14 434.847 227.763 441.312 227.917 442.006C228.521 444.729 228.885 447.484 229.486 450.206C229.843 451.821 230.834 460.707 232.503 461.734C233.474 462.331 232.713 457.561 233.842 451.76C234.711 447.294 235.231 446.371 236.327 443.455C236.53 442.916 237.5 439.747 237.795 440.481C238.748 442.858 238.844 445.45 239.419 447.926C239.726 449.244 239.959 451.181 240.355 448.234C240.556 439.344 243.669 430.927 244.047 422.095C244.298 416.217 243.835 410.31 243.115 404.483C242.273 397.665 239.994 385.982 231.651 384.862C229.871 384.623 228.375 384.25 226.658 384.893C224.366 385.75 222.28 386.659 220.332 388.145Z" fill="#E14F60"/>
<path fill-rule="evenodd" clip-rule="evenodd" d="M248.307 390.889C249.409 387.43 250.001 383.649 249.967 379.693C249.827 363.347 239.063 350.188 225.926 350.3C212.789 350.413 202.253 363.755 202.393 380.101C202.427 384.057 203.083 387.827 204.245 391.267L248.307 390.889Z" fill="#141B4D"/>
<path fill-rule="evenodd" clip-rule="evenodd" d="M281.822 335.606C284.115 332.214 281.397 328.138 277.303 328.138H175.695C171.601 328.138 168.883 332.214 171.176 335.606C180.751 349.768 201.921 363.75 226.499 363.75C251.077 363.75 272.247 349.768 281.822 335.606Z" fill="#40DA6B"/>
<path fill-rule="evenodd" clip-rule="evenodd" d="M207.398 407.194C210.528 407.046 213.285 409.176 214.106 411.895C214.826 414.281 212.832 416.369 210.604 417.82C208.387 419.265 205.477 420.417 203.28 418.948C201.129 417.509 201.758 414.74 202.563 412.442C203.402 410.047 204.608 407.327 207.398 407.194Z" fill="#FFCF54" fill-opacity="0.8"/>
<path fill-rule="evenodd" clip-rule="evenodd" d="M242.961 422.656C239.86 422.201 236.901 424.184 235.81 426.971C234.852 429.418 236.627 431.809 238.698 433.55C240.759 435.284 243.54 436.776 245.876 435.437C248.161 434.125 247.815 431.146 247.245 428.647C246.651 426.043 245.725 423.061 242.961 422.656Z" fill="#FFCF54" fill-opacity="0.8"/>
<path d="M201.812 383.034C201.812 382.63 202.14 382.302 202.544 382.302H250.12C250.524 382.302 250.852 382.63 250.852 383.034V391.817C250.852 392.222 250.524 392.549 250.12 392.549H202.544C202.14 392.549 201.812 392.222 201.812 391.817V383.034Z" fill="#50B2DC"/>
<path fill-rule="evenodd" clip-rule="evenodd" d="M227.24 396.215C229.699 396.086 231.023 398.996 232.444 401.065C233.716 402.917 234.97 404.842 234.715 407.094C234.424 409.675 233.368 412.454 231.043 413.467C228.789 414.449 226.415 412.893 224.295 411.634C222.437 410.532 220.507 409.18 220.153 407.003C219.816 404.925 221.514 403.323 222.66 401.578C224.023 399.503 224.811 396.342 227.24 396.215Z" fill="#FFCF54"/>
<path fill-rule="evenodd" clip-rule="evenodd" d="M230.603 400.605C233.911 400.72 236.512 404.197 237.434 408.505C238.267 412.401 236.897 416.356 234.488 418.762C232.021 421.227 228.75 422.036 226.202 419.726C223.331 417.123 221.576 412.461 222.605 407.991C223.667 403.375 227.038 400.481 230.603 400.605Z" fill="#FFCF54" fill-opacity="0.3"/>
<path fill-rule="evenodd" clip-rule="evenodd" d="M185.586 84.5466L164.36 63.3206L168.501 59.1802L189.727 80.4062L185.586 84.5466Z" fill="#141B4D"/>
<path fill-rule="evenodd" clip-rule="evenodd" d="M279.825 81.281L303.823 63.2215L307.344 67.9001L283.346 85.9596L279.825 81.281Z" fill="#141B4D"/>
<path fill-rule="evenodd" clip-rule="evenodd" d="M298.41 121.084C304.191 141.423 288.969 160.953 267.965 163.391L171.374 174.604C146.573 177.484 127.617 155.669 140.701 134.404C163.891 96.7103 203.047 61.0278 235.652 57.2428C269.798 53.2789 288.237 85.2893 298.41 121.084Z" fill="#50B2DC"/>
<path fill-rule="evenodd" clip-rule="evenodd" d="M288.424 126.363C291.813 140.046 281.769 153.022 267.767 154.648L168.81 166.135C152.276 168.055 139.355 153.504 147.243 138.847C166.078 103.851 202.818 68.3602 232.987 64.8579C264.351 61.2169 280.193 93.1273 288.424 126.363Z" fill="#141B4D"/>
<path fill-rule="evenodd" clip-rule="evenodd" d="M255.666 106.81L256.7 143.914C256.773 146.523 253.046 147.058 252.382 144.534L245.674 119.021L243.912 125.441C243.675 126.304 242.937 126.938 242.047 127.041L198.673 132.076C198.131 132.139 197.585 131.998 197.142 131.68L192.837 128.599L191.021 153.167C190.834 155.687 187.238 155.95 186.688 153.484L177.999 114.571L174.345 133.359C174.163 134.298 173.393 135.011 172.443 135.121L149.565 137.777L149.228 134.869L171.574 132.275L175.794 110.572C176.248 108.236 179.574 108.19 180.092 110.512L188.466 148.013L190.013 127.083C190.14 125.374 192.088 124.462 193.481 125.46L198.616 129.135L241.219 124.19L243.571 115.619C244.165 113.454 247.242 113.47 247.812 115.641L253.597 137.64L252.595 101.721C252.524 99.1796 256.108 98.57 256.882 100.992L263.464 121.607L286.865 118.891L287.203 121.799L263.203 124.585C262.16 124.706 261.177 124.072 260.858 123.072L255.666 106.81Z" fill="#40DA6B"/>
<path d="M174.485 59.4211C174.485 64.4741 170.553 68.5703 165.702 68.5703C160.851 68.5703 156.919 64.4741 156.919 59.4211C156.919 54.3682 160.851 50.272 165.702 50.272C170.553 50.272 174.485 54.3682 174.485 59.4211Z" fill="#50B2DC"/>
<path d="M319.407 63.0813C319.407 68.1342 315.311 72.2304 310.258 72.2304C305.205 72.2304 301.109 68.1342 301.109 63.0813C301.109 58.0283 305.205 53.9321 310.258 53.9321C315.311 53.9321 319.407 58.0283 319.407 63.0813Z" fill="#50B2DC"/>
<path d="M218.458 6.48012C218.613 5.89061 219.378 5.7374 219.748 6.22191L260.529 59.6599C260.763 59.9663 260.716 60.4046 260.423 60.6555C243.777 74.9327 225.495 77.7525 201.312 75.1156C200.868 75.0673 200.568 74.6352 200.681 74.2039L218.458 6.48012Z" fill="#FF9737"/>
<path fill-rule="evenodd" clip-rule="evenodd" d="M328.548 246.918C329.174 248.186 329.745 249.343 330.268 250.36L318.55 256.383C317.908 255.133 317.249 253.807 316.561 252.424C312.643 244.541 307.815 234.827 300.1 227.166C291.549 218.675 279.429 212.764 260.326 217.134L257.388 204.29C281.276 198.827 297.915 206.429 309.383 217.818C318.802 227.17 324.706 239.132 328.548 246.918Z" fill="#141B4D"/>
<path fill-rule="evenodd" clip-rule="evenodd" d="M318.835 240.248C304.299 249.024 300.699 267.523 309.324 281.808C311.364 285.187 313.443 287.847 316.25 288.806C319.255 289.831 322.086 288.598 324.525 287.274C328.289 285.23 327.675 280.32 324.807 278.368C318.356 273.976 316.656 269.486 316.884 265.983C317.123 262.311 319.524 258.835 322.956 256.689C326.399 254.536 330.298 254.069 333.275 255.551C336.139 256.977 339.109 260.706 339.665 269.06C339.827 271.486 341.787 273.958 344.753 273.94C351.273 273.901 357.596 272.267 361.18 268.168C363.047 266.033 364.049 263.348 363.959 260.261C363.871 257.246 362.75 254.005 360.686 250.587C351.984 236.175 333.247 231.546 318.835 240.248Z" fill="#E14F60"/>
<path fill-rule="evenodd" clip-rule="evenodd" d="M122.113 246.916C121.488 248.184 120.916 249.341 120.394 250.358L132.111 256.381C132.754 255.131 133.413 253.805 134.1 252.422C138.019 244.539 142.847 234.825 150.562 227.164C159.113 218.673 171.233 212.762 190.336 217.132L193.274 204.288C169.386 198.825 152.747 206.427 141.278 217.816C131.86 227.168 125.956 239.13 122.113 246.916Z" fill="#141B4D"/>
<path fill-rule="evenodd" clip-rule="evenodd" d="M89.9758 250.585C98.6776 236.173 117.415 231.544 131.827 240.246C146.363 249.022 149.963 267.521 141.338 281.806C139.298 285.185 137.219 287.846 134.412 288.804C131.406 289.83 128.576 288.596 126.137 287.272C122.373 285.228 122.987 280.318 125.855 278.366C132.306 273.974 134.006 269.484 133.778 265.982C133.539 262.309 131.138 258.833 127.706 256.687C124.263 254.535 120.364 254.067 117.387 255.549C114.523 256.975 111.553 260.704 110.996 269.058C110.835 271.484 108.875 273.957 105.909 273.938C99.3884 273.899 93.0654 272.265 89.4817 268.166C87.6153 266.031 86.6127 263.346 86.7029 260.259C86.7909 257.244 87.912 254.003 89.9758 250.585Z" fill="#E14F60"/>
<path d="M81.5458 190.153C80.2532 187.865 81.0598 184.963 83.3474 183.67C85.635 182.378 88.5373 183.184 89.8299 185.472L135.558 266.402C136.851 268.689 136.044 271.592 133.757 272.884C131.469 274.177 128.567 273.37 127.274 271.082L81.5458 190.153Z" fill="#141B4D"/>
<path d="M127.232 147.524C142.445 174.447 132.952 208.605 106.029 223.818C79.1053 239.03 44.9473 229.537 29.7345 202.614C14.5218 175.69 24.0151 141.532 50.9384 126.32C77.8617 111.107 112.02 120.6 127.232 147.524Z" fill="#40DA6B"/>
<path d="M106.838 159.047C115.687 174.708 110.165 194.578 94.5035 203.427C78.8422 212.276 58.9725 206.754 50.1233 191.093C41.2741 175.431 46.7963 155.562 62.4576 146.712C78.1189 137.863 97.9886 143.385 106.838 159.047Z" fill="white"/>
<path d="M53.0907 218.087L59.1892 209.807L62.4812 211.287L60.877 221.024L59.5446 220.76L59.4556 218.085L55.6349 216.994L54.4048 218.821L53.0907 218.087ZM59.1401 211.793L56.2902 216.016L59.4276 217.231L59.2515 211.835L59.1401 211.793Z" fill="#141B4D"/>
<path d="M67.9256 213.05C69.3553 212.756 70.7756 212.687 72.1864 212.841C73.5972 212.995 74.6566 213.35 75.3646 213.906C75.4841 214.459 75.5174 214.976 75.4647 215.46C75.3409 216.594 74.7684 217.495 73.7472 218.163C72.727 218.82 71.4587 219.236 69.9422 219.41L69.2253 222.686L67.7293 222.672L67.9256 213.05ZM72.5617 215.577C72.6446 214.818 72.3957 214.216 71.815 213.774C71.6375 213.754 71.4166 213.765 71.1526 213.806L70.1556 218.415C70.8356 218.129 71.3888 217.725 71.8152 217.203C72.2515 216.681 72.5003 216.14 72.5617 215.577Z" fill="#141B4D"/>
<path d="M79.0166 213.689C80.328 213.048 81.686 212.627 83.0907 212.424C84.4953 212.221 85.6098 212.301 86.4342 212.664C86.6876 213.169 86.849 213.662 86.9184 214.143C87.0814 215.273 86.7517 216.288 85.9291 217.189C85.105 218.08 83.9804 218.798 82.5552 219.345L82.6779 222.697L81.2257 223.056L79.0166 213.689ZM84.1364 214.981C84.0273 214.224 83.6363 213.704 82.9636 213.42C82.7868 213.446 82.5757 213.511 82.3302 213.617L82.5138 218.328C83.1012 217.883 83.5363 217.353 83.8189 216.741C84.1114 216.127 84.2172 215.541 84.1364 214.981Z" fill="#141B4D"/>
<path d="M94.9628 215.507C94.8226 215.632 94.7024 215.717 94.6023 215.76L95.7266 219.362L94.4201 220.091L89.8262 211.634C90.2416 211.269 90.8177 210.852 91.5545 210.381C92.3004 209.906 93.0376 209.51 93.7659 209.194C94.9313 208.689 95.9593 208.502 96.85 208.635C97.2272 209.056 97.5046 209.471 97.6824 209.881C98.18 211.028 97.9307 212.261 96.9344 213.58L101.119 216.942L100.394 217.889L94.9628 215.507ZM95.2065 211.393C94.9261 210.746 94.424 210.375 93.7003 210.277C93.4818 210.372 93.2558 210.524 93.0221 210.734L94.3187 214.845C94.8245 214.29 95.1522 213.699 95.3019 213.072C95.4477 212.435 95.4159 211.875 95.2065 211.393Z" fill="#141B4D"/>
<path d="M110.049 206.88C110.424 207.355 110.698 207.783 110.873 208.164C111.041 208.537 111.119 208.924 111.107 209.326C111.074 210.085 110.497 210.907 109.375 211.793C108.261 212.672 107.197 213.102 106.182 213.081C105.533 212.532 104.956 211.937 104.452 211.299C103.431 210.006 102.759 208.658 102.437 207.257C102.122 205.849 102.118 204.675 102.427 203.737C103.633 203.391 104.942 203.495 106.354 204.05C107.759 204.597 108.991 205.54 110.049 206.88ZM108.22 207.47C107.273 206.271 106.262 205.399 105.188 204.856C104.98 206.146 105.022 207.416 105.313 208.665C105.612 209.909 106.109 210.971 106.804 211.851C107.111 211.696 107.448 211.474 107.815 211.185C108.531 210.62 109.076 210.044 109.448 209.459C109.109 208.741 108.699 208.078 108.22 207.47Z" fill="#141B4D"/>
<path d="M109.77 197.104L116.422 200.717L116.504 200.611L111.908 194.335L113.009 193.493L118.588 201.882L117.946 203.079L108.004 200.048L109.77 197.104Z" fill="#141B4D"/>
<path d="M123.398 194.644L115.4 188.181L117.026 184.959L126.681 186.997L126.358 188.317L123.682 188.286L122.421 192.054L124.191 193.364L123.398 194.644ZM117.382 188.319L121.473 191.355L122.828 188.275L117.429 188.21L117.382 188.319Z" fill="#141B4D"/>
<path d="M129.285 174.978L128.496 180.446L118.706 179.5L119.077 175.969L127.602 178.498L127.783 174.663L129.285 174.978Z" fill="#141B4D"/>
<path d="M33.4167 171.21C32.0514 170.903 30.9559 169.894 30.13 168.182L32.4994 165.922C32.9848 167.293 33.6487 168.073 34.4912 168.262C34.8494 168.343 35.2543 168.306 35.7057 168.154C36.1571 168.001 36.6036 167.847 37.0454 167.692C37.4893 167.527 37.8807 167.483 38.2196 167.559C39.6236 167.875 40.4905 169.087 40.8202 171.195L39.7194 171.68C39.5646 171.147 39.3868 170.761 39.1861 170.523C38.9854 170.284 38.7398 170.132 38.4493 170.067C38.1588 170.002 37.8083 170.045 37.3978 170.197C36.9798 170.337 36.5902 170.509 36.2291 170.713C35.8702 170.907 35.4322 171.067 34.9152 171.195C34.4004 171.314 33.9009 171.318 33.4167 171.21Z" fill="#141B4D"/>
<path d="M45.4872 157.688L42.9519 162.929L33.902 159.078L36.7106 153.14L37.5779 153.635L36.4766 156.6L39.0425 158.35L40.4621 155.514L41.6884 156.059L39.9288 158.938L42.6999 160.81L44.1498 156.936L45.4872 157.688Z" fill="#141B4D"/>
<path d="M47.2543 153.967L41.9752 145.142L44.6131 142.678L52.9728 147.921L52.2143 149.048L49.7131 148.096L47.2299 151.198L48.4395 153.039L47.2543 153.967ZM43.788 145.955L46.5813 150.216L48.9149 147.792L43.8699 145.868L43.788 145.955Z" fill="#141B4D"/>
<path d="M61.4635 142.182L56.8099 145.16L51.1262 137.133L54.0404 135.105L57.6998 143.21L60.7196 140.84L61.4635 142.182Z" fill="#141B4D"/>
<path d="M85.5547 133.838C85.5747 134.443 85.5418 134.95 85.4561 135.36C85.37 135.76 85.2031 136.118 84.9553 136.434C84.4784 137.026 83.5258 137.345 82.0974 137.393C80.679 137.439 79.5673 137.153 78.7624 136.535C78.5662 135.707 78.4547 134.886 78.4279 134.073C78.3735 132.427 78.6323 130.943 79.2043 129.624C79.7863 128.304 80.4799 127.357 81.2852 126.784C82.4614 127.222 83.4531 128.083 84.2601 129.367C85.0668 130.641 85.4984 132.132 85.5547 133.838ZM83.7323 133.228C83.6818 131.7 83.3856 130.399 82.8437 129.325C81.9107 130.239 81.1906 131.286 80.6834 132.464C80.1861 133.643 79.956 134.792 79.993 135.913C80.3326 135.971 80.7354 135.993 81.2016 135.977C82.1142 135.947 82.894 135.807 83.5412 135.557C83.6941 134.778 83.7578 134.001 83.7323 133.228Z" fill="#141B4D"/>
<path d="M96.3504 136.049L93.5105 135.123L92.1209 138.877L90.5111 138.568L92.1172 128.865L98.55 130.192L98.2741 131.152L95.1328 130.782L93.8907 134.112L96.5903 134.728L96.3504 136.049Z" fill="#141B4D"/>
<path d="M91.7739 188.946C91.9514 189.146 92.8538 189.399 93.0927 189.489C93.6029 189.68 93.38 189.874 93.8935 189.839C95.1608 189.894 95.7904 189.764 98.0148 189.967C98.5542 190.016 99.0954 190.786 96.8228 191.881C94.3478 192.636 93.2627 190.76 92.4716 189.694C92.2834 189.441 91.3339 189.189 91.2752 188.884C91.2265 188.632 91.6561 188.812 91.7739 188.946Z" fill="#141B4D"/>
<path d="M108.168 175.711C109.049 177.512 100.455 183.525 88.9732 189.141C77.491 194.757 67.4687 197.849 66.5877 196.048C65.7066 194.247 74.3006 188.234 85.7827 182.618C97.2649 177.002 107.287 173.909 108.168 175.711Z" fill="#141B4D"/>
<path d="M110.334 160.741C110.524 159.036 109.967 156.874 110.363 155.277C111.75 153.493 116.365 150.26 115.2 147.998C114.522 146.681 109.664 149.947 108.855 150.713C108.177 151.355 107.231 152.553 106.105 152.039C104.198 151.169 100.315 147.586 97.6481 151.114C96.6509 152.559 100.732 153.614 101.72 154.498C105.533 157.908 104.025 162.919 101.325 166.66C100.148 168.291 97.2421 169.535 95.3955 170.207C92.3997 171.298 89.1906 172.028 86.1428 172.997C82.748 174.076 80.5323 171.804 78.2647 169.685C72.9568 164.725 65.072 160.547 62.1521 168.13C59.7378 175.908 69.524 186.291 75.796 188.476C85.1208 191.726 88.1268 188.121 96.2847 183.92C105.11 179.376 109.264 170.312 110.334 160.741Z" fill="#50B2DC"/>
<path fill-rule="evenodd" clip-rule="evenodd" d="M62.8438 168.37C61.7595 171.905 63.4175 176.178 66.2985 179.956C69.1701 183.722 73.0762 186.753 76.0367 187.785C80.5744 189.367 83.485 189.257 86.2376 188.301C87.642 187.813 89.0272 187.097 90.5964 186.222C91.0158 185.988 91.4488 185.743 91.8979 185.488C93.1148 184.798 94.4493 184.042 95.9494 183.269C104.476 178.878 108.552 170.093 109.606 160.659C109.682 159.983 109.627 159.22 109.566 158.371C109.558 158.255 109.549 158.138 109.541 158.019C109.476 157.078 109.423 156.027 109.653 155.1L109.69 154.95L109.785 154.827C110.171 154.332 110.762 153.756 111.359 153.179C111.396 153.143 111.433 153.107 111.47 153.071C112.052 152.509 112.659 151.923 113.194 151.327C113.769 150.688 114.219 150.084 114.463 149.54C114.679 149.055 114.699 148.702 114.589 148.421C114.516 148.418 114.391 148.427 114.204 148.471C113.734 148.582 113.105 148.855 112.421 149.22C111.051 149.951 109.697 150.923 109.358 151.244C109.295 151.303 109.221 151.379 109.136 151.464C108.855 151.746 108.464 152.138 108.061 152.414C107.494 152.801 106.695 153.113 105.801 152.705C105.392 152.518 104.9 152.219 104.404 151.917C104.262 151.83 104.119 151.744 103.978 151.659C103.311 151.26 102.613 150.871 101.91 150.615C101.207 150.358 100.554 150.254 99.9633 150.367C99.398 150.475 98.811 150.795 98.2433 151.54C98.2355 151.552 98.2306 151.561 98.2275 151.568C98.2343 151.583 98.2513 151.616 98.2916 151.665C98.4517 151.861 98.7866 152.099 99.2894 152.373C99.6442 152.566 100.024 152.747 100.408 152.93C100.554 153 100.7 153.07 100.846 153.141C101.331 153.376 101.871 153.651 102.208 153.952C104.314 155.835 104.953 158.186 104.692 160.535C104.436 162.85 103.312 165.157 101.918 167.088C101.231 168.04 100.091 168.823 98.96 169.436C97.811 170.059 96.5854 170.553 95.6457 170.895C94.1207 171.45 92.5474 171.912 90.9874 172.352C90.6821 172.438 90.3776 172.524 90.074 172.609C88.8188 172.961 87.5795 173.308 86.3643 173.695C84.4446 174.305 82.834 173.96 81.4265 173.181C80.1891 172.496 79.0866 171.461 78.0659 170.502C77.9647 170.407 77.8643 170.313 77.7647 170.22C75.1432 167.77 71.9579 165.588 69.1426 164.916C67.7491 164.583 66.5086 164.634 65.474 165.135C64.4529 165.63 63.5242 166.615 62.8438 168.37ZM98.2227 151.58C98.2226 151.58 98.2228 151.579 98.2237 151.577C98.2233 151.579 98.2228 151.58 98.2227 151.58ZM69.4828 163.492C72.6668 164.253 76.0779 166.64 78.7642 169.15C78.8594 169.239 78.9537 169.328 79.0474 169.416C80.0988 170.401 81.067 171.309 82.1351 171.9C83.2512 172.517 84.4458 172.769 85.9208 172.3C87.1625 171.905 88.4323 171.549 89.6896 171.196C89.9904 171.112 90.2906 171.028 90.5895 170.943C92.1449 170.504 93.6741 170.055 95.1449 169.519C96.0517 169.189 97.2024 168.724 98.2622 168.149C99.3399 167.565 100.241 166.91 100.731 166.232C102.038 164.422 103.018 162.352 103.237 160.374C103.453 158.43 102.939 156.57 101.232 155.043C101.075 154.903 100.734 154.714 100.207 154.458C100.082 154.397 99.9488 154.334 99.8108 154.268C99.4161 154.08 98.9817 153.872 98.5894 153.659C98.0731 153.378 97.5129 153.026 97.1574 152.591C96.9718 152.363 96.8062 152.07 96.7683 151.716C96.7287 151.346 96.8375 150.999 97.0456 150.698L97.0545 150.685L97.0641 150.672C97.8261 149.664 98.7205 149.114 99.6891 148.929C100.636 148.748 101.573 148.933 102.412 149.24C103.252 149.546 104.049 149.996 104.73 150.403C104.906 150.508 105.071 150.609 105.226 150.703C105.702 150.992 106.086 151.226 106.409 151.373C106.641 151.479 106.877 151.449 107.235 151.205C107.514 151.014 107.75 150.778 108.007 150.52C108.116 150.411 108.229 150.297 108.351 150.181C108.822 149.736 110.301 148.692 111.732 147.928C112.448 147.546 113.211 147.201 113.868 147.046C114.193 146.97 114.553 146.924 114.894 146.984C115.26 147.049 115.637 147.248 115.851 147.663C116.282 148.5 116.14 149.376 115.799 150.138C115.461 150.892 114.889 151.631 114.283 152.306C113.711 152.942 113.07 153.561 112.496 154.116C112.456 154.154 112.416 154.193 112.377 154.231C111.818 154.771 111.352 155.228 111.04 155.603C110.911 156.246 110.94 157.023 111.002 157.918C111.009 158.03 111.018 158.144 111.026 158.26C111.087 159.09 111.153 160.001 111.061 160.822C109.976 170.53 105.743 179.873 96.6196 184.571C95.1477 185.329 93.8521 186.063 92.6423 186.749C92.1874 187.007 91.7447 187.258 91.3093 187.501C89.729 188.382 88.2503 189.151 86.7179 189.684C83.5968 190.768 80.342 190.836 75.5549 189.168C72.2434 188.013 68.1204 184.76 65.1344 180.844C62.1642 176.948 60.1372 172.151 61.4529 167.913L61.4601 167.89L61.4688 167.867C62.2476 165.844 63.3958 164.515 64.8358 163.817C66.2667 163.124 67.8766 163.108 69.4828 163.492Z" fill="#50B2DC"/>
<path d="M69.8537 191.96C70.2218 191.268 72.4953 187.976 72.4494 186.609L75.288 188.282L77.8157 189.256C76.5667 191.729 70.4853 195.218 67.5679 195.782C66.2258 196.042 69.4074 192.799 69.8537 191.96Z" fill="#50B2DC"/>
<path fill-rule="evenodd" clip-rule="evenodd" d="M71.674 185.301L75.6072 187.62L78.8335 188.862L78.468 189.586C78.0909 190.332 77.3906 191.089 76.5749 191.794C75.7462 192.51 74.7436 193.218 73.6986 193.859C71.6287 195.129 69.2911 196.195 67.7057 196.501C67.5771 196.526 67.4076 196.545 67.2287 196.51C67.0324 196.473 66.795 196.362 66.6413 196.114C66.5007 195.887 66.4995 195.655 66.5161 195.513C66.5332 195.366 66.5783 195.234 66.6211 195.131C66.781 194.746 67.1294 194.264 67.4626 193.834C67.7206 193.501 68.012 193.145 68.2803 192.818C68.375 192.702 68.4667 192.591 68.5531 192.484C68.9122 192.043 69.1386 191.747 69.2086 191.615C69.2974 191.448 69.473 191.165 69.6743 190.841C69.7152 190.775 69.7572 190.707 69.7997 190.638C70.0627 190.213 70.3735 189.704 70.6702 189.178C70.9682 188.649 71.2436 188.116 71.44 187.643C71.6472 187.144 71.7245 186.807 71.7187 186.634L71.674 185.301ZM70.9052 191.631C70.7028 191.957 70.5626 192.184 70.4989 192.303C70.3458 192.591 70.007 193.015 69.686 193.41C69.5919 193.525 69.4951 193.643 69.3974 193.763C69.1346 194.083 68.8651 194.412 68.622 194.726C69.8777 194.286 71.4479 193.522 72.9363 192.61C73.9324 191.999 74.8667 191.336 75.6207 190.684C76.061 190.304 76.4226 189.942 76.6976 189.61L74.9688 188.944L72.9599 187.76C72.9079 187.911 72.85 188.061 72.79 188.205C72.5614 188.756 72.254 189.346 71.9434 189.897C71.6314 190.451 71.3077 190.98 71.0424 191.409C70.994 191.487 70.9482 191.561 70.9052 191.631ZM67.9622 195.716C67.9621 195.717 67.9622 195.716 67.9622 195.716V195.716Z" fill="#50B2DC"/>
<path d="M81.1664 189.973C84.0988 192.318 90.1306 194.065 96.7435 191.095C97.9965 190.673 90.7385 189.508 90.6659 187.258C87.4021 188.897 85.336 189.509 81.1664 189.973Z" fill="#50B2DC"/>
<path fill-rule="evenodd" clip-rule="evenodd" d="M91.3593 186.085L90.3309 186.602C87.15 188.2 85.1677 188.789 81.0757 189.244L79.3337 189.438L80.7152 190.543C83.8577 193.055 90.1696 194.842 97.0236 191.776C97.0871 191.753 97.1612 191.72 97.235 191.673C97.3197 191.619 97.4537 191.515 97.5411 191.334C97.7731 190.856 97.4527 190.478 97.351 190.379C97.229 190.26 97.0821 190.178 96.9806 190.126C96.8652 190.066 96.7333 190.009 96.5974 189.954C96.3239 189.844 95.9367 189.708 95.5166 189.56C95.1683 189.437 94.7974 189.306 94.4497 189.176C93.6243 188.866 92.8121 188.519 92.2116 188.132C91.5609 187.713 91.4019 187.405 91.3967 187.244L91.3593 186.085ZM90.2638 188.276C90.5601 188.732 91.0122 189.091 91.4331 189.362C92.1747 189.839 93.1122 190.232 93.9539 190.547C94.3822 190.708 94.7661 190.843 95.1059 190.962C95.1059 190.962 95.106 190.962 95.1061 190.962C90.3412 192.663 86.0343 191.889 83.2417 190.444C85.9894 190.026 87.8553 189.432 90.2638 188.276ZM96.5015 190.4C96.5033 190.4 96.503 190.4 96.5009 190.4L96.5015 190.4Z" fill="#50B2DC"/>
<path fill-rule="evenodd" clip-rule="evenodd" d="M71.2597 172.192C71.4564 172.145 71.6545 172.267 71.702 172.463C71.9256 173.386 71.7849 174.339 71.1643 175.021C70.541 175.706 69.5062 176.04 68.1091 175.881C67.9079 175.858 67.7629 175.677 67.7853 175.477C67.8076 175.276 67.9888 175.132 68.19 175.155C69.4396 175.297 70.2059 174.985 70.6206 174.529C71.0379 174.07 71.172 173.387 70.9894 172.632C70.9419 172.436 71.0629 172.239 71.2597 172.192Z" fill="#141B4D"/>
<path fill-rule="evenodd" clip-rule="evenodd" d="M65.3045 175.219C65.0779 175.589 65.0317 176.036 65.039 176.305C65.0445 176.507 64.885 176.675 64.6828 176.68C64.4806 176.685 64.3122 176.526 64.3067 176.324C64.2974 175.982 64.35 175.374 64.6794 174.836C65.0251 174.272 65.6499 173.829 66.6777 173.817C66.8799 173.815 67.0461 173.976 67.0489 174.178C67.0516 174.38 66.8899 174.546 66.6876 174.548C65.9031 174.558 65.5147 174.875 65.3045 175.219Z" fill="#141B4D"/>
<path fill-rule="evenodd" clip-rule="evenodd" d="M70.6479 169.873C70.4158 170.17 70.3579 170.565 70.3304 170.864C70.312 171.065 70.1336 171.212 69.932 171.193C69.7304 171.173 69.5819 170.995 69.6003 170.794C69.6283 170.489 69.6947 169.9 70.0685 169.422C70.4677 168.911 71.1508 168.602 72.2363 168.727C72.4375 168.751 72.5826 168.932 72.5604 169.132C72.5381 169.333 72.357 169.477 72.1558 169.453C71.2591 169.35 70.8546 169.608 70.6479 169.873Z" fill="#141B4D"/>
<path fill-rule="evenodd" clip-rule="evenodd" d="M69.0671 173.253C69.1405 173.184 69.2564 173.187 69.326 173.26C69.4647 173.407 69.576 173.536 69.677 173.654C70.0046 174.035 70.2247 174.29 70.9222 174.593C71.0151 174.633 71.0577 174.741 71.0175 174.834C70.9773 174.926 70.8695 174.969 70.7767 174.928C69.9974 174.59 69.7223 174.27 69.382 173.873C69.2845 173.76 69.1817 173.64 69.0601 173.511C68.9905 173.438 68.9936 173.322 69.0671 173.253Z" fill="#141B4D"/>
<path fill-rule="evenodd" clip-rule="evenodd" d="M72.8347 170.876C72.7608 170.807 72.7568 170.691 72.8257 170.618C73.1887 170.229 73.6953 169.861 74.21 169.528C74.5465 169.31 74.8954 169.102 75.2148 168.912C75.3825 168.811 75.5421 168.716 75.6874 168.627C75.7735 168.574 75.8862 168.601 75.939 168.687C75.9919 168.774 75.9649 168.886 75.8787 168.939C75.7258 169.033 75.5624 169.13 75.3928 169.231C75.0774 169.42 74.7405 169.621 74.4087 169.835C73.8999 170.164 73.4245 170.512 73.0933 170.867C73.0244 170.941 72.9086 170.945 72.8347 170.876Z" fill="#141B4D"/>
<path fill-rule="evenodd" clip-rule="evenodd" d="M73.0757 171.471C73.0194 171.387 73.0418 171.274 73.1257 171.217C73.5676 170.921 74.1446 170.678 74.7214 170.471C75.0985 170.335 75.4857 170.212 75.84 170.099C76.0261 170.039 76.2031 169.983 76.3648 169.929C76.4607 169.897 76.5643 169.949 76.5962 170.045C76.6281 170.141 76.5762 170.245 76.4803 170.277C76.31 170.333 76.1288 170.391 75.9406 170.451C75.5907 170.562 75.2169 170.681 74.8451 170.815C74.2749 171.02 73.7327 171.251 73.3296 171.521C73.2457 171.578 73.132 171.555 73.0757 171.471Z" fill="#141B4D"/>
<path fill-rule="evenodd" clip-rule="evenodd" d="M67.1505 176.535C67.0905 176.454 66.976 176.436 66.8946 176.496C66.4662 176.812 66.0422 177.272 65.6521 177.745C65.397 178.054 65.1498 178.377 64.9237 178.672C64.8049 178.827 64.6919 178.974 64.5866 179.108C64.5241 179.188 64.5379 179.303 64.6174 179.365C64.6968 179.428 64.8119 179.414 64.8743 179.335C64.9852 179.193 65.1009 179.042 65.2209 178.886C65.4442 178.594 65.6828 178.283 65.9343 177.978C66.32 177.511 66.7208 177.079 67.1117 176.791C67.193 176.731 67.2104 176.616 67.1505 176.535Z" fill="#141B4D"/>
<path fill-rule="evenodd" clip-rule="evenodd" d="M67.7303 176.837C67.6457 176.782 67.5323 176.806 67.4771 176.89C67.1866 177.336 66.951 177.916 66.7515 178.496C66.621 178.875 66.5027 179.263 66.3944 179.619C66.3375 179.806 66.2834 179.984 66.2318 180.146C66.2012 180.242 66.2544 180.345 66.3507 180.376C66.447 180.407 66.5499 180.353 66.5805 180.257C66.6349 180.086 66.6903 179.904 66.7477 179.715C66.8546 179.364 66.9688 178.988 67.0975 178.615C67.2948 178.042 67.5186 177.497 67.7837 177.09C67.8389 177.006 67.815 176.892 67.7303 176.837Z" fill="#141B4D"/>
<path d="M69.3353 172.699C69.4654 172.865 69.4598 173.306 69.2708 173.457C69.0818 173.607 68.5827 173.569 68.4526 173.403C68.3225 173.236 68.5062 172.87 68.6952 172.72C68.8841 172.569 69.2051 172.532 69.3353 172.699Z" fill="#141B4D"/>
<path d="M78.0358 178.785C76.2399 180.193 74.9304 181.737 74.4788 184.01L74.0018 185.789C73.8662 186.295 73.1923 186.602 72.6727 186.536C70.8065 186.302 67.3575 186.738 66.5234 187.073C65.1288 187.633 64.0915 188.951 63.4133 190.243C62.5151 191.954 62.9854 194.37 64.616 195.5C68.2889 198.045 75.4874 198.088 80.1246 198.779C80.5066 198.836 80.8705 198.596 80.969 198.222C81.5627 195.972 82.3731 193.88 83.3526 191.739C84.3925 189.466 85.3159 187.16 86.0698 184.777C86.5566 183.238 86.7691 181.625 86.0336 180.127C85.309 178.651 83.6186 177.563 81.9997 177.434C80.4098 177.307 79.2606 177.826 78.0358 178.785Z" fill="#E14F60"/>
<path d="M68.9079 195.147C69.1813 195.908 68.4776 196.857 67.3363 197.267C66.195 197.677 65.0482 197.393 64.7749 196.632C64.5016 195.871 65.2052 194.922 66.3465 194.512C67.4878 194.102 68.6346 194.387 68.9079 195.147Z" fill="#50B2DC"/>
<path fill-rule="evenodd" clip-rule="evenodd" d="M158.329 289.961C155.286 306.656 168.83 321.088 185.8 321.088H266.87C283.84 321.088 297.383 306.656 294.341 289.961C284.047 233.473 257.482 184.949 226.335 184.949C195.187 184.949 168.623 233.473 158.329 289.961Z" fill="#50B2DC"/>
<path fill-rule="evenodd" clip-rule="evenodd" d="M260.051 204.707C259.852 205.163 259.659 205.627 259.465 206.091C258.289 208.903 257.105 211.737 254.572 213.171C251.273 215.039 246.714 214.86 242.341 214.688C236.456 214.458 230.907 214.24 229.221 219.041C227.604 223.642 232.269 226.356 237.259 229.26C240.861 231.355 244.631 233.549 246.332 236.622C247.8 239.275 247.541 242.723 247.29 246.066C246.971 250.31 246.665 254.385 249.924 256.445C253.389 258.635 257.205 256.539 261.175 254.358C263.827 252.901 266.547 251.407 269.277 251.126C271.943 250.851 274.853 251.773 277.685 252.669C280.418 253.535 283.078 254.377 285.378 254.1C278.779 234.264 270.107 217.001 260.051 204.707Z" fill="#40DA6B"/>
<path fill-rule="evenodd" clip-rule="evenodd" d="M210.907 293.722C212.322 289.806 219.911 287.418 217.922 283.749C215.821 279.874 209.162 284.403 205.02 282.862C202.223 281.821 201.774 277.404 198.883 276.664C195.755 275.862 192.152 276.831 189.723 278.943C187.31 281.042 186.165 284.438 186.274 287.631C186.37 290.461 189.471 292.191 190.268 294.911C191.226 298.182 188.558 302.8 191.312 304.824C193.99 306.793 197.469 302.83 200.788 302.643C204.189 302.451 208.154 305.979 210.703 303.732C213.272 301.467 209.745 296.939 210.907 293.722Z" fill="#FFCF54"/>
<path d="M361.611 250.935C358.115 245.119 352.824 240.596 346.535 238.048C340.246 235.499 333.3 235.063 326.741 236.805C326.521 236.872 326.284 236.86 326.071 236.773C325.858 236.685 325.681 236.527 325.571 236.325C323.81 233.157 321.891 230.08 319.821 227.105C316.653 222.533 312.965 218.345 308.831 214.625C305.341 219.495 302.151 224.765 297.921 228.905C300.63 231.491 303.069 234.346 305.201 237.425C307.182 240.265 308.998 243.216 310.641 246.265C310.739 246.44 310.782 246.64 310.764 246.84C310.746 247.04 310.668 247.229 310.541 247.385C302.691 257.335 301.921 271.525 308.921 283.025C309.564 284.114 310.269 285.166 311.031 286.175C311.125 286.284 311.242 286.372 311.373 286.433C311.504 286.493 311.647 286.525 311.791 286.525C311.936 286.525 312.079 286.493 312.21 286.433C312.341 286.372 312.458 286.284 312.551 286.175L320.861 275.175C321.011 274.995 321.093 274.768 321.093 274.535C321.093 274.301 321.011 274.074 320.861 273.895C319.132 271.945 318.213 269.409 318.291 266.805C318.496 265.056 319.106 263.38 320.073 261.91C321.04 260.439 322.337 259.215 323.861 258.335C327.071 256.335 330.581 255.965 333.141 257.255C335.061 258.255 337.241 260.475 338.341 265.405C338.388 265.648 338.523 265.866 338.72 266.016C338.918 266.165 339.164 266.236 339.411 266.215L364.051 264.325C364.263 264.304 364.462 264.216 364.621 264.074C364.779 263.931 364.888 263.743 364.931 263.535C365.058 262.711 365.108 261.877 365.081 261.045C364.816 257.432 363.621 253.949 361.611 250.935Z" fill="white"/>
<path d="M312.921 218.464C311.841 217.374 310.031 215.304 309.581 215.254L304.031 235.804C304.421 236.324 305.161 237.424 305.531 237.954C306.191 238.884 306.811 239.824 307.421 240.754L308.421 236.804L322.791 231.484C322.071 230.334 321.311 229.194 320.521 228.064L309.601 232.064L312.921 218.464Z" fill="#C0EDFF"/>
<path d="M304.031 267.805L318.141 266.935C318.267 265.477 318.718 264.065 319.461 262.805L304.141 263.805C304.02 265.134 303.983 266.47 304.031 267.805Z" fill="#C0EDFF"/>
<path fill-rule="evenodd" clip-rule="evenodd" d="M331.641 235.935C333.641 235.435 335.641 235.435 336.301 235.805L358.141 264.435C358.641 264.935 352.141 265.435 352.141 264.935L331.641 235.935Z" fill="#C0EDFF"/>
</svg>
