<svg width="323" height="487" viewBox="0 0 323 487" fill="none" xmlns="http://www.w3.org/2000/svg">
<path d="M120.795 244.85C119.99 243.356 118.088 242.856 116.653 243.763L73.6021 270.967C72.33 271.77 71.8744 273.408 72.5485 274.753L76.0142 281.67C76.7134 283.066 78.3843 283.667 79.8125 283.038L126.655 262.394C128.218 261.705 128.862 259.83 128.052 258.327L120.795 244.85Z" fill="#141B4D"/>
<path d="M87.5042 275.614C88.9912 274.887 89.5801 273.073 88.8036 271.611L50.7177 199.91C49.9837 198.528 48.2929 197.968 46.8788 198.638L45.0537 199.502C43.61 200.186 42.981 201.901 43.6401 203.356L77.1442 277.325C77.8253 278.829 79.6143 279.473 81.0973 278.748L87.5042 275.614Z" fill="#40DA6B"/>
<path d="M2.98364 182.327C4.63146 202.066 21.9688 216.732 41.7076 215.084C61.4465 213.436 76.1122 196.099 74.4643 176.36C72.8165 156.621 55.4792 141.956 35.7404 143.604C16.0015 145.251 1.33583 162.589 2.98364 182.327Z" fill="#141B4D"/>
<path d="M11.9539 184.148C13.1141 198.046 25.321 208.371 39.2187 207.211C53.1165 206.051 63.4423 193.844 62.2821 179.946C61.1219 166.049 48.915 155.723 35.0173 156.883C21.1195 158.043 10.7937 170.25 11.9539 184.148Z" fill="#C0EDFF"/>
<path d="M16.8062 176.487C17.193 181.12 21.2619 184.562 25.8945 184.175C30.5271 183.789 33.9691 179.72 33.5823 175.087C33.1956 170.454 29.1266 167.012 24.494 167.399C19.8615 167.786 16.4195 171.855 16.8062 176.487Z" fill="white"/>
<path d="M85.5713 272.49C85.5154 274.315 83.991 275.749 82.1663 275.693C80.3415 275.637 78.9076 274.113 78.9634 272.288C79.0192 270.463 80.5437 269.029 82.3684 269.085C84.1931 269.141 85.6271 270.665 85.5713 272.49Z" fill="#141B4D"/>
<path d="M37.3313 164.869C37.3313 167.093 35.5289 168.895 33.3057 168.895C31.0824 168.895 29.28 167.093 29.28 164.869C29.28 162.646 31.0824 160.844 33.3057 160.844C35.5289 160.844 37.3313 162.646 37.3313 164.869Z" fill="white"/>
<path fill-rule="evenodd" clip-rule="evenodd" d="M272.39 246.918C273.016 248.186 273.587 249.343 274.11 250.36L262.392 256.382C261.75 255.133 261.09 253.806 260.403 252.424C256.485 244.54 251.656 234.826 243.942 227.166C235.39 218.674 223.27 212.764 204.167 217.133L201.23 204.29C225.118 198.826 241.757 206.429 253.225 217.817C262.643 227.17 268.547 239.132 272.39 246.918Z" fill="#141B4D"/>
<path fill-rule="evenodd" clip-rule="evenodd" d="M253.165 281.808C244.54 267.522 248.141 249.024 262.676 240.247C277.088 231.546 295.826 236.175 304.528 250.587C306.591 254.005 307.712 257.245 307.801 260.261C307.891 263.348 306.888 266.032 305.022 268.167C301.438 272.267 295.115 273.9 288.594 273.94C285.629 273.958 283.669 271.485 283.507 269.06C282.95 260.706 279.98 256.977 277.116 255.551C274.14 254.068 270.24 254.536 266.797 256.689C263.366 258.835 260.964 262.311 260.725 265.983C260.498 269.486 262.197 273.976 268.648 278.367C271.516 280.32 272.13 285.23 268.366 287.273C265.928 288.597 263.097 289.831 260.092 288.805C257.284 287.847 255.206 285.187 253.165 281.808Z" fill="#8664FF"/>
<g clip-path="url(#clip0_1110_7710)">
<path d="M305.453 250.935C301.957 245.119 296.666 240.596 290.378 238.048C284.089 235.499 277.142 235.063 270.583 236.805C270.363 236.872 270.126 236.86 269.913 236.773C269.7 236.685 269.523 236.527 269.413 236.325C267.652 233.157 265.733 230.08 263.663 227.105C260.495 222.533 256.807 218.345 252.673 214.625C249.183 219.495 245.993 224.765 241.763 228.905C244.472 231.491 246.911 234.346 249.043 237.425C251.024 240.265 252.84 243.216 254.483 246.265C254.581 246.44 254.624 246.64 254.606 246.84C254.588 247.04 254.51 247.229 254.383 247.385C246.533 257.335 245.763 271.525 252.763 283.025C253.406 284.114 254.111 285.166 254.873 286.175C254.967 286.284 255.084 286.372 255.215 286.433C255.346 286.493 255.489 286.525 255.633 286.525C255.778 286.525 255.921 286.493 256.052 286.433C256.183 286.372 256.3 286.284 256.393 286.175L264.703 275.175C264.853 274.995 264.935 274.768 264.935 274.535C264.935 274.301 264.853 274.074 264.703 273.895C262.974 271.945 262.055 269.409 262.133 266.805C262.338 265.056 262.948 263.38 263.915 261.91C264.882 260.439 266.18 259.215 267.703 258.335C270.913 256.335 274.423 255.965 276.983 257.255C278.903 258.255 281.083 260.475 282.183 265.405C282.23 265.648 282.365 265.866 282.562 266.016C282.76 266.165 283.006 266.236 283.253 266.215L307.893 264.325C308.105 264.304 308.304 264.216 308.463 264.074C308.621 263.931 308.73 263.743 308.773 263.535C308.9 262.711 308.95 261.877 308.923 261.045C308.658 257.432 307.463 253.949 305.453 250.935Z" fill="white"/>
<path d="M256.764 218.464C255.684 217.374 253.874 215.304 253.424 215.254L247.874 235.804C248.264 236.324 249.004 237.424 249.374 237.954C250.034 238.884 250.654 239.824 251.264 240.754L252.264 236.804L266.634 231.484C265.914 230.334 265.154 229.194 264.364 228.064L253.444 232.064L256.764 218.464Z" fill="#C0EDFF"/>
<path d="M247.873 267.804L261.983 266.934C262.109 265.476 262.56 264.065 263.303 262.804L247.983 263.804C247.862 265.134 247.825 266.47 247.873 267.804Z" fill="#C0EDFF"/>
<path fill-rule="evenodd" clip-rule="evenodd" d="M275.483 235.935C277.483 235.435 279.483 235.435 280.143 235.805L301.983 264.435C302.483 264.935 295.983 265.435 295.983 264.935L275.483 235.935Z" fill="#C0EDFF"/>
</g>
<path fill-rule="evenodd" clip-rule="evenodd" d="M184.635 396.942C187.627 397.019 189.981 399.379 190.815 402.302C191.569 404.946 190.328 407.63 188.149 409.263C185.917 410.935 182.958 411.484 180.653 409.917C178.055 408.15 176.467 404.987 177.398 401.953C178.359 398.821 181.409 396.858 184.635 396.942Z" fill="#FFCF54"/>
<path fill-rule="evenodd" clip-rule="evenodd" d="M178.683 469.412C174.632 469.203 171.064 472.209 170.002 476.048C169.07 479.417 171.65 482.365 174.533 484.414C177.403 486.453 181.169 488.08 184.012 486.005C186.795 483.975 185.981 480.065 184.939 476.82C183.854 473.44 182.293 469.599 178.683 469.412Z" fill="#B1AFA9" fill-opacity="0.3"/>
<path fill-rule="evenodd" clip-rule="evenodd" d="M178.576 460.618C180.792 459.543 183.143 461.709 185.258 463.062C187.15 464.273 189.053 465.558 189.695 467.732C190.431 470.224 190.539 473.194 188.792 475.032C187.097 476.813 184.305 476.304 181.862 475.969C179.721 475.676 177.418 475.181 176.245 473.313C175.125 471.53 176.066 469.394 176.444 467.34C176.892 464.899 176.388 461.68 178.576 460.618Z" fill="#B1AFA9" fill-opacity="0.5"/>
<path fill-rule="evenodd" clip-rule="evenodd" d="M174.034 455.533C172.672 456.48 173.169 458.576 173.266 460.265C173.354 461.776 173.481 463.319 174.547 464.413C175.768 465.667 177.478 466.711 179.134 466.29C180.74 465.882 181.362 464.073 181.971 462.527C182.505 461.172 182.974 459.656 182.263 458.35C181.585 457.104 180.019 456.953 178.688 456.497C177.106 455.955 175.38 454.597 174.034 455.533Z" fill="#B1AFA9"/>
<path d="M164.174 388.145C159.318 391.849 155.231 396.997 153.438 402.88C150.57 412.295 152.76 417.962 157.419 425.231C160.122 429.447 161.052 439.318 161.952 438.444C162.455 437.956 164.631 432.195 164.802 432.874C165.102 434.061 164.9 439.411 165.163 440.626C165.766 443.41 166.496 447.084 168.372 449.54C170.405 453.584 170.305 436.343 170.573 435.75C170.982 434.847 171.605 441.312 171.759 442.006C172.363 444.729 172.727 447.484 173.328 450.206C173.685 451.821 174.676 460.707 176.345 461.734C177.316 462.331 176.555 457.561 177.684 451.76C178.553 447.294 179.073 446.371 180.169 443.455C180.372 442.916 181.342 439.747 181.637 440.481C182.59 442.858 182.686 445.45 183.261 447.926C183.568 449.244 183.801 451.181 184.197 448.234C184.398 439.344 187.511 430.927 187.889 422.095C188.14 416.217 187.677 410.31 186.957 404.483C186.115 397.665 183.836 385.982 175.493 384.862C173.713 384.623 172.217 384.25 170.5 384.893C168.208 385.75 166.122 386.659 164.174 388.145Z" fill="#E14F60"/>
<path fill-rule="evenodd" clip-rule="evenodd" d="M192.149 390.889C193.251 387.43 193.843 383.649 193.809 379.693C193.669 363.347 182.906 350.188 169.768 350.3C156.631 350.413 146.095 363.755 146.235 380.101C146.269 384.057 146.925 387.827 148.087 391.267L192.149 390.889Z" fill="#141B4D"/>
<path fill-rule="evenodd" clip-rule="evenodd" d="M225.664 335.606C227.957 332.214 225.239 328.138 221.145 328.138H119.537C115.443 328.138 112.725 332.214 115.018 335.606C124.593 349.768 145.763 363.75 170.341 363.75C194.919 363.75 216.089 349.768 225.664 335.606Z" fill="#FF9737"/>
<path fill-rule="evenodd" clip-rule="evenodd" d="M151.24 407.194C154.37 407.046 157.127 409.176 157.948 411.895C158.668 414.281 156.674 416.369 154.447 417.82C152.229 419.265 149.319 420.417 147.122 418.948C144.971 417.509 145.6 414.74 146.405 412.442C147.244 410.047 148.45 407.327 151.24 407.194Z" fill="#FFCF54" fill-opacity="0.8"/>
<path fill-rule="evenodd" clip-rule="evenodd" d="M186.803 422.656C183.702 422.201 180.743 424.184 179.652 426.971C178.694 429.418 180.469 431.809 182.54 433.55C184.601 435.284 187.382 436.776 189.718 435.437C192.003 434.125 191.657 431.146 191.087 428.647C190.493 426.043 189.567 423.061 186.803 422.656Z" fill="#FFCF54" fill-opacity="0.8"/>
<path d="M145.655 383.034C145.655 382.63 145.982 382.302 146.387 382.302H193.962C194.367 382.302 194.694 382.63 194.694 383.034V391.817C194.694 392.222 194.367 392.549 193.962 392.549H146.387C145.982 392.549 145.655 392.222 145.655 391.817V383.034Z" fill="#40DA6B"/>
<path fill-rule="evenodd" clip-rule="evenodd" d="M171.082 396.215C173.541 396.086 174.865 398.996 176.286 401.065C177.558 402.917 178.812 404.842 178.557 407.094C178.266 409.675 177.21 412.454 174.885 413.467C172.631 414.449 170.257 412.893 168.137 411.634C166.279 410.532 164.349 409.18 163.996 407.003C163.658 404.925 165.356 403.323 166.502 401.578C167.865 399.503 168.653 396.342 171.082 396.215Z" fill="#FFCF54"/>
<path fill-rule="evenodd" clip-rule="evenodd" d="M174.445 400.605C177.753 400.72 180.354 404.197 181.276 408.505C182.109 412.401 180.739 416.356 178.33 418.762C175.863 421.227 172.592 422.036 170.044 419.726C167.173 417.123 165.418 412.461 166.447 407.991C167.509 403.375 170.88 400.481 174.445 400.605Z" fill="#FFCF54" fill-opacity="0.3"/>
<path fill-rule="evenodd" clip-rule="evenodd" d="M129.428 84.5469L108.202 63.3209L112.343 59.1804L133.569 80.4064L129.428 84.5469Z" fill="#141B4D"/>
<path fill-rule="evenodd" clip-rule="evenodd" d="M223.667 81.281L247.665 63.2215L251.186 67.9001L227.188 85.9596L223.667 81.281Z" fill="#141B4D"/>
<path fill-rule="evenodd" clip-rule="evenodd" d="M242.252 121.084C248.033 141.424 232.811 160.953 211.807 163.392L115.216 174.605C90.4151 177.484 71.4595 155.669 84.5428 134.404C107.733 96.7105 146.889 61.0281 179.494 57.2431C213.64 53.2791 232.079 85.2896 242.252 121.084Z" fill="#40DA6B"/>
<path fill-rule="evenodd" clip-rule="evenodd" d="M232.266 126.363C235.655 140.047 225.611 153.022 211.609 154.648L112.652 166.136C96.1179 168.055 83.1966 153.504 91.0852 138.847C109.92 103.852 146.66 68.3607 176.829 64.8584C208.193 61.2174 224.036 93.1278 232.266 126.363Z" fill="#141B4D"/>
<path fill-rule="evenodd" clip-rule="evenodd" d="M199.508 106.81L200.542 143.915C200.615 146.524 196.888 147.059 196.224 144.534L189.516 119.021L187.754 125.441C187.517 126.305 186.779 126.938 185.889 127.041L142.515 132.076C141.973 132.139 141.427 131.998 140.984 131.681L136.679 128.599L134.863 153.168C134.676 155.687 131.081 155.95 130.53 153.484L121.841 114.571L118.187 133.359C118.005 134.298 117.235 135.011 116.285 135.121L93.4073 137.777L93.0697 134.869L115.416 132.275L119.636 110.572C120.09 108.236 123.416 108.19 123.934 110.512L132.308 148.013L133.855 127.083C133.982 125.374 135.93 124.462 137.323 125.46L142.458 129.136L185.061 124.19L187.413 115.619C188.007 113.454 191.084 113.471 191.654 115.642L197.439 137.641L196.437 101.721C196.366 99.1798 199.95 98.5703 200.724 100.992L207.306 121.608L230.708 118.891L231.045 121.799L207.045 124.585C206.002 124.706 205.019 124.072 204.7 123.072L199.508 106.81Z" fill="#40DA6B"/>
<path d="M118.327 59.4214C118.327 64.4743 114.395 68.5705 109.544 68.5705C104.693 68.5705 100.761 64.4743 100.761 59.4214C100.761 54.3684 104.693 50.2722 109.544 50.2722C114.395 50.2722 118.327 54.3684 118.327 59.4214Z" fill="#40DA6B"/>
<path d="M263.249 63.081C263.249 68.134 259.153 72.2302 254.1 72.2302C249.047 72.2302 244.951 68.134 244.951 63.081C244.951 58.0281 249.047 53.9319 254.1 53.9319C259.153 53.9319 263.249 58.0281 263.249 63.081Z" fill="#40DA6B"/>
<path d="M162.3 6.47988C162.455 5.89037 163.22 5.73716 163.59 6.22167L204.371 59.6597C204.605 59.9661 204.558 60.4043 204.266 60.6552C187.619 74.9325 169.337 77.7522 145.154 75.1154C144.71 75.0671 144.41 74.635 144.523 74.2037L162.3 6.47988Z" fill="#E14F60"/>
<path d="M105.396 201.051C105.396 196.2 109.329 192.267 114.179 192.267H136.869C141.72 192.267 145.653 196.2 145.653 201.051V223.74C145.653 228.591 141.72 232.524 136.869 232.524H114.179C109.329 232.524 105.396 228.591 105.396 223.74V201.051Z" fill="#40DA6B"/>
<path d="M105.396 244.966C105.396 240.115 109.329 236.183 114.179 236.183H136.869C141.72 236.183 145.653 240.115 145.653 244.966V267.656C145.653 272.507 141.72 276.439 136.869 276.439H114.179C109.329 276.439 105.396 272.507 105.396 267.656V244.966Z" fill="#40DA6B"/>
<path d="M105.396 288.882C105.396 284.031 109.329 280.099 114.179 280.099H136.869C141.72 280.099 145.653 284.031 145.653 288.882V311.572C145.653 316.423 141.72 320.355 136.869 320.355H114.179C109.329 320.355 105.396 316.423 105.396 311.572V288.882Z" fill="#40DA6B"/>
<path d="M149.314 201.051C149.314 196.2 153.246 192.267 158.097 192.267H180.787C185.638 192.267 189.57 196.2 189.57 201.051V223.74C189.57 228.591 185.638 232.524 180.787 232.524H158.097C153.246 232.524 149.314 228.591 149.314 223.74V201.051Z" fill="#40DA6B"/>
<path d="M149.314 244.966C149.314 240.115 153.246 236.183 158.097 236.183H180.787C185.638 236.183 189.57 240.115 189.57 244.966V267.656C189.57 272.507 185.638 276.439 180.787 276.439H158.097C153.246 276.439 149.314 272.507 149.314 267.656V244.966Z" fill="#40DA6B"/>
<path d="M149.314 288.882C149.314 284.031 153.246 280.099 158.097 280.099H180.787C185.638 280.099 189.57 284.031 189.57 288.882V311.572C189.57 316.423 185.638 320.355 180.787 320.355H158.097C153.246 320.355 149.314 316.423 149.314 311.572V288.882Z" fill="#40DA6B"/>
<path d="M193.228 201.051C193.228 196.2 197.16 192.267 202.011 192.267H224.701C229.552 192.267 233.484 196.2 233.484 201.051V223.74C233.484 228.591 229.552 232.524 224.701 232.524H202.011C197.16 232.524 193.228 228.591 193.228 223.74V201.051Z" fill="#40DA6B"/>
<path d="M193.228 244.966C193.228 240.115 197.16 236.183 202.011 236.183H224.701C229.552 236.183 233.484 240.115 233.484 244.966V267.656C233.484 272.507 229.552 276.439 224.701 276.439H202.011C197.16 276.439 193.228 272.507 193.228 267.656V244.966Z" fill="#40DA6B"/>
<path d="M193.228 288.882C193.228 284.031 197.16 280.099 202.011 280.099H224.701C229.552 280.099 233.484 284.031 233.484 288.882V311.572C233.484 316.423 229.552 320.355 224.701 320.355H202.011C197.16 320.355 193.228 316.423 193.228 311.572V288.882Z" fill="#40DA6B"/>
<defs>
<clipPath id="clip0_1110_7710">
<rect width="67.1" height="71.92" fill="white" transform="translate(241.763 214.625)"/>
</clipPath>
</defs>
</svg>
