<svg width="323" height="364" viewBox="0 0 323 364" fill="none" xmlns="http://www.w3.org/2000/svg">
<path d="M120.795 244.85C119.99 243.355 118.088 242.856 116.653 243.763L73.6021 270.967C72.33 271.77 71.8744 273.408 72.5485 274.753L76.0142 281.67C76.7134 283.066 78.3843 283.667 79.8125 283.038L126.655 262.394C128.218 261.705 128.862 259.83 128.052 258.327L120.795 244.85Z" fill="#141B4D"/>
<path d="M87.5042 275.614C88.9912 274.887 89.5801 273.073 88.8036 271.611L50.7177 199.91C49.9837 198.528 48.2929 197.968 46.8788 198.637L45.0537 199.502C43.61 200.186 42.981 201.901 43.6401 203.356L77.1442 277.325C77.8253 278.829 79.6143 279.473 81.0973 278.747L87.5042 275.614Z" fill="#FF1548"/>
<path d="M2.98364 182.327C4.63146 202.066 21.9688 216.732 41.7076 215.084C61.4465 213.436 76.1122 196.099 74.4643 176.36C72.8165 156.621 55.4792 141.955 35.7404 143.603C16.0015 145.251 1.33583 162.588 2.98364 182.327Z" fill="#141B4D"/>
<path d="M11.9539 184.148C13.1141 198.045 25.321 208.371 39.2187 207.211C53.1165 206.051 63.4423 193.844 62.2821 179.946C61.1219 166.048 48.915 155.723 35.0173 156.883C21.1195 158.043 10.7937 170.25 11.9539 184.148Z" fill="#C0EDFF"/>
<path d="M16.8062 176.487C17.193 181.12 21.2619 184.562 25.8945 184.175C30.5271 183.788 33.9691 179.719 33.5823 175.087C33.1956 170.454 29.1266 167.012 24.494 167.399C19.8615 167.786 16.4195 171.855 16.8062 176.487Z" fill="white"/>
<path d="M85.5713 272.49C85.5154 274.315 83.991 275.749 82.1663 275.693C80.3415 275.637 78.9076 274.112 78.9634 272.288C79.0192 270.463 80.5437 269.029 82.3684 269.085C84.1931 269.141 85.6271 270.665 85.5713 272.49Z" fill="#141B4D"/>
<path d="M37.3313 164.869C37.3313 167.093 35.5289 168.895 33.3057 168.895C31.0824 168.895 29.28 167.093 29.28 164.869C29.28 162.646 31.0824 160.844 33.3057 160.844C35.5289 160.844 37.3313 162.646 37.3313 164.869Z" fill="white"/>
<path fill-rule="evenodd" clip-rule="evenodd" d="M272.39 246.918C273.016 248.186 273.587 249.343 274.11 250.36L262.392 256.382C261.75 255.133 261.09 253.806 260.403 252.424C256.485 244.54 251.656 234.826 243.942 227.166C235.39 218.674 223.27 212.764 204.167 217.133L201.23 204.29C225.118 198.826 241.757 206.429 253.225 217.817C262.643 227.17 268.547 239.132 272.39 246.918Z" fill="#141B4D"/>
<path fill-rule="evenodd" clip-rule="evenodd" d="M253.165 281.807C244.54 267.522 248.141 249.024 262.676 240.247C277.088 231.546 295.826 236.175 304.528 250.587C306.591 254.005 307.712 257.245 307.801 260.26C307.891 263.348 306.888 266.032 305.022 268.167C301.438 272.266 295.115 273.9 288.594 273.94C285.629 273.958 283.669 271.485 283.507 269.06C282.95 260.705 279.98 256.977 277.116 255.551C274.14 254.068 270.24 254.536 266.797 256.689C263.366 258.834 260.964 262.311 260.725 265.983C260.498 269.485 262.197 273.976 268.648 278.367C271.516 280.32 272.13 285.23 268.366 287.273C265.928 288.597 263.097 289.831 260.092 288.805C257.284 287.847 255.206 285.186 253.165 281.807Z" fill="#00C939"/>
<g clip-path="url(#clip0_1110_8606)">
<path d="M305.454 250.935C301.958 245.119 296.667 240.596 290.378 238.048C284.089 235.499 277.142 235.063 270.584 236.805C270.363 236.872 270.126 236.86 269.913 236.773C269.7 236.685 269.524 236.527 269.414 236.325C267.653 233.157 265.734 230.08 263.664 227.105C260.496 222.533 256.808 218.345 252.674 214.625C249.184 219.495 245.994 224.765 241.764 228.905C244.472 231.491 246.911 234.346 249.044 237.425C251.024 240.265 252.841 243.216 254.484 246.265C254.581 246.44 254.624 246.64 254.606 246.84C254.588 247.04 254.511 247.229 254.384 247.385C246.534 257.335 245.764 271.525 252.764 283.025C253.406 284.114 254.111 285.166 254.874 286.175C254.968 286.284 255.084 286.372 255.215 286.433C255.346 286.493 255.489 286.525 255.634 286.525C255.778 286.525 255.921 286.493 256.052 286.433C256.183 286.372 256.3 286.284 256.394 286.175L264.704 275.175C264.853 274.995 264.935 274.768 264.935 274.535C264.935 274.301 264.853 274.074 264.704 273.895C262.974 271.945 262.055 269.409 262.134 266.805C262.338 265.056 262.949 263.38 263.916 261.91C264.883 260.439 266.18 259.215 267.704 258.335C270.914 256.335 274.424 255.965 276.984 257.255C278.904 258.255 281.084 260.475 282.184 265.405C282.23 265.648 282.365 265.866 282.563 266.016C282.76 266.165 283.007 266.236 283.254 266.215L307.894 264.325C308.105 264.304 308.305 264.216 308.463 264.074C308.621 263.931 308.73 263.743 308.774 263.535C308.9 262.711 308.95 261.877 308.924 261.045C308.658 257.432 307.463 253.949 305.454 250.935Z" fill="white"/>
<path d="M256.764 218.465C255.684 217.375 253.874 215.305 253.424 215.255L247.874 235.805C248.264 236.325 249.004 237.425 249.374 237.955C250.034 238.885 250.654 239.825 251.264 240.755L252.264 236.805L266.634 231.485C265.914 230.335 265.154 229.195 264.364 228.065L253.444 232.065L256.764 218.465Z" fill="#C0EDFF"/>
<path d="M247.874 267.805L261.984 266.935C262.109 265.476 262.56 264.065 263.304 262.805L247.984 263.805C247.862 265.134 247.826 266.47 247.874 267.805Z" fill="#C0EDFF"/>
<path fill-rule="evenodd" clip-rule="evenodd" d="M275.484 235.934C277.484 235.434 279.484 235.434 280.144 235.804L301.984 264.434C302.484 264.934 295.984 265.434 295.984 264.934L275.484 235.934Z" fill="#C0EDFF"/>
</g>
<path fill-rule="evenodd" clip-rule="evenodd" d="M226.285 335.606C228.578 332.214 225.86 328.138 221.766 328.138H120.158C116.064 328.138 113.346 332.214 115.639 335.606C125.214 349.768 146.384 363.75 170.962 363.75C195.54 363.75 216.71 349.768 226.285 335.606Z" fill="#E14F60"/>
<path fill-rule="evenodd" clip-rule="evenodd" d="M129.434 84.5469L108.208 63.3209L112.349 59.1804L133.575 80.4064L129.434 84.5469Z" fill="#141B4D"/>
<path fill-rule="evenodd" clip-rule="evenodd" d="M223.673 81.281L247.67 63.2215L251.191 67.9001L227.194 85.9596L223.673 81.281Z" fill="#141B4D"/>
<path fill-rule="evenodd" clip-rule="evenodd" d="M242.259 121.084C248.04 141.424 232.818 160.953 211.814 163.392L115.223 174.605C90.4222 177.484 71.4665 155.669 84.5498 134.404C107.74 96.7105 146.896 61.0281 179.501 57.2431C213.647 53.2791 232.086 85.2895 242.259 121.084Z" fill="#F32D52"/>
<path fill-rule="evenodd" clip-rule="evenodd" d="M232.27 126.363C235.658 140.046 225.615 153.022 211.612 154.648L112.655 166.135C96.1211 168.055 83.1998 153.504 91.0884 138.847C109.924 103.852 146.663 68.3604 176.832 64.8582C208.196 61.2172 224.039 93.1276 232.27 126.363Z" fill="#141B4D"/>
<path fill-rule="evenodd" clip-rule="evenodd" d="M199.51 106.81L200.545 143.915C200.618 146.524 196.89 147.059 196.227 144.534L189.518 119.021L187.756 125.441C187.519 126.305 186.782 126.938 185.892 127.041L142.518 132.076C141.976 132.139 141.43 131.998 140.986 131.681L136.682 128.599L134.865 153.168C134.679 155.688 131.083 155.95 130.533 153.484L121.844 114.571L118.19 133.359C118.007 134.298 117.238 135.011 116.288 135.121L93.41 137.777L93.0724 134.869L115.418 132.275L119.639 110.572C120.093 108.236 123.419 108.19 123.937 110.513L132.311 148.013L133.858 127.084C133.985 125.375 135.933 124.462 137.326 125.46L142.461 129.136L185.064 124.19L187.416 115.619C188.01 113.454 191.086 113.471 191.657 115.642L197.441 137.641L196.44 101.722C196.369 99.18 199.953 98.5704 200.726 100.992L207.308 121.608L230.71 118.891L231.048 121.799L207.047 124.585C206.005 124.706 205.022 124.072 204.702 123.072L199.51 106.81Z" fill="#40DA6B"/>
<path d="M118.329 59.4214C118.329 64.4743 114.397 68.5705 109.546 68.5705C104.695 68.5705 100.763 64.4743 100.763 59.4214C100.763 54.3684 104.695 50.2722 109.546 50.2722C114.397 50.2722 118.329 54.3684 118.329 59.4214Z" fill="#F32D52"/>
<path d="M263.251 63.081C263.251 68.134 259.155 72.2302 254.102 72.2302C249.049 72.2302 244.953 68.134 244.953 63.081C244.953 58.0281 249.049 53.9319 254.102 53.9319C259.155 53.9319 263.251 58.0281 263.251 63.081Z" fill="#F32D52"/>
<path d="M162.306 6.47988C162.46 5.89037 163.226 5.73716 163.595 6.22167L204.377 59.6597C204.61 59.9661 204.564 60.4043 204.271 60.6552C187.625 74.9325 169.343 77.7522 145.159 75.1154C144.716 75.0671 144.416 74.635 144.529 74.2037L162.306 6.47988Z" fill="#2BA34D"/>
<path fill-rule="evenodd" clip-rule="evenodd" d="M265.841 112.333C257.017 111.042 251.052 112.68 247.938 116.719C244.868 120.702 245.167 126.266 247.011 131.411C248.884 136.635 252.505 141.936 256.923 145.889C257.325 146.248 257.736 146.598 258.154 146.938L240.532 145.203L227.516 149.35C225.604 149.847 224.467 150.766 226.625 151.059L280.864 160.403C293.098 161.278 297.393 148.441 295.363 138.397C293.063 127.015 283.57 114.925 265.841 112.333Z" fill="#2BA34D"/>
<path fill-rule="evenodd" clip-rule="evenodd" d="M273.822 141.191C272.762 142.343 271.759 142.814 270.886 142.927C269.995 143.041 269.053 142.806 268.092 142.215C266.12 141.004 264.327 138.438 263.445 135.579C262.554 132.691 262.729 129.99 264.002 128.348C265.19 126.816 267.796 125.652 273.145 126.87C276.244 127.575 279.869 130.748 282.319 134.853C284.78 138.978 285.675 143.391 284.228 146.4L285.548 147.034L284.228 146.4C283.002 148.951 280.259 150.83 275.548 151.05C270.969 151.263 264.051 150.643 257.698 149.592C254.532 149.069 251.541 148.444 249.085 147.775C246.576 147.092 244.79 146.405 243.908 145.816C243.235 145.368 242.326 145.55 241.878 146.222C241.429 146.895 241.611 147.804 242.284 148.252C243.597 149.128 245.793 149.913 248.316 150.6C250.894 151.302 253.987 151.946 257.22 152.481C263.668 153.547 270.814 154.202 275.685 153.974C281.151 153.719 285.051 151.447 286.867 147.669C288.958 143.319 287.468 137.768 284.833 133.353C282.186 128.917 278.004 124.973 273.795 124.015C267.953 122.685 263.893 123.711 261.689 126.554C259.571 129.285 259.629 133.142 260.648 136.443C261.675 139.772 263.818 143.025 266.559 144.71C267.953 145.567 269.561 146.049 271.259 145.831C272.966 145.611 274.579 144.708 276.016 143.131L276.046 143.098L276.074 143.063C277.954 140.729 278.678 138.534 277.942 136.657C277.225 134.827 275.392 134.012 273.888 133.745C272.384 133.478 270.58 133.637 269.376 134.434C268.728 134.863 268.099 135.6 268.088 136.652C268.077 137.632 268.616 138.477 269.293 139.154C269.865 139.726 270.792 139.726 271.364 139.154C271.935 138.583 271.935 137.656 271.364 137.084C271.249 136.97 271.171 136.877 271.118 136.805C271.539 136.604 272.404 136.455 273.376 136.628C274.458 136.82 275.045 137.288 275.216 137.725C275.368 138.112 275.45 139.157 273.822 141.191Z" fill="#FFC600"/>
<path d="M217.84 143.007C220.402 142.641 256.267 146.667 256.267 146.667C251.333 148.449 250.183 150.1 250.058 154.225C250.044 154.675 249.642 155.019 249.197 154.947L216.157 149.618C216.06 149.602 215.966 149.567 215.885 149.512C213.148 147.637 215.317 143.368 217.84 143.007Z" fill="#8664FF"/>
<path fill-rule="evenodd" clip-rule="evenodd" d="M102.168 289.961C99.1259 306.656 112.669 321.088 129.639 321.088H210.71C227.68 321.088 241.223 306.656 238.18 289.961C227.886 233.472 201.322 184.949 170.174 184.949C139.027 184.949 112.463 233.472 102.168 289.961Z" fill="#FF1548"/>
<path fill-rule="evenodd" clip-rule="evenodd" d="M203.889 204.708C203.689 205.164 203.496 205.627 203.302 206.09C202.127 208.903 200.943 211.737 198.41 213.171C195.111 215.039 190.552 214.86 186.179 214.688C180.293 214.457 174.745 214.24 173.058 219.04C171.442 223.641 176.107 226.356 181.097 229.26C184.698 231.355 188.469 233.549 190.17 236.622C191.638 239.275 191.379 242.723 191.128 246.066C190.809 250.31 190.503 254.384 193.762 256.445C197.227 258.635 201.043 256.539 205.013 254.357C207.664 252.901 210.384 251.407 213.115 251.125C215.781 250.851 218.69 251.772 221.522 252.669C224.255 253.535 226.915 254.377 229.215 254.1C222.616 234.264 213.944 217.002 203.889 204.708Z" fill="#E14F60"/>
<path fill-rule="evenodd" clip-rule="evenodd" d="M109.058 261.081C111.367 264.042 114.817 266.335 117.36 264.66C120.162 262.814 120.36 259.059 120.557 255.303C120.753 251.555 120.95 247.804 123.736 245.946C125.792 244.576 128.017 246.553 130.296 248.577C132.501 250.535 134.755 252.537 136.953 251.595C138.73 250.833 137.691 248.843 136.542 246.642C135.542 244.726 134.458 242.65 135.077 241.085C136.008 238.731 138.237 237.148 140.433 235.589C142.985 233.777 145.492 231.997 145.862 229.075C146.466 224.303 142.911 216.833 138.108 217.162C134.623 217.401 132.422 220.731 130.242 224.028C127.983 227.447 125.747 230.83 122.127 230.7C121.602 230.681 121.132 230.571 120.708 230.385C116.269 239.698 112.349 250.056 109.058 261.081Z" fill="#00C939"/>
<path fill-rule="evenodd" clip-rule="evenodd" d="M154.75 293.722C156.165 289.806 163.753 287.418 161.765 283.749C159.664 279.874 153.004 284.403 148.863 282.862C146.066 281.821 145.617 277.404 142.726 276.664C139.598 275.862 135.994 276.831 133.566 278.943C131.152 281.042 130.008 284.438 130.117 287.631C130.213 290.461 133.313 292.191 134.11 294.911C135.069 298.182 132.4 302.8 135.155 304.824C137.833 306.793 141.311 302.83 144.63 302.643C148.032 302.451 151.997 305.979 154.546 303.732C157.115 301.467 153.588 296.939 154.75 293.722Z" fill="#2BA34D"/>
<defs>
<clipPath id="clip0_1110_8606">
<rect width="67.1" height="71.92" fill="white" transform="translate(241.764 214.625)"/>
</clipPath>
</defs>
</svg>
