<svg width="380" height="438" viewBox="0 0 380 438" fill="none" xmlns="http://www.w3.org/2000/svg">
<path fill-rule="evenodd" clip-rule="evenodd" d="M328.548 221.786C329.174 223.054 329.745 224.211 330.268 225.228L318.55 231.25C317.908 230.001 317.249 228.674 316.561 227.291C312.643 219.408 307.815 209.694 300.1 202.034C291.549 193.542 279.429 187.632 260.326 192.001L257.388 179.158C281.276 173.694 297.915 181.297 309.383 192.685C318.802 202.038 324.706 214 328.548 221.786Z" fill="#141B4D"/>
<path fill-rule="evenodd" clip-rule="evenodd" d="M318.835 215.115C304.299 223.892 300.699 242.39 309.324 256.676C311.364 260.055 313.443 262.715 316.25 263.673C319.255 264.699 322.086 263.465 324.525 262.141C328.289 260.098 327.675 255.188 324.807 253.235C318.356 248.844 316.656 244.353 316.884 240.851C317.123 237.179 319.524 233.702 322.956 231.557C326.399 229.404 330.298 228.936 333.275 230.419C336.139 231.845 339.109 235.574 339.665 243.928C339.827 246.353 341.787 248.826 344.753 248.808C351.273 248.768 357.596 247.134 361.18 243.035C363.047 240.9 364.049 238.216 363.959 235.129C363.871 232.113 362.75 228.873 360.686 225.455C351.984 211.043 333.247 206.414 318.835 215.115Z" fill="#E14F60"/>
<path fill-rule="evenodd" clip-rule="evenodd" d="M122.113 221.784C121.488 223.052 120.916 224.209 120.394 225.226L132.111 231.248C132.754 229.999 133.413 228.672 134.1 227.289C138.019 219.406 142.847 209.692 150.562 202.032C159.113 193.54 171.233 187.63 190.336 191.999L193.274 179.156C169.386 173.692 152.747 181.295 141.278 192.683C131.86 202.036 125.956 213.998 122.113 221.784Z" fill="#141B4D"/>
<path fill-rule="evenodd" clip-rule="evenodd" d="M89.9758 225.453C98.6776 211.041 117.415 206.412 131.827 215.113C146.363 223.89 149.963 242.388 141.338 256.674C139.298 260.053 137.219 262.713 134.412 263.671C131.406 264.697 128.576 263.463 126.137 262.139C122.373 260.096 122.987 255.186 125.855 253.233C132.306 248.842 134.006 244.352 133.778 240.849C133.539 237.177 131.138 233.701 127.706 231.555C124.263 229.402 120.364 228.934 117.387 230.417C114.523 231.843 111.553 235.572 110.996 243.926C110.835 246.351 108.875 248.824 105.909 248.806C99.3884 248.766 93.0654 247.133 89.4817 243.033C87.6153 240.898 86.6127 238.214 86.7029 235.127C86.7909 232.111 87.912 228.871 89.9758 225.453Z" fill="#E14F60"/>
<path d="M81.5458 165.02C80.2532 162.733 81.0598 159.831 83.3474 158.538C85.635 157.245 88.5373 158.052 89.8299 160.34L135.558 241.269C136.851 243.557 136.044 246.459 133.757 247.752C131.469 249.044 128.567 248.238 127.274 245.95L81.5458 165.02Z" fill="#141B4D"/>
<path d="M127.232 122.391C142.445 149.315 132.952 183.473 106.029 198.685C79.1053 213.898 44.9473 204.405 29.7345 177.481C14.5218 150.558 24.0151 116.4 50.9384 101.187C77.8617 85.9746 112.02 95.4679 127.232 122.391Z" fill="#40DA6B"/>
<path d="M106.838 133.914C115.687 149.576 110.165 169.445 94.5035 178.295C78.8422 187.144 58.9725 181.622 50.1233 165.96C41.2741 150.299 46.7963 130.429 62.4576 121.58C78.1189 112.731 97.9886 118.253 106.838 133.914Z" fill="white"/>
<path d="M53.0907 192.955L59.1892 184.674L62.4812 186.155L60.877 195.891L59.5446 195.628L59.4556 192.953L55.6349 191.862L54.4048 193.689L53.0907 192.955ZM59.1401 186.661L56.2902 190.884L59.4276 192.099L59.2515 186.703L59.1401 186.661Z" fill="#141B4D"/>
<path d="M67.9256 187.917C69.3553 187.624 70.7756 187.555 72.1864 187.708C73.5972 187.862 74.6566 188.218 75.3646 188.774C75.4841 189.326 75.5174 189.844 75.4647 190.327C75.3409 191.462 74.7684 192.363 73.7472 193.03C72.727 193.688 71.4587 194.103 69.9422 194.277L69.2253 197.553L67.7293 197.54L67.9256 187.917ZM72.5617 190.445C72.6446 189.685 72.3957 189.084 71.815 188.641C71.6375 188.622 71.4166 188.633 71.1526 188.674L70.1556 193.282C70.8356 192.997 71.3888 192.593 71.8152 192.071C72.2515 191.549 72.5003 191.007 72.5617 190.445Z" fill="#141B4D"/>
<path d="M79.0166 188.557C80.328 187.916 81.686 187.495 83.0907 187.292C84.4953 187.089 85.6098 187.169 86.4342 187.531C86.6876 188.036 86.849 188.529 86.9184 189.011C87.0814 190.14 86.7517 191.155 85.9291 192.056C85.105 192.947 83.9804 193.666 82.5552 194.213L82.6779 197.564L81.2257 197.924L79.0166 188.557ZM84.1364 189.848C84.0273 189.092 83.6363 188.572 82.9636 188.288C82.7868 188.313 82.5757 188.379 82.3302 188.485L82.5138 193.196C83.1012 192.75 83.5363 192.221 83.8189 191.609C84.1114 190.995 84.2172 190.408 84.1364 189.848Z" fill="#141B4D"/>
<path d="M94.9628 190.374C94.8226 190.5 94.7024 190.585 94.6023 190.628L95.7266 194.23L94.4201 194.959L89.8262 186.501C90.2416 186.137 90.8177 185.72 91.5545 185.248C92.3004 184.773 93.0376 184.378 93.7659 184.062C94.9313 183.556 95.9593 183.37 96.85 183.503C97.2272 183.923 97.5046 184.339 97.6824 184.748C98.18 185.895 97.9307 187.129 96.9344 188.448L101.119 191.809L100.394 192.757L94.9628 190.374ZM95.2065 186.261C94.9261 185.614 94.424 185.242 93.7003 185.145C93.4818 185.24 93.2558 185.392 93.0221 185.602L94.3187 189.713C94.8245 189.158 95.1522 188.567 95.3019 187.939C95.4477 187.303 95.4159 186.743 95.2065 186.261Z" fill="#141B4D"/>
<path d="M110.049 181.748C110.424 182.223 110.698 182.651 110.873 183.032C111.041 183.405 111.119 183.792 111.107 184.193C111.074 184.953 110.497 185.775 109.375 186.661C108.261 187.54 107.197 187.97 106.182 187.949C105.533 187.399 104.956 186.805 104.452 186.166C103.431 184.873 102.759 183.526 102.437 182.124C102.122 180.716 102.118 179.543 102.427 178.604C103.633 178.259 104.942 178.363 106.354 178.918C107.759 179.465 108.991 180.408 110.049 181.748ZM108.22 182.338C107.273 181.139 106.262 180.267 105.188 179.724C104.98 181.014 105.022 182.283 105.313 183.533C105.612 184.777 106.109 185.838 106.804 186.719C107.111 186.564 107.448 186.342 107.815 186.053C108.531 185.487 109.076 184.912 109.448 184.327C109.109 183.609 108.699 182.946 108.22 182.338Z" fill="#141B4D"/>
<path d="M109.77 171.972L116.422 175.585L116.504 175.479L111.908 169.203L113.009 168.361L118.588 176.749L117.946 177.946L108.004 174.916L109.77 171.972Z" fill="#141B4D"/>
<path d="M123.398 169.512L115.4 163.049L117.026 159.826L126.681 161.865L126.358 163.184L123.682 163.153L122.421 166.921L124.191 168.232L123.398 169.512ZM117.382 163.187L121.473 166.223L122.828 163.143L117.429 163.077L117.382 163.187Z" fill="#141B4D"/>
<path d="M129.285 149.845L128.496 155.313L118.706 154.368L119.077 150.837L127.602 153.366L127.783 149.531L129.285 149.845Z" fill="#141B4D"/>
<path d="M33.4167 146.077C32.0514 145.77 30.9559 144.761 30.13 143.05L32.4994 140.79C32.9848 142.161 33.6487 142.94 34.4912 143.13C34.8494 143.21 35.2543 143.174 35.7057 143.021C36.1571 142.868 36.6036 142.715 37.0454 142.559C37.4893 142.395 37.8807 142.351 38.2196 142.427C39.6236 142.742 40.4905 143.954 40.8202 146.063L39.7194 146.548C39.5646 146.015 39.3868 145.629 39.1861 145.39C38.9854 145.152 38.7398 145 38.4493 144.935C38.1588 144.87 37.8083 144.913 37.3978 145.065C36.9798 145.205 36.5902 145.377 36.2291 145.58C35.8702 145.774 35.4322 145.935 34.9152 146.063C34.4004 146.181 33.9009 146.186 33.4167 146.077Z" fill="#141B4D"/>
<path d="M45.4872 132.556L42.9519 137.797L33.902 133.946L36.7106 128.008L37.5779 128.503L36.4766 131.468L39.0425 133.218L40.4621 130.382L41.6884 130.927L39.9288 133.806L42.6999 135.677L44.1498 131.803L45.4872 132.556Z" fill="#141B4D"/>
<path d="M47.2543 128.835L41.9752 120.009L44.6131 117.546L52.9728 122.789L52.2143 123.916L49.7131 122.964L47.2299 126.066L48.4395 127.907L47.2543 128.835ZM43.788 120.822L46.5813 125.083L48.9149 122.66L43.8699 120.736L43.788 120.822Z" fill="#141B4D"/>
<path d="M61.4635 117.05L56.8099 120.027L51.1262 112.001L54.0404 109.973L57.6998 118.078L60.7196 115.708L61.4635 117.05Z" fill="#141B4D"/>
<path d="M85.5547 108.705C85.5747 109.31 85.5418 109.818 85.4561 110.228C85.37 110.628 85.2031 110.986 84.9553 111.302C84.4784 111.894 83.5258 112.213 82.0974 112.26C80.679 112.307 79.5673 112.021 78.7624 111.402C78.5662 110.575 78.4547 109.754 78.4279 108.941C78.3735 107.294 78.6323 105.811 79.2043 104.491C79.7863 103.171 80.4799 102.225 81.2852 101.652C82.4614 102.09 83.4531 102.951 84.2601 104.235C85.0668 105.509 85.4984 106.999 85.5547 108.705ZM83.7323 108.095C83.6818 106.568 83.3856 105.267 82.8437 104.192C81.9107 105.107 81.1906 106.154 80.6834 107.332C80.1861 108.51 79.956 109.66 79.993 110.781C80.3326 110.839 80.7354 110.86 81.2016 110.845C82.1142 110.815 82.894 110.675 83.5412 110.425C83.6941 109.646 83.7578 108.869 83.7323 108.095Z" fill="#141B4D"/>
<path d="M96.3504 110.916L93.5105 109.991L92.1209 113.745L90.5111 113.436L92.1172 103.732L98.55 105.06L98.2741 106.019L95.1328 105.649L93.8907 108.98L96.5903 109.596L96.3504 110.916Z" fill="#141B4D"/>
<path d="M91.7739 163.813C91.9514 164.014 92.8538 164.267 93.0927 164.356C93.6029 164.548 93.38 164.742 93.8935 164.707C95.1608 164.762 95.7904 164.632 98.0148 164.835C98.5542 164.884 99.0954 165.653 96.8228 166.749C94.3478 167.504 93.2627 165.628 92.4716 164.562C92.2834 164.308 91.3339 164.057 91.2752 163.752C91.2265 163.499 91.6561 163.68 91.7739 163.813Z" fill="#141B4D"/>
<path d="M108.168 150.578C109.049 152.379 100.455 158.392 88.9732 164.008C77.491 169.625 67.4687 172.717 66.5877 170.916C65.7066 169.115 74.3006 163.102 85.7827 157.486C97.2649 151.869 107.287 148.777 108.168 150.578Z" fill="#141B4D"/>
<path d="M110.334 135.608C110.524 133.904 109.967 131.741 110.363 130.144C111.75 128.361 116.365 125.127 115.2 122.866C114.522 121.548 109.664 124.814 108.855 125.581C108.177 126.223 107.231 127.421 106.105 126.907C104.198 126.036 100.315 122.454 97.6481 125.982C96.6509 127.426 100.732 128.482 101.72 129.366C105.533 132.775 104.025 137.786 101.325 141.528C100.148 143.158 97.2421 144.402 95.3955 145.075C92.3997 146.166 89.1906 146.896 86.1428 147.865C82.748 148.944 80.5323 146.672 78.2647 144.553C72.9568 139.593 65.072 135.415 62.1521 142.998C59.7378 150.775 69.524 161.158 75.796 163.344C85.1208 166.594 88.1268 162.989 96.2847 158.788C105.11 154.243 109.264 145.179 110.334 135.608Z" fill="#50B2DC"/>
<path fill-rule="evenodd" clip-rule="evenodd" d="M62.8438 143.238C61.7595 146.772 63.4175 151.045 66.2985 154.824C69.1701 158.59 73.0762 161.621 76.0367 162.653C80.5744 164.234 83.485 164.125 86.2376 163.169C87.642 162.681 89.0272 161.965 90.5964 161.09C91.0158 160.856 91.4488 160.61 91.8979 160.356C93.1148 159.666 94.4493 158.91 95.9494 158.137C104.476 153.746 108.552 144.961 109.606 135.527C109.682 134.851 109.627 134.088 109.566 133.239C109.558 133.123 109.549 133.006 109.541 132.887C109.476 131.945 109.423 130.894 109.653 129.968L109.69 129.817L109.785 129.695C110.171 129.199 110.762 128.624 111.359 128.046C111.396 128.011 111.433 127.975 111.47 127.939C112.052 127.376 112.659 126.791 113.194 126.195C113.769 125.555 114.219 124.951 114.463 124.407C114.679 123.923 114.699 123.569 114.589 123.289C114.516 123.286 114.391 123.295 114.204 123.339C113.734 123.45 113.105 123.722 112.421 124.087C111.051 124.819 109.697 125.791 109.358 126.112C109.295 126.171 109.221 126.246 109.136 126.332C108.855 126.614 108.464 127.006 108.061 127.282C107.494 127.668 106.695 127.981 105.801 127.572C105.392 127.386 104.9 127.087 104.404 126.785C104.262 126.698 104.119 126.611 103.978 126.527C103.311 126.128 102.613 125.739 101.91 125.482C101.207 125.226 100.554 125.122 99.9633 125.234C99.398 125.342 98.811 125.663 98.2433 126.408C98.2355 126.42 98.2306 126.429 98.2275 126.435C98.2343 126.451 98.2513 126.483 98.2916 126.533C98.4517 126.729 98.7866 126.967 99.2894 127.241C99.6442 127.434 100.024 127.615 100.408 127.798C100.554 127.868 100.7 127.938 100.846 128.009C101.331 128.244 101.871 128.518 102.208 128.82C104.314 130.703 104.953 133.053 104.692 135.403C104.436 137.718 103.312 140.024 101.918 141.956C101.231 142.908 100.091 143.691 98.96 144.304C97.811 144.927 96.5854 145.42 95.6457 145.763C94.1207 146.318 92.5474 146.779 90.9874 147.22C90.6821 147.306 90.3776 147.392 90.074 147.477C88.8188 147.829 87.5795 148.176 86.3643 148.562C84.4446 149.173 82.834 148.827 81.4265 148.049C80.1891 147.364 79.0866 146.329 78.0659 145.37C77.9647 145.275 77.8643 145.181 77.7647 145.088C75.1432 142.638 71.9579 140.456 69.1426 139.783C67.7491 139.45 66.5086 139.501 65.474 140.003C64.4529 140.497 63.5242 141.483 62.8438 143.238ZM98.2227 126.448C98.2226 126.448 98.2228 126.447 98.2237 126.444C98.2233 126.447 98.2228 126.448 98.2227 126.448ZM69.4828 138.36C72.6668 139.12 76.0779 141.508 78.7642 144.018C78.8594 144.107 78.9537 144.195 79.0474 144.283C80.0988 145.269 81.067 146.177 82.1351 146.768C83.2512 147.385 84.4458 147.636 85.9208 147.167C87.1625 146.773 88.4323 146.417 89.6896 146.064C89.9904 145.98 90.2906 145.896 90.5895 145.811C92.1449 145.372 93.6741 144.923 95.1449 144.387C96.0517 144.057 97.2024 143.592 98.2622 143.017C99.3399 142.433 100.241 141.778 100.731 141.099C102.038 139.289 103.018 137.22 103.237 135.242C103.453 133.298 102.939 131.438 101.232 129.911C101.075 129.771 100.734 129.581 100.207 129.325C100.082 129.265 99.9488 129.201 99.8108 129.135C99.4161 128.947 98.9817 128.74 98.5894 128.527C98.0731 128.245 97.5129 127.894 97.1574 127.458C96.9718 127.231 96.8062 126.938 96.7683 126.583C96.7287 126.214 96.8375 125.867 97.0456 125.566L97.0545 125.553L97.0641 125.54C97.8261 124.532 98.7205 123.981 99.6891 123.797C100.636 123.616 101.573 123.801 102.412 124.107C103.252 124.414 104.049 124.864 104.73 125.271C104.906 125.376 105.071 125.476 105.226 125.571C105.702 125.86 106.086 126.094 106.409 126.241C106.641 126.347 106.877 126.317 107.235 126.073C107.514 125.882 107.75 125.646 108.007 125.388C108.116 125.278 108.229 125.165 108.351 125.049C108.822 124.604 110.301 123.56 111.732 122.796C112.448 122.414 113.211 122.069 113.868 121.914C114.193 121.837 114.553 121.792 114.894 121.852C115.26 121.917 115.637 122.116 115.851 122.531C116.282 123.367 116.14 124.243 115.799 125.005C115.461 125.759 114.889 126.499 114.283 127.174C113.711 127.809 113.07 128.429 112.496 128.983C112.456 129.022 112.416 129.061 112.377 129.099C111.818 129.639 111.352 130.096 111.04 130.471C110.911 131.114 110.94 131.891 111.002 132.786C111.009 132.898 111.018 133.012 111.026 133.128C111.087 133.957 111.153 134.869 111.061 135.69C109.976 145.398 105.743 154.74 96.6196 159.438C95.1477 160.196 93.8521 160.931 92.6423 161.617C92.1874 161.875 91.7447 162.126 91.3093 162.368C89.729 163.249 88.2503 164.019 86.7179 164.551C83.5968 165.636 80.342 165.704 75.5549 164.035C72.2434 162.881 68.1204 159.628 65.1344 155.712C62.1642 151.816 60.1372 147.019 61.4529 142.781L61.4601 142.757L61.4688 142.734C62.2476 140.712 63.3958 139.383 64.8358 138.685C66.2667 137.992 67.8766 137.976 69.4828 138.36Z" fill="#50B2DC"/>
<path d="M69.8537 166.827C70.2218 166.135 72.4953 162.844 72.4494 161.476L75.288 163.15L77.8157 164.123C76.5667 166.596 70.4853 170.085 67.5679 170.65C66.2258 170.909 69.4074 167.666 69.8537 166.827Z" fill="#50B2DC"/>
<path fill-rule="evenodd" clip-rule="evenodd" d="M71.674 160.169L75.6072 162.487L78.8335 163.73L78.468 164.453C78.0909 165.2 77.3906 165.957 76.5749 166.662C75.7462 167.377 74.7436 168.086 73.6986 168.727C71.6287 169.996 69.2911 171.062 67.7057 171.369C67.5771 171.394 67.4076 171.413 67.2287 171.378C67.0324 171.34 66.795 171.229 66.6413 170.981C66.5007 170.754 66.4995 170.522 66.5161 170.38C66.5332 170.234 66.5783 170.102 66.6211 169.999C66.781 169.614 67.1294 169.132 67.4626 168.702C67.7206 168.368 68.012 168.013 68.2803 167.686C68.375 167.57 68.4667 167.458 68.5531 167.352C68.9122 166.911 69.1386 166.615 69.2086 166.483C69.2974 166.316 69.473 166.033 69.6743 165.708C69.7152 165.642 69.7572 165.575 69.7997 165.506C70.0627 165.08 70.3735 164.572 70.6702 164.045C70.9682 163.516 71.2436 162.984 71.44 162.511C71.6472 162.012 71.7245 161.675 71.7187 161.502L71.674 160.169ZM70.9052 166.498C70.7028 166.825 70.5626 167.051 70.4989 167.171C70.3458 167.459 70.007 167.883 69.686 168.277C69.5919 168.393 69.4951 168.511 69.3974 168.63C69.1346 168.951 68.8651 169.279 68.622 169.593C69.8777 169.153 71.4479 168.39 72.9363 167.477C73.9324 166.866 74.8667 166.203 75.6207 165.552C76.061 165.172 76.4226 164.81 76.6976 164.478L74.9688 163.812L72.9599 162.628C72.9079 162.779 72.85 162.928 72.79 163.073C72.5614 163.623 72.254 164.213 71.9434 164.765C71.6314 165.318 71.3077 165.848 71.0424 166.277C70.994 166.355 70.9482 166.429 70.9052 166.498ZM67.9622 170.584C67.9621 170.584 67.9622 170.584 67.9622 170.584V170.584Z" fill="#50B2DC"/>
<path d="M81.1664 164.841C84.0988 167.185 90.1306 168.933 96.7435 165.963C97.9965 165.54 90.7385 164.376 90.6659 162.126C87.4021 163.765 85.336 164.377 81.1664 164.841Z" fill="#50B2DC"/>
<path fill-rule="evenodd" clip-rule="evenodd" d="M91.3593 160.953L90.3309 161.47C87.15 163.067 85.1677 163.657 81.0757 164.112L79.3337 164.306L80.7152 165.41C83.8577 167.923 90.1696 169.71 97.0236 166.644C97.0871 166.62 97.1612 166.588 97.235 166.541C97.3197 166.487 97.4537 166.382 97.5411 166.202C97.7731 165.723 97.4527 165.346 97.351 165.247C97.229 165.128 97.0821 165.046 96.9806 164.993C96.8652 164.934 96.7333 164.877 96.5974 164.822C96.3239 164.712 95.9367 164.575 95.5166 164.427C95.1683 164.305 94.7974 164.174 94.4497 164.044C93.6243 163.734 92.8121 163.387 92.2116 163C91.5609 162.581 91.4019 162.273 91.3967 162.112L91.3593 160.953ZM90.2638 163.144C90.5601 163.6 91.0122 163.958 91.4331 164.23C92.1747 164.707 93.1122 165.099 93.9539 165.415C94.3822 165.576 94.7661 165.71 95.1059 165.829C95.1059 165.829 95.106 165.829 95.1061 165.829C90.3412 167.531 86.0343 166.756 83.2417 165.312C85.9894 164.894 87.8553 164.299 90.2638 163.144ZM96.5015 165.268C96.5033 165.267 96.503 165.267 96.5009 165.268L96.5015 165.268Z" fill="#50B2DC"/>
<path fill-rule="evenodd" clip-rule="evenodd" d="M71.2597 147.06C71.4564 147.013 71.6545 147.134 71.702 147.331C71.9256 148.254 71.7849 149.206 71.1643 149.889C70.541 150.574 69.5062 150.908 68.1091 150.749C67.9079 150.726 67.7629 150.545 67.7853 150.344C67.8076 150.144 67.9888 150 68.19 150.023C69.4396 150.165 70.2059 149.853 70.6206 149.397C71.0379 148.938 71.172 148.254 70.9894 147.5C70.9419 147.304 71.0629 147.107 71.2597 147.06Z" fill="#141B4D"/>
<path fill-rule="evenodd" clip-rule="evenodd" d="M65.3045 150.086C65.0779 150.456 65.0317 150.904 65.039 151.173C65.0445 151.375 64.885 151.543 64.6828 151.548C64.4806 151.553 64.3122 151.394 64.3067 151.192C64.2974 150.849 64.35 150.242 64.6794 149.704C65.0251 149.14 65.6499 148.697 66.6777 148.685C66.8799 148.682 67.0461 148.844 67.0489 149.046C67.0516 149.248 66.8899 149.414 66.6876 149.416C65.9031 149.425 65.5147 149.743 65.3045 150.086Z" fill="#141B4D"/>
<path fill-rule="evenodd" clip-rule="evenodd" d="M70.6479 144.74C70.4158 145.037 70.3579 145.432 70.3304 145.732C70.312 145.933 70.1336 146.08 69.932 146.06C69.7304 146.041 69.5819 145.862 69.6003 145.661C69.6283 145.357 69.6947 144.768 70.0685 144.289C70.4677 143.778 71.1508 143.47 72.2363 143.595C72.4375 143.618 72.5826 143.8 72.5604 144C72.5381 144.201 72.357 144.344 72.1558 144.321C71.2591 144.217 70.8546 144.476 70.6479 144.74Z" fill="#141B4D"/>
<path fill-rule="evenodd" clip-rule="evenodd" d="M69.0671 148.121C69.1405 148.051 69.2564 148.055 69.326 148.128C69.4647 148.274 69.576 148.404 69.677 148.521C70.0046 148.902 70.2247 149.158 70.9222 149.461C71.0151 149.501 71.0577 149.609 71.0175 149.701C70.9773 149.794 70.8695 149.836 70.7767 149.796C69.9974 149.458 69.7223 149.137 69.382 148.741C69.2845 148.627 69.1817 148.507 69.0601 148.379C68.9905 148.306 68.9936 148.19 69.0671 148.121Z" fill="#141B4D"/>
<path fill-rule="evenodd" clip-rule="evenodd" d="M72.8347 145.744C72.7608 145.675 72.7568 145.559 72.8257 145.485C73.1887 145.096 73.6953 144.728 74.21 144.395C74.5465 144.178 74.8954 143.97 75.2148 143.779C75.3825 143.679 75.5421 143.584 75.6874 143.495C75.7735 143.442 75.8862 143.469 75.939 143.555C75.9919 143.641 75.9649 143.754 75.8787 143.807C75.7258 143.901 75.5624 143.998 75.3928 144.099C75.0774 144.287 74.7405 144.488 74.4087 144.703C73.8999 145.032 73.4245 145.38 73.0933 145.735C73.0244 145.809 72.9086 145.813 72.8347 145.744Z" fill="#141B4D"/>
<path fill-rule="evenodd" clip-rule="evenodd" d="M73.0757 146.339C73.0194 146.255 73.0418 146.141 73.1257 146.085C73.5676 145.789 74.1446 145.545 74.7214 145.338C75.0985 145.203 75.4857 145.079 75.84 144.966C76.0261 144.907 76.2031 144.851 76.3648 144.797C76.4607 144.765 76.5643 144.817 76.5962 144.913C76.6281 145.009 76.5762 145.112 76.4803 145.144C76.31 145.201 76.1288 145.259 75.9406 145.319C75.5907 145.43 75.2169 145.549 74.8451 145.683C74.2749 145.888 73.7327 146.119 73.3296 146.389C73.2457 146.445 73.132 146.423 73.0757 146.339Z" fill="#141B4D"/>
<path fill-rule="evenodd" clip-rule="evenodd" d="M67.1505 151.403C67.0905 151.321 66.976 151.304 66.8946 151.364C66.4662 151.679 66.0422 152.14 65.6521 152.613C65.397 152.922 65.1498 153.244 64.9237 153.54C64.8049 153.695 64.6919 153.842 64.5866 153.976C64.5241 154.056 64.5379 154.171 64.6174 154.233C64.6968 154.295 64.8119 154.282 64.8743 154.202C64.9852 154.061 65.1009 153.91 65.2209 153.753C65.4442 153.462 65.6828 153.15 65.9343 152.846C66.32 152.378 66.7208 151.946 67.1117 151.659C67.193 151.599 67.2104 151.484 67.1505 151.403Z" fill="#141B4D"/>
<path fill-rule="evenodd" clip-rule="evenodd" d="M67.7303 151.705C67.6457 151.649 67.5323 151.673 67.4771 151.758C67.1866 152.204 66.951 152.784 66.7515 153.363C66.621 153.742 66.5027 154.131 66.3944 154.487C66.3375 154.674 66.2834 154.851 66.2318 155.014C66.2012 155.11 66.2544 155.213 66.3507 155.244C66.447 155.274 66.5499 155.221 66.5805 155.125C66.6349 154.954 66.6903 154.772 66.7477 154.583C66.8546 154.231 66.9688 153.856 67.0975 153.483C67.2948 152.91 67.5186 152.365 67.7837 151.958C67.8389 151.873 67.815 151.76 67.7303 151.705Z" fill="#141B4D"/>
<path d="M69.3353 147.566C69.4654 147.733 69.4598 148.174 69.2708 148.324C69.0818 148.475 68.5827 148.437 68.4526 148.27C68.3225 148.104 68.5062 147.738 68.6952 147.587C68.8841 147.437 69.2051 147.4 69.3353 147.566Z" fill="#141B4D"/>
<g clip-path="url(#clip0_1110_5774)">
<path d="M361.611 225.802C358.115 219.986 352.824 215.464 346.535 212.915C340.246 210.367 333.3 209.931 326.741 211.672C326.521 211.739 326.284 211.728 326.071 211.641C325.858 211.553 325.681 211.395 325.571 211.192C323.81 208.024 321.891 204.947 319.821 201.972C316.653 197.401 312.965 193.213 308.831 189.492C305.341 194.362 302.151 199.632 297.921 203.772C300.63 206.359 303.069 209.214 305.201 212.292C307.182 215.133 308.998 218.084 310.641 221.132C310.739 221.307 310.782 221.508 310.764 221.708C310.746 221.907 310.668 222.097 310.541 222.252C302.691 232.202 301.921 246.392 308.921 257.892C309.564 258.982 310.269 260.033 311.031 261.042C311.125 261.152 311.242 261.24 311.373 261.301C311.504 261.361 311.647 261.392 311.791 261.392C311.936 261.392 312.079 261.361 312.21 261.301C312.341 261.24 312.458 261.152 312.551 261.042L320.861 250.042C321.011 249.862 321.093 249.636 321.093 249.402C321.093 249.168 321.011 248.942 320.861 248.762C319.132 246.813 318.213 244.277 318.291 241.672C318.496 239.924 319.106 238.248 320.073 236.778C321.04 235.307 322.337 234.083 323.861 233.202C327.071 231.202 330.581 230.832 333.141 232.122C335.061 233.122 337.241 235.342 338.341 240.272C338.388 240.516 338.523 240.734 338.72 240.883C338.918 241.033 339.164 241.104 339.411 241.082L364.051 239.192C364.263 239.171 364.462 239.083 364.621 238.941C364.779 238.799 364.888 238.61 364.931 238.402C365.058 237.579 365.108 236.745 365.081 235.912C364.816 232.299 363.621 228.816 361.611 225.802Z" fill="white"/>
<path d="M312.921 193.332C311.841 192.242 310.031 190.172 309.581 190.122L304.031 210.672C304.421 211.192 305.161 212.292 305.531 212.822C306.191 213.752 306.811 214.692 307.421 215.622L308.421 211.672L322.791 206.352C322.071 205.202 321.311 204.062 320.521 202.932L309.601 206.932L312.921 193.332Z" fill="#C0EDFF"/>
<path d="M304.031 242.672L318.141 241.802C318.267 240.344 318.718 238.933 319.461 237.672L304.141 238.672C304.02 240.002 303.983 241.338 304.031 242.672Z" fill="#C0EDFF"/>
<path fill-rule="evenodd" clip-rule="evenodd" d="M331.641 210.802C333.641 210.302 335.641 210.302 336.301 210.672L358.141 239.302C358.641 239.802 352.141 240.302 352.141 239.802L331.641 210.802Z" fill="#C0EDFF"/>
</g>
<path d="M117.315 280.489C121.968 289.349 132.032 296.362 141.841 300.33C162.135 308.537 179.071 301.917 182.187 321.503C183.051 337.547 127.489 313.305 127.286 314.342C125.445 323.754 148.119 349.784 147.623 359.22C146.816 374.567 146.79 389.153 147.501 405.747C147.932 415.804 147.595 420.337 148.364 429.517C148.364 429.66 146.98 433.645 143.75 424.194C135.67 400.546 127.899 380.423 118.399 357.281C111.436 340.32 106.181 322.68 103.995 304.439C103.051 296.566 107.034 252.31 113.115 271.318C114.225 274.789 115.607 277.237 117.315 280.489Z" fill="#141B4D"/>
<path d="M336.08 280.489C331.427 289.349 321.364 296.362 311.554 300.33C291.26 308.537 274.324 301.917 271.208 321.503C270.344 337.547 325.906 313.305 326.109 314.342C327.95 323.754 305.277 349.784 305.773 359.22C306.58 374.567 306.606 389.153 305.894 405.747C305.463 415.804 305.801 420.337 305.031 429.517C305.031 429.66 306.416 433.645 309.645 424.194C317.726 400.546 325.496 380.423 334.997 357.281C341.959 340.32 347.214 322.68 349.401 304.439C350.344 296.566 346.361 252.31 340.28 271.318C339.17 274.789 337.788 277.237 336.08 280.489Z" fill="#141B4D"/>
<path fill-rule="evenodd" clip-rule="evenodd" d="M281.819 325.113C284.112 321.721 281.394 317.645 277.3 317.645H175.692C171.597 317.645 168.879 321.721 171.173 325.113C180.748 339.275 201.918 353.257 226.496 353.257C251.073 353.257 272.243 339.275 281.819 325.113Z" fill="#40DA6B"/>
<path d="M145.54 304.631C149.613 312.385 158.422 318.524 167.008 321.997C184.771 329.18 199.594 323.387 202.322 340.529C203.078 354.572 154.445 333.354 154.268 334.262C152.657 342.499 172.502 365.283 172.068 373.543C171.362 386.976 171.339 399.742 171.961 414.267C172.339 423.069 172.043 427.037 172.717 435.072C172.717 435.197 171.505 438.685 168.678 430.413C161.606 409.714 154.804 392.101 146.489 371.845C140.395 357 135.795 341.56 133.881 325.594C133.055 318.703 136.542 279.966 141.864 296.604C142.836 299.641 144.045 301.784 145.54 304.631Z" fill="#50B2DC"/>
<path d="M307.374 304.631C303.302 312.385 294.493 318.524 285.907 321.997C268.144 329.18 253.321 323.387 250.593 340.529C249.837 354.572 298.469 333.354 298.647 334.262C300.258 342.499 280.413 365.283 280.847 373.543C281.553 386.976 281.576 399.742 280.953 414.267C280.576 423.069 280.872 427.037 280.198 435.072C280.198 435.197 281.41 438.685 284.236 430.413C291.309 409.714 298.11 392.101 306.426 371.845C312.52 357 317.12 341.56 319.033 325.594C319.859 318.703 316.373 279.966 311.051 296.604C310.079 299.641 308.869 301.784 307.374 304.631Z" fill="#50B2DC"/>
<path d="M195.957 337.409C195.957 339.43 194.319 341.068 192.298 341.068C190.276 341.068 188.638 339.43 188.638 337.409C188.638 335.388 190.276 333.749 192.298 333.749C194.319 333.749 195.957 335.388 195.957 337.409Z" fill="#141B4D"/>
<path d="M262.559 337.409C262.559 339.43 260.921 341.068 258.899 341.068C256.878 341.068 255.24 339.43 255.24 337.409C255.24 335.388 256.878 333.749 258.899 333.749C260.921 333.749 262.559 335.388 262.559 337.409Z" fill="#141B4D"/>
<path fill-rule="evenodd" clip-rule="evenodd" d="M215.063 42.1833L199.175 16.7146L204.143 13.6154L220.031 39.0841L215.063 42.1833Z" fill="#141B4D"/>
<path d="M209.913 15.1992C208.773 20.1218 204.017 23.2249 199.292 22.1302C194.566 21.0354 191.66 16.1575 192.8 11.2349C193.94 6.3123 198.696 3.2092 203.421 4.30391C208.147 5.39863 211.053 10.2766 209.913 15.1992Z" fill="#50B2DC"/>
<path fill-rule="evenodd" clip-rule="evenodd" d="M235.633 40.4319L246.886 12.5862L252.315 14.7801L241.062 42.6258L235.633 40.4319Z" fill="#141B4D"/>
<path d="M260.167 4.43405C262.772 8.76383 261.373 14.3855 257.044 16.9903C252.714 19.5951 247.092 18.1968 244.487 13.867C241.882 9.53721 243.281 3.91559 247.611 1.31076C251.94 -1.29407 257.562 0.104272 260.167 4.43405Z" fill="#50B2DC"/>
<path fill-rule="evenodd" clip-rule="evenodd" d="M298.446 95.6083C304.226 115.948 289.005 135.478 268.001 137.916L171.41 149.129C146.609 152.008 127.653 130.194 140.736 108.928C163.927 71.235 203.083 35.5526 235.687 31.7676C269.833 27.8036 288.273 59.814 298.446 95.6083Z" fill="#50B2DC"/>
<path fill-rule="evenodd" clip-rule="evenodd" d="M288.456 100.888C291.845 114.571 281.801 127.547 267.798 129.172L168.842 140.66C152.308 142.579 139.386 128.029 147.275 113.372C166.11 78.3761 202.85 42.885 233.019 39.3828C264.383 35.7417 280.225 67.6521 288.456 100.888Z" fill="#141B4D"/>
<path fill-rule="evenodd" clip-rule="evenodd" d="M222.213 109.753L222.213 109.755C218.804 110.168 215.079 119.038 213.823 125.169C206.957 134.175 181.346 133.129 155.368 113.824C134.586 98.3808 127.642 57.2324 126.768 38.5886C127.301 39.5001 131.142 43.4763 142.241 52.0885C150.207 58.2703 152.456 57.7416 158.639 56.2874C163.224 55.2092 169.972 53.6223 182.818 53.8847C206.821 54.375 215.684 63.4962 217.156 68.0709C217.49 63.2785 223.918 52.3026 247.114 46.0952C259.526 42.7737 266.457 42.7037 271.167 42.6562C277.519 42.5921 279.829 42.5687 286.089 34.6638C294.811 23.6511 297.592 18.8729 297.892 17.8604C301.494 36.1738 304.574 77.7903 288.079 97.7486C267.462 122.697 242.841 129.827 234.023 122.72C231.344 117.076 225.624 109.367 222.213 109.753ZM237.194 90.3625C239.266 79.4633 250.128 60.0868 277 69.6803C274.548 79.6869 263.156 97.8326 237.194 90.3625ZM203.019 94.5056C198.405 84.4163 183.231 68.193 159.427 83.9242C164.196 93.0563 179.591 107.958 203.019 94.5056Z" fill="#FF9737"/>
<path fill-rule="evenodd" clip-rule="evenodd" d="M158.329 264.829C155.286 281.524 168.83 295.956 185.8 295.956H266.87C283.84 295.956 297.383 281.524 294.341 264.829C284.047 208.34 257.482 159.817 226.335 159.817C195.187 159.817 168.623 208.34 158.329 264.829Z" fill="#50B2DC"/>
<path fill-rule="evenodd" clip-rule="evenodd" d="M260.051 179.575C259.852 180.031 259.659 180.494 259.465 180.958C258.289 183.771 257.105 186.605 254.572 188.039C251.273 189.906 246.714 189.728 242.341 189.556C236.456 189.325 230.907 189.108 229.221 193.908C227.604 198.509 232.269 201.224 237.259 204.127C240.861 206.223 244.631 208.417 246.332 211.49C247.8 214.143 247.541 217.591 247.29 220.934C246.971 225.178 246.665 229.252 249.924 231.312C253.389 233.503 257.205 231.406 261.175 229.225C263.827 227.769 266.547 226.274 269.277 225.993C271.943 225.719 274.853 226.64 277.685 227.537C280.418 228.403 283.078 229.245 285.378 228.968C278.779 209.131 270.107 191.869 260.051 179.575Z" fill="#40DA6B"/>
<path fill-rule="evenodd" clip-rule="evenodd" d="M210.907 268.59C212.322 264.674 219.911 262.285 217.922 258.617C215.821 254.742 209.162 259.271 205.02 257.73C202.223 256.689 201.774 252.272 198.883 251.531C195.755 250.73 192.152 251.699 189.723 253.811C187.31 255.91 186.165 259.306 186.274 262.499C186.37 265.329 189.471 267.058 190.268 269.778C191.226 273.049 188.558 277.667 191.312 279.692C193.99 281.66 197.469 277.698 200.788 277.511C204.189 277.319 208.154 280.846 210.703 278.599C213.272 276.334 209.745 271.807 210.907 268.59Z" fill="#FFCF54"/>
<defs>
<clipPath id="clip0_1110_5774">
<rect width="67.1" height="71.92" fill="white" transform="translate(297.921 189.492)"/>
</clipPath>
</defs>
</svg>
